<?xml version="1.0" standalone="no"?>
<!DOCTYPE svg PUBLIC "-//W3C//DTD SVG 20010904//EN"
 "http://www.w3.org/TR/2001/REC-SVG-20010904/DTD/svg10.dtd">
<svg version="1.0" xmlns="http://www.w3.org/2000/svg"
 width="847.000000pt" height="1280.000000pt" viewBox="0 0 847.000000 1280.000000"
 preserveAspectRatio="xMidYMid meet">

<g transform="translate(0.000000,1280.000000) scale(0.100000,-0.100000)"
fill="#000000" stroke="none">
<path d="M2970 10676 c-134 -36 -194 -58 -180 -66 8 -5 6 -9 -7 -12 -10 -3
-27 -9 -38 -13 -13 -4 -12 -1 5 9 14 8 22 15 19 16 -18 1 -184 -72 -222 -98
-25 -17 -61 -38 -79 -47 -18 -9 -55 -37 -83 -62 -27 -26 -41 -40 -30 -32 20
14 20 13 1 -9 -11 -12 -24 -22 -31 -22 -7 0 -34 -24 -62 -52 -27 -29 -62 -64
-77 -77 -29 -26 -28 -43 1 -20 10 8 0 -6 -21 -31 -22 -25 -43 -47 -46 -50 -4
-3 -9 -13 -13 -23 -6 -15 -3 -17 13 -12 25 8 26 -7 2 -28 -23 -21 -36 -22 -28
-2 3 8 1 15 -4 15 -10 0 -14 -13 -11 -42 2 -16 -9 -23 -31 -19 -4 0 -5 -6 -1
-15 3 -8 -2 -21 -13 -29 -18 -12 -18 -14 -2 -32 16 -17 16 -21 2 -41 -8 -12
-12 -27 -9 -32 10 -16 -18 -7 -33 10 -11 13 -11 11 -2 -7 9 -19 6 -32 -16 -70
-14 -27 -31 -55 -38 -63 -6 -8 -19 -32 -29 -53 -19 -41 -23 -72 -7 -47 6 9 10
10 10 3 0 -6 -5 -15 -10 -18 -9 -6 -36 -61 -41 -83 -1 -4 -10 -19 -20 -33 -10
-14 -16 -29 -12 -33 3 -3 1 -6 -5 -6 -7 0 -12 -13 -12 -29 0 -16 -4 -40 -9
-53 -4 -13 -11 -66 -15 -118 -7 -101 -9 -115 -31 -224 -11 -54 -13 -114 -8
-268 3 -109 9 -198 12 -198 3 0 6 21 6 48 0 26 4 61 9 77 6 22 5 26 -3 15 -8
-11 -10 7 -9 70 0 47 3 75 5 62 2 -12 8 -20 12 -18 4 3 7 -74 7 -170 0 -99 4
-178 10 -184 6 -6 8 5 6 33 -3 23 -2 39 2 36 3 -3 7 -17 8 -32 1 -14 6 -23 10
-21 4 3 5 18 2 33 -4 17 -1 32 6 36 9 5 10 2 6 -13 -4 -11 -2 -23 3 -27 6 -3
10 -35 9 -72 -1 -49 3 -69 15 -78 8 -6 15 -18 15 -26 -2 -32 3 -49 13 -49 8 0
10 14 6 40 -3 22 -1 40 4 40 6 0 9 -38 7 -92 -2 -51 1 -104 5 -118 6 -19 6
-21 -2 -10 -6 8 -11 10 -11 5 0 -6 8 -22 17 -35 10 -14 16 -27 14 -28 -1 -2 1
-7 5 -10 4 -4 4 -2 1 5 -8 13 18 12 30 -2 4 -4 3 -5 -3 -2 -20 11 -25 -22 -9
-54 19 -36 32 -37 38 -1 2 15 4 -55 4 -155 0 -127 4 -187 12 -197 8 -10 10
-38 6 -93 -5 -56 -4 -74 4 -63 9 13 11 13 11 -1 0 -8 -4 -19 -8 -25 -5 -5 -14
-36 -21 -69 -7 -33 -17 -75 -23 -93 -5 -19 -7 -36 -4 -39 3 -3 0 -15 -6 -27
-6 -11 -15 -37 -18 -56 -4 -19 -11 -43 -15 -52 -6 -14 -2 -18 16 -17 13 0 19
3 12 5 -8 4 -9 14 -3 34 4 16 5 32 2 36 -4 4 -1 4 5 0 9 -5 18 7 29 33 9 23
19 41 23 41 4 0 6 18 6 39 0 29 4 41 17 44 11 3 15 11 11 26 -3 11 2 36 11 55
22 47 21 65 -4 59 -15 -4 -20 0 -20 16 0 11 5 21 10 21 6 0 10 6 10 13 1 6 10
30 21 52 11 23 17 29 14 15 -9 -33 -16 -80 -9 -57 3 9 9 15 14 12 9 -6 15 19
26 104 6 53 22 56 18 4 -1 -16 -5 -62 -8 -103 -4 -51 -3 -70 4 -60 8 12 10 10
10 -11 0 -14 -4 -29 -9 -35 -5 -5 -12 -40 -15 -79 -6 -65 -5 -68 8 -39 7 17
19 55 26 85 16 73 22 291 9 300 -7 4 -7 23 -1 58 5 28 6 51 2 51 -4 0 -7 22
-7 48 0 66 -21 212 -43 302 -11 41 -22 98 -25 125 -3 28 -9 66 -14 85 l-8 35
-8 -27 c-4 -16 -12 -25 -18 -21 -6 4 -8 0 -4 -10 3 -9 1 -19 -5 -23 -7 -5 -8
29 -3 110 6 89 5 116 -5 116 -7 0 -10 8 -7 20 3 11 2 20 -1 20 -4 0 -7 10 -8
23 -1 24 -8 71 -19 129 -9 46 2 66 20 41 12 -15 13 3 10 127 -3 140 -3 143 10
90 8 -30 12 -67 9 -82 -3 -15 -1 -35 4 -45 5 -10 15 -72 21 -138 12 -126 15
-150 27 -230 4 -27 8 -59 9 -70 1 -11 5 -42 9 -70 4 -27 10 -66 13 -85 2 -19
9 -55 15 -80 8 -38 17 -99 30 -218 2 -13 11 -29 21 -36 19 -14 23 -36 7 -36
-17 0 -11 -65 8 -85 11 -12 16 -30 14 -47 -2 -16 3 -39 11 -52 9 -12 17 -38
19 -57 2 -19 8 -32 13 -29 12 6 8 51 -6 64 -5 6 -9 33 -9 61 0 29 -3 55 -7 59
-8 7 -12 95 -14 269 0 59 -5 107 -10 107 -5 0 -7 11 -3 25 4 18 3 25 -6 23 -7
-2 -15 3 -18 11 -3 8 0 11 7 7 17 -11 13 15 -5 28 -11 8 -16 28 -15 61 0 59
-7 87 -20 80 -5 -4 -9 1 -9 9 0 8 5 18 10 21 6 3 10 16 9 28 0 20 -1 21 -8 3
-11 -27 -24 -3 -15 27 10 31 6 119 -6 131 -13 13 -13 29 0 21 6 -4 8 31 4 99
-3 76 -2 106 7 106 7 0 9 -9 5 -25 -6 -25 8 -36 17 -12 2 6 5 -59 5 -146 1
-86 6 -176 12 -198 6 -23 9 -47 6 -55 -3 -7 -1 -16 4 -19 6 -4 10 -25 10 -48
0 -76 20 -25 22 58 2 63 6 79 17 77 12 -3 12 0 2 12 -7 8 -10 19 -8 23 3 5 8
44 11 88 7 99 27 206 37 199 9 -5 -1 -117 -12 -124 -4 -3 -4 -23 1 -44 5 -22
5 -62 0 -90 -5 -28 -11 -73 -14 -101 -4 -41 -3 -45 6 -25 5 14 17 57 24 95 22
107 47 185 58 185 7 0 6 3 -1 8 -9 6 -9 18 -1 52 6 25 15 49 19 54 5 6 9 23 9
38 0 15 4 28 10 28 5 0 12 23 16 50 4 28 10 50 15 50 5 0 9 8 9 17 0 9 8 25
18 36 16 20 16 20 -2 13 -14 -5 -16 -3 -9 6 6 7 14 29 18 48 13 65 95 301 130
374 60 125 176 264 268 323 66 42 64 19 -4 -36 -89 -74 -131 -120 -124 -138 3
-9 -8 -29 -27 -49 -18 -18 -33 -37 -34 -41 0 -10 -37 -86 -44 -93 -16 -16 -70
-131 -70 -148 0 -12 -5 -24 -10 -27 -7 -4 -7 -11 -2 -18 17 -22 21 -60 10 -81
-15 -28 -58 -399 -47 -410 13 -15 25 28 28 107 0 15 6 27 12 27 5 0 7 -5 4
-10 -4 -6 -7 -50 -8 -98 0 -48 -3 -89 -6 -92 -3 -3 -4 -54 0 -115 3 -60 6 -92
8 -70 2 22 4 45 6 50 1 6 3 24 5 40 l2 30 7 -30 c4 -16 3 -50 0 -75 -4 -25 -5
-56 -2 -70 6 -23 5 -24 -13 -10 -18 14 -18 14 -3 -10 10 -16 13 -34 8 -50 -4
-14 -7 -42 -8 -62 -1 -20 -6 -49 -13 -63 -10 -22 -9 -28 3 -36 14 -8 11 -10
-21 -13 -8 -1 -13 -8 -11 -16 2 -8 5 -31 6 -50 l2 -35 -4 34 c-4 34 -4 34 -17
10 -16 -31 -26 -70 -17 -65 4 3 7 -33 8 -79 0 -69 -2 -82 -15 -78 -12 5 -12 2
-3 -15 14 -25 14 -35 1 -27 -18 11 -16 -165 2 -235 10 -36 18 -69 18 -73 0 -5
5 -5 10 -2 6 3 10 -5 10 -18 0 -14 6 -27 14 -30 8 -3 22 -29 31 -58 18 -52 87
-132 126 -144 9 -3 20 -16 23 -29 3 -12 17 -35 31 -50 15 -16 37 -45 50 -65
13 -20 49 -58 79 -86 111 -100 156 -147 150 -157 -4 -5 -18 3 -33 19 -15 15
-40 39 -56 53 l-29 25 20 -26 c62 -82 132 -143 177 -154 15 -4 30 -11 33 -16
3 -5 -7 -4 -23 1 l-28 11 30 -26 c17 -14 107 -84 200 -155 186 -141 245 -192
245 -212 0 -8 -3 -9 -8 -3 -10 15 -189 156 -247 196 -27 19 -52 37 -55 40 -3
3 -26 18 -52 33 -25 15 -52 33 -58 41 -7 8 -17 15 -22 15 -8 0 49 -79 99 -136
26 -30 53 -80 53 -98 0 -9 3 -16 8 -16 4 0 13 -10 21 -22 l14 -23 -24 20 c-52
43 -61 56 -50 68 7 10 5 13 -10 14 -10 1 -19 -2 -19 -8 0 -5 -5 -9 -11 -9 -5
0 -7 4 -4 10 3 6 -1 7 -10 4 -13 -6 -12 -9 7 -22 34 -23 34 -22 19 -32 -11 -6
0 -16 38 -37 29 -15 74 -44 100 -64 25 -19 71 -52 102 -72 51 -34 133 -115
204 -203 17 -20 37 -44 46 -53 8 -10 13 -23 11 -31 -3 -7 -1 -10 4 -7 5 3 18
-7 28 -22 20 -26 20 -26 0 -8 -12 9 -24 14 -27 10 -4 -3 -7 -2 -7 3 0 5 -10
23 -22 38 -13 16 -30 38 -40 50 -9 11 -20 18 -24 14 -4 -4 -1 -14 6 -23 6 -8
26 -43 43 -77 16 -35 34 -66 39 -69 5 -3 9 -8 8 -10 -5 -13 14 -37 26 -32 10
4 14 -3 14 -23 0 -16 4 -36 10 -44 17 -28 24 19 7 58 -17 41 -22 97 -7 72 5
-8 7 -17 5 -21 -3 -3 11 -43 30 -89 19 -46 32 -87 29 -91 -3 -5 -1 -9 4 -9 5
0 14 -10 21 -22 9 -18 10 -18 5 -3 -15 47 -16 55 -5 55 6 0 11 -6 11 -14 0 -7
7 -19 15 -26 8 -7 12 -16 9 -21 -3 -5 0 -9 5 -9 6 0 24 -19 41 -42 30 -41 39
-65 20 -53 -5 3 -10 0 -10 -7 -1 -7 -7 1 -14 17 l-14 30 -9 -25 -10 -24 -14
29 c-8 16 -20 31 -28 33 -10 3 -11 1 -5 -9 5 -8 14 -33 20 -57 15 -58 -1 -41
-51 53 -21 39 -43 76 -49 84 -5 7 -11 20 -12 28 -2 8 -9 22 -17 31 -7 10 -28
47 -46 84 -36 74 -58 99 -65 77 -2 -8 -7 -21 -9 -29 -3 -8 -6 4 -6 28 -1 52
-34 129 -67 155 -13 10 -24 26 -24 34 0 9 -3 14 -6 10 -9 -9 -36 21 -29 33 3
5 1 10 -5 10 -6 0 -14 8 -17 18 -7 18 -75 83 -81 77 -2 -2 8 -16 22 -30 14
-14 26 -28 26 -30 0 -10 -29 8 -34 21 -3 8 -31 26 -61 39 -30 14 -55 30 -55
36 0 8 7 6 18 -4 19 -18 42 -23 42 -9 0 4 -21 20 -48 37 -26 16 -49 32 -52 36
-3 3 -19 14 -37 23 -17 9 -62 39 -100 67 -37 29 -61 44 -53 34 8 -9 59 -49
113 -87 107 -76 128 -107 25 -38 -86 58 -169 130 -163 140 6 9 -13 24 -30 25
-13 0 -111 90 -255 235 -109 109 -218 240 -249 298 -7 15 -36 65 -62 110 -27
46 -49 88 -49 94 0 5 -7 26 -16 46 -25 58 -32 75 -42 107 l-9 30 -8 -44 c-5
-30 -10 -39 -16 -30 -5 8 -6 29 -3 47 8 41 -3 102 -19 102 -7 0 -13 -12 -14
-27 -1 -19 1 -22 8 -12 6 9 8 -7 8 -46 0 -43 -3 -54 -9 -40 -8 18 -9 18 -10
-5 -11 -165 2 -195 22 -53 2 14 20 13 30 -2 4 -5 8 -21 8 -35 0 -19 -2 -22
-10 -10 -8 13 -9 13 -14 0 -11 -36 -16 -74 -8 -62 8 11 10 11 15 -2 4 -9 1
-15 -4 -13 -15 3 -39 -80 -33 -112 6 -31 -31 -125 -46 -116 -5 3 -8 0 -5 -7 7
-18 -39 -110 -50 -101 -4 5 -5 0 -2 -9 3 -9 0 -22 -8 -28 -8 -6 -11 -19 -8
-27 5 -13 8 -12 15 6 5 13 12 19 19 15 8 -4 9 -3 5 4 -4 7 2 22 14 34 11 13
23 33 26 45 4 13 10 23 15 23 15 0 10 -14 -34 -95 -9 -16 -32 -60 -50 -96 -19
-37 -46 -82 -60 -101 -26 -33 -26 -34 -5 -35 20 -2 78 49 78 68 0 5 4 9 10 9
6 0 6 -9 0 -24 l-9 -25 42 20 c23 10 52 19 64 19 12 0 24 4 27 8 3 5 30 15 61
22 31 7 58 17 61 21 2 4 17 2 33 -4 23 -9 26 -13 16 -23 -7 -7 -25 -15 -40
-18 -40 -7 -46 -19 -7 -14 17 2 32 1 32 -3 0 -4 -21 -11 -47 -15 -26 -4 -61
-13 -78 -20 -29 -14 -29 -14 18 -8 72 9 56 -3 -22 -16 -43 -7 -82 -21 -102
-36 -38 -28 -33 -30 18 -9 53 22 52 19 -9 -22 -50 -33 -56 -41 -53 -68 2 -16
1 -24 -2 -17 -8 20 -22 14 -72 -27 -35 -30 -51 -52 -63 -91 -15 -46 -15 -54
-2 -67 7 -8 14 -24 14 -37 0 -23 57 -122 66 -114 2 3 -3 21 -11 41 -8 20 -15
44 -15 54 1 16 2 16 12 -2 7 -11 13 -25 14 -32 1 -6 6 -19 12 -28 8 -15 10
-14 14 8 3 15 1 24 -3 21 -5 -3 -9 2 -9 11 0 9 5 13 11 9 10 -6 6 76 -7 131
-5 19 -5 19 10 1 10 -12 13 -29 9 -50 -5 -30 -5 -30 10 -11 9 11 14 31 11 45
-2 14 -1 19 2 13 11 -24 24 -13 20 17 -2 19 5 42 20 64 13 19 24 40 24 45 0 6
5 11 10 11 6 0 10 6 10 14 0 8 10 22 22 30 21 15 21 16 3 16 -11 0 -33 -7 -49
-15 -16 -9 -31 -14 -33 -11 -6 6 121 65 156 72 7 1 18 7 24 13 6 6 18 11 26
10 11 0 12 -2 3 -6 -6 -2 -9 -10 -6 -15 4 -6 2 -8 -3 -5 -6 4 -32 -13 -58 -38
-25 -25 -51 -45 -56 -45 -5 0 -9 -5 -9 -12 0 -6 -11 -26 -25 -44 -26 -34 -30
-44 -17 -44 4 0 18 16 31 35 13 19 27 32 31 30 5 -3 11 1 13 7 4 10 6 10 6 0
1 -7 -8 -20 -19 -29 -11 -10 -20 -21 -20 -26 0 -4 -11 -18 -24 -30 -15 -14
-26 -39 -30 -62 -3 -22 -3 -31 0 -21 5 15 8 16 15 5 6 -10 9 -3 9 22 0 20 7
42 15 49 13 11 15 8 16 -16 2 -23 3 -21 8 11 5 31 10 39 24 37 9 -2 17 3 17 9
0 7 3 10 6 7 3 -3 -4 -24 -15 -47 -22 -43 -30 -100 -10 -71 8 12 9 11 5 -5 -3
-11 -2 -33 3 -50 8 -26 17 -18 11 10 -1 6 7 1 18 -10 20 -20 20 -20 -2 -37
-30 -25 -8 -22 34 4 34 21 74 44 132 75 15 8 34 23 41 33 8 12 18 16 26 10 8
-4 32 -5 54 -2 49 6 43 -12 -12 -36 -24 -10 -31 -17 -19 -19 9 -2 33 3 53 11
46 20 56 20 49 2 -3 -8 -12 -12 -20 -9 -10 3 -17 -2 -20 -14 -3 -12 -17 -26
-30 -32 -27 -12 -31 -26 -9 -35 8 -3 12 -12 9 -20 -3 -8 2 -28 11 -45 9 -19
12 -37 8 -46 -6 -10 -18 1 -47 45 -41 61 -62 72 -89 45 -8 -8 -17 -12 -20 -9
-7 8 -90 -38 -105 -58 -7 -10 -19 -18 -27 -18 -23 0 -101 -96 -119 -147 -22
-59 -35 -91 -51 -123 -19 -36 -45 -182 -45 -248 0 -42 -3 -53 -12 -44 -7 7
-10 40 -8 94 2 46 4 104 4 130 1 35 4 44 13 37 14 -12 37 25 29 47 -3 8 0 14
6 14 6 0 8 3 5 7 -4 3 -16 -2 -28 -13 -12 -10 -22 -17 -23 -14 -2 6 -73 -71
-76 -82 -1 -4 -4 -17 -7 -28 -3 -11 -16 -23 -29 -26 -13 -3 -24 -13 -24 -22 0
-12 3 -13 12 -4 7 7 16 12 22 12 5 0 -5 -16 -24 -35 l-34 -35 18 -35 c11 -19
22 -35 27 -35 4 0 10 -8 14 -17 4 -13 -2 -10 -22 8 -86 79 -93 82 -68 32 9
-17 29 -42 45 -55 16 -12 30 -30 30 -38 0 -8 -23 7 -52 35 -29 28 -50 46 -46
42 9 -12 -52 -78 -65 -70 -6 3 -7 1 -4 -4 4 -6 0 -14 -9 -17 -10 -4 -14 -12
-10 -23 4 -10 4 -14 0 -11 -4 4 -21 -12 -39 -35 -18 -23 -54 -58 -79 -77 -25
-19 -45 -39 -46 -43 0 -4 16 4 35 19 42 32 51 28 30 -12 -8 -16 -37 -79 -65
-140 -40 -88 -50 -122 -50 -163 0 -44 -9 -69 -52 -153 -49 -95 -53 -106 -55
-182 -1 -44 -6 -99 -12 -121 -5 -22 -15 -112 -22 -200 -10 -140 -10 -180 6
-315 21 -195 53 -297 176 -564 28 -60 60 -146 71 -190 11 -45 29 -99 41 -121
56 -112 144 -255 182 -295 23 -25 53 -65 67 -90 14 -25 42 -69 62 -99 25 -36
36 -64 36 -89 0 -31 8 -44 63 -97 35 -33 88 -91 118 -129 l53 -69 -3 -71 c-2
-56 6 -106 39 -240 22 -93 51 -194 64 -225 49 -116 51 -146 31 -411 -4 -50 -1
-92 8 -127 15 -57 8 -123 -28 -233 -10 -33 -20 -107 -24 -185 -7 -128 -8 -132
-55 -235 -70 -152 -95 -228 -96 -288 0 -58 -49 -170 -90 -207 -29 -26 -70
-112 -70 -147 l0 -28 2111 0 2111 0 -7 48 c-3 26 -20 88 -37 137 -29 88 -30
93 -24 230 3 77 9 152 12 167 l6 28 108 0 c86 0 110 3 121 16 7 8 23 54 36
102 75 283 75 285 68 352 -3 36 -13 128 -21 205 -7 77 -17 160 -21 184 l-6 45
26 -21 c15 -12 47 -43 71 -70 66 -74 117 -106 147 -94 13 6 98 15 188 21 91 6
176 16 190 23 14 7 47 41 73 77 26 36 70 90 98 120 52 57 250 296 333 403 27
35 106 178 183 330 75 148 156 300 180 337 24 38 57 101 72 142 28 71 29 76
22 203 -4 78 -3 159 3 203 8 54 7 100 -2 175 -13 106 -27 145 -68 188 -25 27
-43 117 -58 289 -3 41 -13 91 -21 111 -17 39 -209 227 -303 295 -31 22 -89 79
-130 125 -41 46 -118 129 -171 184 -96 98 -98 101 -125 190 -64 212 -147 321
-428 558 -78 66 -117 107 -139 147 -39 68 -126 176 -239 297 -47 50 -117 131
-155 179 -38 48 -105 126 -150 173 -44 47 -95 112 -113 143 -18 32 -58 84 -89
116 -62 62 -207 156 -229 147 -8 -2 -12 -1 -9 4 4 5 -39 32 -93 60 -69 36
-102 48 -107 40 -5 -8 -3 -9 6 -4 9 5 11 4 6 -4 -11 -16 -26 -3 -19 16 4 10 2
14 -4 10 -6 -4 -13 -4 -15 0 -9 22 -177 93 -302 128 -51 14 -131 56 -146 77
-3 3 -19 9 -35 13 -17 4 -38 9 -48 12 -17 5 -18 3 -2 -26 8 -17 13 -31 11 -31
-3 0 -12 12 -19 27 -10 19 -27 30 -57 37 -25 7 -48 20 -54 31 -6 11 -13 22
-16 25 -3 3 -11 21 -17 40 -15 46 -50 142 -75 208 -20 52 -20 53 -2 67 14 10
15 13 4 12 -8 -1 -15 3 -15 8 0 6 5 10 11 9 6 -1 11 4 11 11 0 7 -8 12 -18 10
-17 -3 -16 -1 2 42 22 52 24 67 7 57 -10 -6 -10 -4 -2 7 6 8 14 28 18 44 5 22
4 26 -4 15 -8 -13 -10 -12 -10 5 -1 17 -3 16 -11 -5 -7 -17 -7 -26 1 -28 5 -2
8 -8 5 -13 -4 -5 -12 -3 -19 4 -8 6 -11 16 -8 21 3 5 0 6 -6 2 -7 -4 -12 -24
-13 -44 0 -22 -3 -31 -7 -22 -4 8 -14 15 -22 15 -10 0 -20 20 -30 63 -8 34
-18 62 -22 62 -5 0 -8 -4 -8 -9 0 -5 -18 -41 -40 -80 -23 -41 -40 -84 -40
-102 0 -26 -3 -29 -14 -20 -11 9 -20 2 -45 -37 l-31 -49 0 -366 c0 -249 -3
-368 -11 -372 -6 -4 -8 -13 -5 -21 3 -8 -1 -14 -8 -14 -28 0 -259 81 -411 144
-343 143 -595 253 -615 270 -8 7 -46 26 -84 41 -68 29 -179 116 -157 123 6 2
11 8 11 14 0 6 -8 7 -17 4 -10 -4 -14 -4 -10 0 3 4 -12 23 -34 42 -80 70 -259
307 -304 404 -11 21 -23 34 -31 31 -8 -3 -11 2 -8 14 3 10 -12 52 -32 93 -35
74 -80 197 -76 213 1 4 -6 43 -16 85 -11 42 -20 99 -21 127 -1 27 -6 54 -10
60 -17 21 -32 114 -29 175 2 53 6 64 25 73 16 7 27 6 38 -3 9 -8 27 -10 50 -6
25 5 37 3 40 -6 4 -9 27 -15 68 -16 34 -2 66 -7 71 -12 9 -9 15 -8 51 6 11 4
30 8 42 9 12 0 25 4 29 8 4 4 18 7 31 7 14 0 31 7 40 15 8 8 27 15 41 15 45
-1 138 17 163 31 l24 14 -28 3 c-15 2 -25 8 -22 13 11 17 -30 8 -90 -20 -63
-31 -80 -31 -72 0 3 12 0 19 -9 19 -8 0 -14 -7 -14 -15 0 -8 -7 -15 -15 -15
-22 0 -20 49 3 56 9 3 25 10 34 15 23 12 65 12 73 -1 3 -5 15 -10 26 -10 16 0
18 5 13 25 -5 19 -2 25 10 25 23 0 20 36 -6 59 -25 24 -74 35 -120 28 -75 -11
-163 -31 -168 -38 -7 -10 -82 -29 -92 -23 -4 3 -8 -2 -8 -10 0 -10 -9 -16 -25
-16 -14 0 -29 -8 -35 -21 -8 -14 -17 -18 -28 -13 -9 3 -25 6 -34 6 -27 -1 -34
43 -11 66 45 48 119 72 298 97 55 7 122 18 148 23 27 5 56 8 65 5 9 -2 26 3
37 10 18 14 17 16 -25 28 -25 7 -51 17 -58 22 -7 6 -34 6 -65 2 -28 -4 -86 -9
-127 -11 -81 -3 -125 -9 -180 -22 -56 -13 -83 -9 -87 13 -8 34 -16 367 -10
397 2 10 6 21 10 24 4 4 7 20 7 36 0 15 5 28 10 28 6 0 10 15 10 34 0 21 13
56 35 92 19 32 35 61 35 65 0 4 9 11 21 14 12 4 18 12 15 21 -3 8 1 14 9 14 8
0 12 6 10 13 -3 6 11 29 30 50 19 21 34 41 33 45 -1 4 3 17 10 28 6 12 8 24 5
28 -3 3 1 6 10 6 9 0 17 7 17 16 0 10 6 14 15 10 8 -3 15 -1 15 5 0 14 26 39
40 39 6 0 8 5 5 10 -3 6 1 13 9 16 9 3 16 12 16 20 0 8 6 14 14 14 7 0 19 6
26 14 6 8 17 13 25 10 7 -3 16 -1 20 5 3 6 19 11 36 11 20 0 29 5 29 16 0 12
6 15 21 11 11 -3 28 -3 37 1 14 5 12 7 -8 13 -23 7 -23 7 7 8 17 1 35 6 38 11
3 6 12 10 18 10 8 0 8 -3 -1 -9 -11 -7 -11 -9 2 -14 8 -3 18 -2 21 3 4 6 15
10 26 10 21 0 26 16 7 23 -10 4 -10 6 0 6 6 1 12 9 12 19 0 14 2 15 10 2 9
-13 10 -13 10 0 0 13 1 13 10 0 7 -11 10 -11 10 -2 0 7 4 11 10 7 6 -3 5 -15
-2 -30 -14 -32 -1 -46 18 -21 13 18 14 18 14 2 0 -10 5 -14 11 -10 6 3 16 0
21 -7 8 -11 9 -10 4 4 -10 32 32 37 89 11 46 -21 105 -31 203 -33 19 -1 31 -5
27 -11 -3 -6 5 -10 19 -10 14 0 28 -4 31 -10 3 -5 17 -10 30 -10 27 0 81 -42
90 -71 4 -12 19 -22 36 -26 16 -3 32 -10 35 -14 3 -5 13 -9 22 -9 9 0 30 -13
45 -30 16 -16 33 -30 38 -30 5 0 9 -6 9 -14 0 -8 4 -18 10 -21 5 -3 8 0 7 7
-2 7 1 3 7 -9 5 -13 13 -23 18 -23 15 0 131 -110 124 -117 -3 -3 0 -11 7 -18
7 -7 22 -26 34 -42 12 -15 35 -43 52 -62 17 -19 36 -50 42 -70 6 -20 18 -47
25 -61 15 -29 105 -261 140 -363 13 -38 29 -116 36 -173 6 -57 15 -99 19 -93
4 7 5 18 2 26 -9 23 16 14 32 -11 12 -18 16 -45 14 -103 -2 -64 1 -85 19 -118
29 -52 30 -80 3 -65 -28 14 -41 12 -41 -6 0 -13 3 -14 15 -4 12 10 18 6 35
-22 39 -64 39 -153 1 -207 -22 -30 -35 -91 -20 -91 5 0 9 7 9 15 0 8 4 15 10
15 5 0 9 -9 7 -19 -1 -11 3 -19 8 -18 6 1 8 7 7 12 -8 22 -4 81 6 106 6 14 13
48 17 75 4 27 16 100 26 163 11 63 18 120 15 128 -3 7 -1 13 4 13 13 0 13 138
0 215 -18 107 -22 195 -9 195 6 0 9 7 5 15 -3 8 -1 15 4 15 6 0 10 5 10 11 0
5 -4 7 -10 4 -5 -3 -10 -1 -10 5 0 6 -9 29 -19 51 -11 21 -15 37 -10 33 14 -8
10 9 -6 30 -8 11 -15 30 -15 44 0 13 -4 20 -10 17 -6 -3 -7 1 -4 9 4 10 1 16
-7 16 -7 0 -10 3 -6 6 6 6 -30 106 -69 192 -13 29 -24 57 -24 63 0 6 -6 7 -12
3 -10 -5 -10 -4 -2 5 9 10 8 23 -4 52 -8 21 -19 39 -24 39 -4 0 -8 10 -8 23 0
12 -7 33 -16 45 -8 12 -12 27 -8 34 4 7 3 8 -4 4 -11 -7 -16 5 -13 30 1 7 -6
14 -15 18 -10 4 -13 13 -9 25 4 13 -4 30 -25 52 -25 28 -32 31 -40 19 -7 -10
-10 -11 -10 -2 0 7 7 15 15 18 22 9 18 22 -11 37 -18 9 -23 16 -15 21 7 4 18
3 25 -3 14 -11 26 -5 26 13 0 7 -3 7 -8 -1 -5 -8 -12 -7 -27 4 -14 11 -16 17
-7 20 8 3 4 11 -12 24 -32 25 -45 25 -16 -1 l23 -20 -24 0 c-13 0 -41 9 -62
20 -21 11 -42 18 -47 15 -5 -3 -15 3 -21 14 -8 11 -19 17 -28 13 -9 -3 -13 -1
-8 3 4 5 -1 17 -10 28 -10 11 -13 18 -8 16 6 -3 29 -13 52 -23 24 -10 41 -21
39 -25 -3 -4 18 -7 45 -7 27 0 49 3 49 7 0 11 -30 39 -42 39 -7 0 -7 5 1 14 8
10 8 16 -2 25 -8 6 -17 9 -20 6 -4 -3 -5 -2 -2 1 8 12 -34 82 -67 109 -18 15
-32 31 -30 34 5 9 -60 89 -153 188 -83 89 -188 177 -198 166 -4 -3 -9 2 -13
11 -3 9 -12 16 -20 16 -8 0 -14 4 -14 9 0 5 -31 30 -70 55 -38 25 -85 60 -105
77 -62 55 -251 89 -490 88 -134 0 -174 -4 -245 -23z m335 4 c3 -6 -1 -7 -9 -4
-18 7 -21 14 -7 14 6 0 13 -4 16 -10z m-338 -26 c-3 -3 -12 -4 -19 -1 -8 3 -5
6 6 6 11 1 17 -2 13 -5z m-122 -34 c-27 -12 -43 -12 -25 0 8 5 22 9 30 9 10 0
8 -3 -5 -9z m-139 -55 c-11 -8 -25 -15 -30 -15 -6 1 0 7 14 15 32 19 40 18 16
0z m-46 -20 c0 -2 -10 -9 -22 -15 -22 -11 -22 -10 -4 4 21 17 26 19 26 11z
m95 -85 c-27 -12 -43 -12 -25 0 8 5 22 9 30 9 10 0 8 -3 -5 -9z m15 -30 c-8
-4 -35 -11 -60 -15 -25 -4 -49 -11 -55 -15 -5 -4 -23 -10 -39 -14 -15 -4 -56
-25 -89 -46 -34 -22 -66 -40 -72 -40 -6 0 -24 -12 -41 -28 -16 -15 -51 -45
-78 -66 -46 -38 -179 -171 -246 -248 -36 -42 -45 -46 -54 -22 -4 12 -2 15 9
10 8 -3 14 -2 12 2 -1 4 3 9 8 11 16 8 85 95 85 108 0 6 -4 14 -10 18 -10 6 7
30 50 71 37 36 38 18 1 -20 -21 -21 -30 -39 -26 -47 6 -8 4 -10 -5 -4 -8 5
-11 4 -6 -3 7 -12 37 -5 33 7 -2 7 50 57 177 169 69 61 246 160 274 154 8 -2
11 1 8 6 -8 14 5 17 77 19 35 1 55 -2 47 -7z m-200 -24 c0 -2 -7 -7 -16 -10
-8 -3 -12 -2 -9 4 6 10 25 14 25 6z m1388 -42 c-4 -3 -12 5 -18 18 -12 22 -12
22 6 6 10 -10 15 -20 12 -24z m-1538 2 c0 -2 -8 -10 -17 -17 -16 -13 -17 -12
-4 4 13 16 21 21 21 13z m1556 -53 c-7 -7 -26 7 -26 19 0 6 6 6 15 -2 9 -7 13
-15 11 -17z m-986 3 c0 -2 -9 -6 -20 -9 -11 -3 -18 -1 -14 4 5 9 34 13 34 5z
m-682 -71 c-20 -18 -33 -37 -30 -41 4 -4 1 -4 -6 0 -8 5 -19 1 -27 -10 -8 -11
-15 -14 -15 -8 0 6 7 17 15 24 8 7 12 16 9 21 -3 5 1 7 8 4 7 -3 27 8 43 24
17 16 32 26 35 24 3 -3 -12 -20 -32 -38z m562 15 c-14 -11 -29 -20 -35 -20 -5
0 1 9 15 20 14 11 30 20 35 20 6 0 -1 -9 -15 -20z m1264 -90 c25 -12 46 -26
46 -31 0 -6 -21 1 -47 17 -74 42 -73 46 1 14z m96 -50 c8 -5 12 -11 9 -14 -3
-3 -14 1 -25 9 -21 16 -8 20 16 5z m-1860 -4 c0 -3 -15 -14 -32 -26 l-33 -22
30 26 c31 27 35 29 35 22z m268 -46 c-7 -11 -17 -20 -22 -20 -5 0 -1 9 9 20
10 11 20 20 22 20 2 0 -2 -9 -9 -20z m1502 -40 c8 -5 11 -10 5 -10 -5 0 -17 5
-25 10 -8 5 -10 10 -5 10 6 0 17 -5 25 -10z m177 4 c-3 -3 -12 -4 -19 -1 -8 3
-5 6 6 6 11 1 17 -2 13 -5z m-154 -65 c44 -27 74 -49 66 -49 -9 0 -24 7 -35
15 -21 16 -38 20 -30 6 3 -4 -10 -1 -28 8 -19 9 -32 19 -30 22 2 4 -11 14 -29
23 -17 8 -27 16 -22 16 6 0 3 5 -5 11 -44 30 41 -9 113 -52z m188 4 c13 -17
13 -17 -6 -3 -11 8 -22 16 -24 17 -2 2 0 3 6 3 6 0 17 -8 24 -17z m-6 -41 c-3
-3 -11 0 -18 7 -9 10 -8 11 6 5 10 -3 15 -9 12 -12z m-2210 -12 c-3 -5 -12
-10 -18 -10 -7 0 -6 4 3 10 19 12 23 12 15 0z m1340 0 c3 -5 -3 -10 -15 -10
-12 0 -18 5 -15 10 3 6 10 10 15 10 5 0 12 -4 15 -10z m-1397 -57 c-19 -21
-44 -53 -54 -70 -10 -18 -22 -33 -26 -33 -4 0 -8 -6 -8 -14 0 -8 -5 -18 -11
-21 -21 -13 -4 29 24 57 15 16 27 32 27 36 0 10 67 82 77 82 4 0 -9 -17 -29
-37z m2332 7 c0 -5 -8 -10 -17 -10 -15 0 -16 2 -3 10 19 12 20 12 20 0z m-76
-61 c-3 -5 -14 -5 -25 1 -26 14 -24 18 6 12 14 -2 22 -8 19 -13z m79 -26 c-7
-2 -19 -2 -25 0 -7 3 -2 5 12 5 14 0 19 -2 13 -5z m-436 -75 c-3 -8 -6 -5 -6
6 -1 11 2 17 5 13 3 -3 4 -12 1 -19z m107 -4 c3 -8 2 -12 -4 -9 -6 3 -10 10
-10 16 0 14 7 11 14 -7z m362 -15 c5 1 9 -15 9 -34 1 -19 5 -38 9 -42 5 -4 5
2 2 15 -5 13 -3 22 3 22 6 0 11 -4 11 -10 0 -5 11 -25 24 -44 13 -19 38 -66
56 -104 18 -39 42 -75 54 -81 15 -8 16 -10 3 -6 -10 3 -17 2 -15 -2 24 -46 38
-86 33 -93 -4 -6 -1 -10 5 -10 7 0 9 -8 5 -20 -4 -11 -2 -20 4 -20 6 0 11 -9
11 -21 0 -11 5 -30 11 -42 8 -15 8 -19 1 -12 -6 6 -23 41 -37 79 -15 39 -38
80 -53 93 -21 19 -23 22 -7 17 20 -7 20 -7 1 14 -11 12 -15 22 -11 22 4 0 -3
11 -16 24 -13 13 -30 32 -38 43 -8 10 -28 33 -44 50 -28 30 -29 32 -8 28 l22
-4 -21 30 c-12 16 -19 29 -17 29 3 0 -10 17 -29 37 -35 39 -38 59 -4 28 11
-10 23 -15 27 -12 3 4 2 7 -3 7 -5 0 -11 10 -11 22 -2 16 0 19 6 10 5 -8 12
-13 17 -13z m-96 -14 c7 -8 8 -15 2 -15 -5 0 -15 7 -22 15 -7 8 -8 15 -2 15 5
0 15 -7 22 -15z m-232 -30 c-3 -3 -9 2 -12 12 -6 14 -5 15 5 6 7 -7 10 -15 7
-18z m-1747 -288 c-10 -9 -11 -8 -5 6 3 10 9 15 12 12 3 -3 0 -11 -7 -18z
m-364 -19 c-3 -7 -5 -2 -5 12 0 14 2 19 5 13 2 -7 2 -19 0 -25z m-20 -90 c-3
-7 -5 -2 -5 12 0 14 2 19 5 13 2 -7 2 -19 0 -25z m-10 -75 c-3 -10 -5 -2 -5
17 0 19 2 27 5 18 2 -10 2 -26 0 -35z m2704 -40 c13 -16 12 -17 -3 -4 -10 7
-18 15 -18 17 0 8 8 3 21 -13z m-2514 -45 c-3 -8 -6 -5 -6 6 -1 11 2 17 5 13
3 -3 4 -12 1 -19z m396 -49 c-6 -6 -7 3 -4 23 4 28 6 29 9 9 2 -13 0 -27 -5
-32z m-573 -27 c0 -15 -2 -15 -10 -2 -13 20 -13 33 0 25 6 -3 10 -14 10 -23z
m585 -2 c3 -5 1 -10 -4 -10 -6 0 -11 5 -11 10 0 6 2 10 4 10 3 0 8 -4 11 -10z
m-795 -47 c0 -22 -2 -25 -10 -13 -13 20 -13 40 0 40 6 0 10 -12 10 -27z m808
-73 c0 -98 -5 -130 -20 -130 -7 0 -6 172 2 228 0 2 4 1 9 -3 5 -3 9 -46 9 -95z
m-499 45 l0 -20 -9 20 c-5 11 -9 27 -9 35 -1 13 0 13 9 0 5 -8 9 -24 9 -35z
m67 8 c-11 -11 -17 4 -9 23 7 18 8 18 11 1 2 -10 1 -21 -2 -24z m201 -5 c-3
-8 -6 -5 -6 6 -1 11 2 17 5 13 3 -3 4 -12 1 -19z m2461 -74 c-3 -27 -4 -26 -9
8 -3 22 -1 34 4 29 5 -5 7 -21 5 -37z m-3031 -21 c-3 -10 -5 -2 -5 17 0 19 2
27 5 18 2 -10 2 -26 0 -35z m206 27 c-3 -11 -7 -20 -9 -20 -2 0 -4 9 -4 20 0
11 4 20 9 20 5 0 7 -9 4 -20z m107 -25 c0 -8 -2 -15 -4 -15 -2 0 -6 7 -10 15
-3 8 -1 15 4 15 6 0 10 -7 10 -15z m5 -55 c3 -5 1 -10 -4 -10 -6 0 -11 5 -11
10 0 6 2 10 4 10 3 0 8 -4 11 -10z m202 -32 c-3 -8 -6 -5 -6 6 -1 11 2 17 5
13 3 -3 4 -12 1 -19z m-183 -72 c6 -26 5 -27 -8 -13 -9 9 -13 23 -10 32 8 19
9 18 18 -19z m-117 -168 c-3 -7 -5 -2 -5 12 0 14 2 19 5 13 2 -7 2 -19 0 -25z
m-63 -34 c3 -8 2 -12 -4 -9 -6 3 -10 10 -10 16 0 14 7 11 14 -7z m-77 -66 c-3
-7 -5 -2 -5 12 0 14 2 19 5 13 2 -7 2 -19 0 -25z m1108 12 c0 -22 -29 -18 -33
3 -3 14 1 18 15 15 10 -2 18 -10 18 -18z m-75 -19 c5 -11 10 -24 10 -30 0 -15
-33 -14 -55 3 -16 12 -17 16 -6 30 18 21 38 20 51 -3z m1860 -35 c-1 -5 4 -13
12 -17 10 -7 9 -9 -4 -9 -10 0 -18 2 -18 4 0 2 -3 12 -7 22 -4 11 -2 15 6 13
7 -3 12 -8 11 -13z m-2773 -38 c-3 -7 -5 -2 -5 12 0 14 2 19 5 13 2 -7 2 -19
0 -25z m30 10 c-3 -8 -6 -5 -6 6 -1 11 2 17 5 13 3 -3 4 -12 1 -19z m67 -78
c4 -51 3 -70 -4 -60 -5 8 -10 29 -11 45 0 26 -2 28 -10 10 -8 -17 -9 -16 -6 8
3 15 0 27 -4 27 -5 0 -9 12 -8 28 0 15 3 21 6 15 9 -23 25 -14 18 10 -4 16 -3
18 3 7 5 -8 12 -49 16 -90z m73 38 c-3 -7 -5 -2 -5 12 0 14 2 19 5 13 2 -7 2
-19 0 -25z m-127 -19 c0 -16 -4 -29 -8 -29 -5 0 -8 15 -8 34 1 41 16 37 16 -5z
m-43 9 c-3 -8 -6 -5 -6 6 -1 11 2 17 5 13 3 -3 4 -12 1 -19z m53 -108 c4 -22
4 -43 0 -45 -8 -5 -20 43 -20 78 0 32 12 12 20 -33z m-41 -57 c1 -17 -2 -34
-6 -36 -5 -3 -9 23 -9 56 -1 43 1 54 6 37 5 -14 8 -39 9 -57z m82 30 c-12 -20
-14 -14 -5 12 4 9 9 14 11 11 3 -2 0 -13 -6 -23z m13 -56 c7 -33 -2 -97 -13
-97 -3 0 -6 12 -6 28 0 15 -4 43 -8 63 -6 28 -4 36 7 36 8 0 17 -14 20 -30z
m-57 -26 c0 -10 5 -36 12 -57 9 -29 10 -49 3 -74 l-10 -35 -1 45 c-1 25 -5 61
-10 80 -4 19 -6 41 -4 48 7 18 12 15 10 -7z m50 -103 c-3 -8 -6 -5 -6 6 -1 11
2 17 5 13 3 -3 4 -12 1 -19z m23 -42 c0 -8 6 -17 13 -19 7 -4 6 -6 -4 -6 -9
-1 -19 8 -22 19 -3 11 -1 20 4 20 5 0 9 -6 9 -14z m-83 -16 c-1 -11 -5 -20 -9
-20 -10 0 -10 4 -2 24 8 22 13 20 11 -4z m78 -29 c-6 -5 -25 10 -25 20 0 5 6
4 14 -3 8 -7 12 -15 11 -17z m-44 -29 c-15 -4 -33 17 -25 30 3 4 13 0 22 -10
14 -14 15 -18 3 -20z m70 -57 c11 7 11 -12 0 -40 -7 -16 -9 -14 -14 14 -4 19
-6 48 -5 65 1 28 2 27 5 -7 2 -20 8 -35 14 -32z m-51 25 c0 -11 -2 -20 -4 -20
-2 0 -6 9 -9 20 -3 11 -1 20 4 20 5 0 9 -9 9 -20z m-17 -35 c4 -8 2 -17 -3
-20 -6 -4 -10 3 -10 14 0 25 6 27 13 6z m-11 -100 c3 -13 2 -22 -3 -20 -4 3
-9 2 -12 -2 -2 -5 -2 -2 0 5 1 8 3 20 3 28 0 22 7 16 12 -11z m28 -61 c0 -3
-9 -17 -20 -31 -22 -29 -25 -26 -10 11 8 23 30 37 30 20z m617 -42 c-3 -20
-10 -28 -28 -29 -13 -1 -18 0 -12 3 9 4 10 11 3 24 -8 15 -6 21 7 29 24 13 34
4 30 -27z m-530 -44 c-3 -7 -5 -2 -5 12 0 14 2 19 5 13 2 -7 2 -19 0 -25z
m-137 -163 c10 -13 9 -15 -8 -15 -15 0 -20 5 -16 15 4 8 7 15 9 15 1 0 8 -7
15 -15z m236 -122 c-11 -11 -17 4 -9 23 7 18 8 18 11 1 2 -10 1 -21 -2 -24z
m769 -281 c-3 -3 -11 0 -18 7 -9 10 -8 11 6 5 10 -3 15 -9 12 -12z m-802 -32
c-3 -12 -8 -19 -11 -16 -5 6 5 36 12 36 2 0 2 -9 -1 -20z m2566 -33 c1 -5 -3
-5 -9 -2 -5 3 -10 16 -9 28 0 21 1 21 9 2 5 -11 9 -24 9 -28z m-2614 -53 c-8
-16 -15 -24 -15 -18 0 15 25 65 28 55 1 -4 -4 -21 -13 -37z m282 20 c-3 -3
-12 -4 -19 -1 -8 3 -5 6 6 6 11 1 17 -2 13 -5z m699 -15 c8 -14 -10 -11 -32 6
-18 13 -18 14 4 8 12 -3 25 -9 28 -14z m1714 -19 c0 -5 -2 -10 -4 -10 -3 0 -8
5 -11 10 -3 6 -1 10 4 10 6 0 11 -4 11 -10z m72 -44 c7 5 8 2 4 -5 -6 -9 -13
-8 -28 5 -16 16 -21 16 -28 4 -6 -8 -10 -19 -10 -25 0 -5 4 -4 9 3 6 10 10 10
20 -2 7 -8 10 -20 6 -26 -3 -5 2 -10 12 -11 16 0 16 -1 -2 -9 -14 -6 -16 -9
-5 -10 8 -2 18 -2 22 -1 10 1 3 -28 -10 -41 -12 -12 1 -38 20 -38 6 0 5 7 -2
15 -9 11 -10 19 -3 26 11 11 45 1 38 -11 -3 -5 -1 -11 5 -15 15 -9 12 -28 -2
-19 -7 4 -9 3 -5 -1 12 -14 38 -15 31 -2 -3 7 4 1 15 -13 11 -14 21 -34 21
-45 1 -20 1 -20 9 0 6 14 3 24 -8 33 -14 11 -13 12 4 3 11 -6 27 -15 35 -22
13 -9 12 -10 -2 -5 -25 8 -22 -1 3 -15 12 -6 19 -7 16 -1 -4 5 6 9 22 8 20 -1
27 -5 23 -15 -4 -10 -1 -13 11 -8 9 3 19 2 22 -3 4 -6 1 -10 -4 -10 -6 0 -11
-4 -11 -10 0 -5 7 -6 17 -3 11 4 14 3 9 -5 -4 -7 -2 -12 3 -12 6 0 11 5 11 11
0 8 5 8 15 -1 8 -7 12 -16 9 -21 -3 -5 0 -9 5 -9 6 0 11 6 11 13 0 9 2 9 8 0
4 -6 19 -16 33 -21 14 -6 26 -17 26 -26 0 -8 -4 -13 -9 -10 -5 3 -6 9 -3 14 3
5 -3 9 -12 9 -10 0 -27 1 -38 3 -13 2 -19 -2 -17 -12 3 -11 -2 -10 -17 4 -11
10 -18 23 -15 28 3 5 0 8 -7 7 -19 -3 -86 28 -91 42 -2 7 -8 6 -16 -3 -10 -12
-7 -21 15 -44 15 -16 24 -21 21 -12 -5 12 -2 16 12 15 10 -1 18 -4 18 -7 -2
-19 4 -30 14 -27 7 1 12 -8 13 -20 0 -12 7 -28 15 -35 12 -11 12 -11 1 5 -8
10 -9 17 -3 17 6 0 14 -5 17 -10 4 -6 11 -8 16 -5 5 4 9 2 9 -4 0 -5 8 -12 18
-16 9 -3 31 -17 47 -32 l30 -26 -38 22 -38 21 16 -23 c8 -12 19 -22 23 -22 19
0 54 -34 47 -46 -6 -8 -4 -10 4 -4 7 4 22 -1 34 -12 31 -28 57 -35 76 -21 13
10 14 10 4 -2 -21 -23 -15 -31 17 -25 17 3 30 1 30 -4 0 -5 -10 -12 -22 -14
-13 -2 -10 -3 7 -2 16 1 37 -1 45 -6 8 -4 23 -10 34 -13 11 -4 16 -12 12 -21
-3 -8 -2 -15 3 -15 5 0 17 -12 26 -27 l18 -28 -30 28 c-16 15 -33 24 -38 20
-4 -5 -5 -3 -1 4 9 16 -50 48 -60 32 -3 -6 -1 -14 5 -18 6 -4 14 -18 16 -31
l5 -24 -24 24 c-14 16 -21 33 -18 45 5 18 4 18 -12 6 -13 -11 -20 -11 -28 -3
-7 7 -28 13 -47 13 l-36 1 30 8 c34 9 33 10 -15 15 -19 2 -55 8 -79 15 -24 6
-48 9 -53 8 -4 -2 28 -27 72 -57 44 -29 80 -55 80 -58 0 -6 -21 6 -43 25 -9 8
-20 12 -24 9 -6 -6 -54 29 -99 73 -22 21 -40 27 -29 11 3 -6 -15 1 -40 15 -30
17 -52 23 -66 19 -13 -4 -19 -3 -16 2 4 6 -10 15 -31 21 -27 9 -38 9 -41 0 -2
-6 -10 3 -17 21 -16 39 -36 41 -29 4 3 -16 -2 -9 -11 14 -10 29 -20 40 -30 36
-8 -3 -14 0 -14 6 0 6 6 10 13 9 12 -3 12 19 1 70 -3 14 0 22 9 22 9 0 12 -9
9 -29 -2 -16 1 -32 7 -35 6 -4 11 -1 11 6 0 7 8 0 19 -17 12 -21 15 -32 7 -37
-6 -5 -1 -8 12 -8 13 0 20 -4 17 -10 -3 -5 0 -7 9 -4 8 3 23 -3 33 -13 10 -10
24 -18 31 -19 29 -2 33 -5 27 -14 -3 -5 -1 -10 4 -10 18 0 12 15 -14 40 -14
13 -23 25 -21 28 6 6 16 3 17 -5 1 -12 21 -33 30 -33 5 0 8 6 7 13 -2 7 5 11
17 9 11 -1 43 -5 70 -8 l50 -5 -25 18 c-14 9 -40 31 -58 48 -19 16 -38 30 -42
30 -5 0 -15 7 -22 15 -11 12 -10 12 7 1 11 -8 2 2 -20 22 -22 19 -43 33 -47
30 -4 -2 -5 3 -2 11 4 11 0 16 -10 16 -9 0 -16 5 -16 11 0 5 3 8 8 5 4 -2 16
2 27 10 10 8 14 14 9 14 -6 0 -14 -3 -18 -7 -21 -22 -36 -12 -88 60 -7 10 -23
19 -35 20 -12 0 -20 4 -18 7 1 3 -9 14 -23 24 l-25 19 7 -26 c3 -15 4 -27 1
-27 -2 0 -10 20 -16 45 -6 24 -16 43 -21 42 -6 -1 -13 5 -15 13 -4 13 -3 13 6
0 9 -13 11 -12 12 5 1 17 2 17 6 2 2 -9 9 -15 14 -12 5 3 6 -1 3 -10 -4 -10 1
-22 12 -30 27 -20 36 -18 22 4 -7 11 -16 17 -22 14 -5 -4 -7 0 -4 8 15 37 19
53 11 41 -7 -9 -14 -2 -26 23 -22 45 -21 47 6 43 15 -2 21 2 19 12 -1 8 7 3
19 -13 11 -15 26 -24 31 -21z m-115 -38 c-3 -7 -5 -2 -5 12 0 14 2 19 5 13 2
-7 2 -19 0 -25z m-20 0 c-3 -8 -6 -5 -6 6 -1 11 2 17 5 13 3 -3 4 -12 1 -19z
m-2502 -48 c3 -6 -1 -7 -9 -4 -18 7 -21 14 -7 14 6 0 13 -4 16 -10z m2529 -45
c5 -22 4 -26 -4 -15 -5 8 -10 24 -10 34 0 26 6 18 14 -19z m196 10 c0 -2 -6
-5 -13 -8 -8 -3 -14 1 -14 8 0 7 6 11 14 8 7 -3 13 -6 13 -8z m-2450 -38 c-27
-15 -36 -14 -25 2 3 6 16 11 28 11 21 0 21 -1 -3 -13z m415 3 c3 -5 1 -10 -4
-10 -6 0 -11 5 -11 10 0 6 2 10 4 10 3 0 8 -4 11 -10z m1911 -27 c0 -10 4 -28
8 -40 5 -16 3 -23 -5 -23 -7 0 -10 3 -6 6 3 4 0 19 -8 34 -11 22 -12 30 -2 33
6 3 12 6 12 6 1 1 1 -7 1 -16z m-79 -25 c-3 -7 -5 -2 -5 12 0 14 2 19 5 13 2
-7 2 -19 0 -25z m293 11 l25 -20 -32 16 c-18 8 -33 18 -33 20 0 10 16 4 40
-16z m444 -17 c3 -5 -1 -9 -9 -9 -8 0 -12 4 -9 9 3 4 7 8 9 8 2 0 6 -4 9 -8z
m-694 -18 c0 -8 -4 -12 -10 -9 -5 3 -10 10 -10 16 0 5 5 9 10 9 6 0 10 -7 10
-16z m-4 -82 c-6 -5 -36 65 -36 82 0 6 9 -9 20 -33 11 -24 18 -46 16 -49z
m729 79 c3 -5 2 -12 -3 -15 -5 -3 -9 1 -9 9 0 17 3 19 12 6z m-3458 -58 c-3
-10 -5 -2 -5 17 0 19 2 27 5 18 2 -10 2 -26 0 -35z m3489 21 c2 -12 -1 -13
-12 -3 -7 6 -11 16 -8 21 7 11 17 3 20 -18z m-515 -11 c13 -16 12 -17 -3 -4
-10 7 -18 15 -18 17 0 8 8 3 21 -13z m619 -49 c0 -2 -8 0 -17 3 -16 6 -17 5
-3 -13 14 -18 14 -18 -2 -5 -10 7 -16 17 -13 21 6 10 -20 31 -35 28 -7 -2 -14
5 -15 14 -3 14 6 11 41 -14 24 -17 44 -33 44 -34z m-3234 30 c-4 -9 -9 -15
-11 -12 -3 3 -3 13 1 22 4 9 9 15 11 12 3 -3 3 -13 -1 -22z m77 19 c-13 -2
-23 -11 -23 -20 0 -18 -22 -12 -28 8 -3 11 -2 11 6 1 7 -11 10 -11 15 2 4 9
17 15 29 15 l23 -2 -22 -4z m991 -19 c3 -8 2 -12 -4 -9 -6 3 -10 10 -10 16 0
14 7 11 14 -7z m1823 -10 c-3 -3 -12 -4 -19 -1 -8 3 -5 6 6 6 11 1 17 -2 13
-5z m-494 -64 c4 -17 3 -17 -24 -1 -32 18 -40 37 -11 27 16 -6 16 -5 0 8 -10
7 -18 17 -18 21 0 14 48 -36 53 -55z m-2206 34 c-3 -3 -12 -4 -19 -1 -8 3 -5
6 6 6 11 1 17 -2 13 -5z m2673 -36 c0 -6 -6 -5 -15 2 -8 7 -15 14 -15 16 0 2
7 1 15 -2 8 -4 15 -11 15 -16z m183 -5 c-7 -2 -19 -2 -25 0 -7 3 -2 5 12 5 14
0 19 -2 13 -5z m-369 -34 c-3 -5 -10 -7 -15 -3 -5 3 -7 10 -3 15 3 5 10 7 15
3 5 -3 7 -10 3 -15z m-231 -49 c3 -11 1 -18 -4 -14 -5 3 -9 12 -9 20 0 20 7
17 13 -6z m437 -8 c0 -5 17 -21 38 -37 20 -15 28 -24 17 -20 -11 4 -26 8 -32
8 -7 0 -11 3 -8 5 3 3 -5 16 -17 29 -12 13 -16 23 -10 23 7 0 12 -4 12 -8z
m-2200 -32 c0 -5 -4 -10 -10 -10 -5 0 -10 5 -10 10 0 6 5 10 10 10 6 0 10 -4
10 -10z m530 -39 c-1 -10 -6 -7 -15 9 -19 33 -18 50 0 26 8 -11 15 -27 15 -35z
m-563 9 c-2 -27 -9 -34 -29 -31 -5 0 -8 -3 -8 -9 0 -16 32 -11 45 7 10 13 16
15 26 6 25 -19 82 -21 109 -4 23 14 22 13 -5 -17 -16 -17 -38 -32 -48 -32 -10
0 -15 -4 -12 -10 3 -5 -2 -10 -12 -10 -11 0 -24 -5 -31 -12 -7 -7 -12 -8 -12
-2 0 5 -4 4 -8 -2 -4 -7 -57 -14 -137 -17 -201 -8 -229 -12 -255 -30 -22 -15
-23 -17 -5 -17 11 0 34 -9 50 -20 19 -13 24 -20 14 -20 -9 0 -22 7 -29 15 -7
9 -15 13 -18 11 -2 -3 -27 6 -55 21 -44 22 -60 25 -114 20 -35 -2 -70 -10 -78
-17 -8 -6 -18 -9 -24 -6 -5 3 -59 -7 -120 -23 -61 -16 -109 -25 -106 -21 3 5
-1 11 -7 13 -9 4 -7 6 3 6 9 1 49 16 90 35 73 34 127 52 222 76 30 8 47 18 47
28 0 10 3 12 13 4 14 -12 185 25 209 46 8 6 17 9 21 6 3 -3 41 0 84 7 43 6 95
12 115 13 20 1 40 4 44 9 15 15 23 6 21 -23z m2189 -149 c6 -5 30 -19 53 -30
42 -22 56 -36 24 -24 -29 10 -200 122 -215 140 -11 14 104 -58 138 -86z m74
65 c0 -2 -7 -7 -16 -10 -8 -3 -12 -2 -9 4 6 10 25 14 25 6z m293 -31 c-3 -9
-8 -14 -10 -11 -3 3 -2 9 2 15 9 16 15 13 8 -4z m-30 -2 c-7 -2 -19 -2 -25 0
-7 3 -2 5 12 5 14 0 19 -2 13 -5z m107 -46 c0 -5 -4 -5 -10 -2 -5 3 -10 14
-10 23 0 15 2 15 10 2 5 -8 10 -19 10 -23z m-349 6 c13 -16 12 -17 -3 -4 -10
7 -18 15 -18 17 0 8 8 3 21 -13z m140 -10 c13 -15 12 -15 -8 -4 -24 12 -29 21
-14 21 5 0 15 -7 22 -17z m-2385 -19 c-3 -7 -1 -16 3 -18 5 -3 9 -25 9 -49 1
-24 9 -65 17 -92 9 -26 14 -56 12 -67 -4 -16 -3 -17 9 -7 15 12 20 -1 5 -16
-5 -6 -12 -26 -16 -45 -4 -26 -3 -31 4 -20 9 12 11 11 11 -7 0 -13 5 -23 10
-23 6 0 10 -9 10 -21 0 -18 -2 -19 -15 -5 -8 8 -15 19 -15 24 0 6 -6 12 -14
15 -8 3 -17 21 -21 39 -4 18 -14 43 -22 55 -9 13 -12 23 -9 23 4 0 -2 9 -13
21 -11 12 -17 27 -14 35 2 7 0 36 -6 65 -8 38 -8 55 0 65 17 21 27 17 32 -13
2 -17 5 -9 6 20 0 31 5 46 12 42 6 -4 8 -13 5 -21z m-526 2 c0 -9 -7 -12 -20
-9 -11 3 -17 9 -14 14 8 14 34 10 34 -5z m750 10 c0 -2 -7 -6 -15 -10 -8 -3
-15 -1 -15 4 0 6 7 10 15 10 8 0 15 -2 15 -4z m2302 -28 c-8 -8 -9 -4 -5 13 4
13 8 18 11 10 2 -7 -1 -18 -6 -23z m52 -20 c-3 -18 -7 -46 -10 -62 -6 -50 -12
-40 -11 18 1 31 0 58 -3 59 -3 2 1 2 8 1 6 -2 12 1 12 6 0 6 2 10 5 10 3 0 3
-15 -1 -32z m-3224 0 c-14 -11 -24 -28 -22 -37 2 -14 1 -14 -8 -1 -8 11 -13
12 -16 3 -3 -7 -22 -34 -43 -60 -40 -51 -90 -140 -72 -128 16 9 14 -41 -3 -68
-19 -31 -35 -112 -35 -177 1 -71 46 -156 123 -228 39 -37 51 -54 41 -58 -8 -3
-30 6 -49 21 -37 28 -54 20 -36 -17 10 -21 10 -21 -3 -6 -8 10 -17 15 -20 12
-3 -3 -3 4 0 17 4 16 3 20 -6 15 -7 -5 -21 0 -32 10 -12 11 -19 13 -19 5 0 -7
-5 -9 -10 -6 -6 4 -8 11 -5 16 3 5 0 6 -8 3 -10 -3 -17 4 -21 21 -4 14 -11 23
-16 20 -6 -4 -7 5 -4 22 3 17 -1 36 -10 48 -15 19 -15 18 -16 -22 0 -30 7 -50
25 -71 14 -17 25 -35 25 -41 0 -6 7 -11 15 -11 23 0 64 -51 65 -78 0 -19 4
-22 22 -17 17 6 20 4 14 -10 -5 -15 -1 -17 23 -13 19 3 32 0 35 -9 3 -7 12
-13 21 -13 8 0 15 -5 15 -11 0 -5 -4 -7 -10 -4 -5 3 -10 1 -10 -6 0 -8 -5 -7
-12 4 -7 9 -25 19 -40 23 -23 5 -28 3 -28 -14 0 -12 11 -24 30 -32 17 -7 30
-17 30 -23 0 -6 3 -7 6 -4 4 4 19 -4 34 -16 15 -12 37 -29 50 -37 12 -8 28
-21 36 -28 7 -7 17 -11 21 -10 4 2 10 -2 11 -7 7 -19 25 -36 36 -32 10 4 46
-39 46 -56 0 -4 -13 -1 -29 7 -18 10 -31 12 -38 5 -6 -6 -15 -4 -24 7 -13 16
-12 17 6 10 14 -5 17 -4 9 4 -7 7 -19 8 -37 1 -23 -9 -25 -14 -18 -35 8 -21 7
-23 -10 -19 -22 6 -25 19 -6 27 6 3 3 4 -8 3 -12 -1 -19 3 -18 11 2 6 -5 12
-15 13 -11 0 -12 2 -4 6 7 3 19 -1 27 -7 12 -10 15 -9 15 3 0 9 -5 19 -11 23
-8 4 -7 9 2 15 10 6 3 9 -20 9 -25 0 -32 -3 -27 -15 12 -32 -11 -13 -52 43
-23 31 -68 85 -100 119 -78 81 -139 202 -148 289 -7 64 -16 79 -29 47 -6 -17
-7 -17 -17 1 -8 14 -7 20 3 27 9 5 4 10 -17 14 -16 4 -40 11 -54 16 -21 8 -22
9 -3 5 13 -2 26 0 29 5 3 5 10 9 15 9 6 0 8 -4 5 -9 -3 -5 7 -11 22 -14 29 -6
42 6 42 38 0 11 7 33 15 49 17 32 19 39 7 32 -4 -2 -8 8 -7 22 0 18 -5 26 -14
24 -12 -3 -12 -1 -1 13 7 9 15 28 16 43 2 15 6 38 9 51 5 18 3 22 -9 18 -9 -4
-16 -3 -16 2 0 5 11 12 25 15 14 4 25 12 25 19 0 20 68 90 80 82 16 -10 12
-22 -12 -28 -12 -4 -19 -10 -15 -14 18 -17 40 -9 76 29 21 23 48 42 60 43 12
1 28 12 35 26 7 13 18 23 24 22 7 -2 12 2 12 8 0 5 5 7 10 4 6 -3 10 -1 10 4
0 6 8 11 18 11 14 -1 13 -4 -8 -22z m-140 -8 c-20 -13 -33 -13 -25 0 3 6 14
10 23 10 15 0 15 -2 2 -10z m480 -5 c7 -8 9 -15 6 -15 -4 0 -14 7 -22 15 -9 8
-11 15 -6 15 5 0 15 -7 22 -15z m2931 -26 c16 -23 19 -33 10 -42 -9 -9 -11 -8
-6 6 4 10 2 17 -4 17 -6 0 -11 8 -12 18 0 9 -5 4 -9 -12 -5 -16 -6 -34 -3 -40
4 -7 3 -8 -4 -1 -9 9 -7 85 2 85 2 0 13 -14 26 -31z m-3133 -10 c2 -17 -8 -34
-33 -59 -19 -18 -35 -38 -35 -42 0 -4 -19 -28 -42 -52 -24 -24 -51 -54 -60
-67 -9 -13 -17 -19 -18 -12 0 6 6 18 13 25 6 7 26 39 42 71 18 34 35 55 43 52
6 -2 12 2 12 10 0 28 -24 15 -76 -41 -29 -31 -58 -54 -64 -52 -6 2 14 29 45
61 31 31 53 61 50 67 -3 5 17 19 45 32 27 13 50 27 50 31 0 20 25 -2 28 -24z
m3019 9 c-3 -8 -6 -5 -6 6 -1 11 2 17 5 13 3 -3 4 -12 1 -19z m-3337 3 c0 -5
-7 -14 -15 -21 -16 -14 -18 -10 -9 14 6 17 24 22 24 7z m1464 -41 c30 -45 34
-63 9 -34 -19 21 -43 60 -43 69 0 12 9 3 34 -35z m-347 -2 c-3 -7 -5 -2 -5 12
0 14 2 19 5 13 2 -7 2 -19 0 -25z m1765 -40 c46 -58 28 -45 -27 20 -27 31 -39
48 -26 37 13 -11 37 -37 53 -57z m-1632 53 c0 -14 -29 -77 -30 -65 0 26 13 74
21 74 5 0 9 -4 9 -9z m-1467 -31 c-4 -15 -9 -18 -18 -10 -6 5 -15 7 -18 3 -4
-3 -7 -3 -7 1 0 3 10 11 23 16 12 5 23 9 24 9 0 1 -1 -8 -4 -19z m3245 13
c-10 -2 -28 -2 -40 0 -13 2 -5 4 17 4 22 1 32 -1 23 -4z m-1893 -60 c-2 -32
-6 -78 -8 -103 -2 -25 -2 -30 0 -12 6 43 22 41 18 -3 -2 -20 0 -33 6 -29 13 8
59 100 59 118 0 8 4 17 9 20 16 10 9 -49 -10 -80 -10 -17 -19 -38 -19 -46 0
-7 -9 -31 -20 -53 -11 -22 -20 -46 -19 -55 0 -11 3 -9 8 4 11 29 21 -2 10 -31
-7 -20 -26 -28 -52 -24 -4 1 -4 -7 1 -16 6 -10 13 -37 17 -61 5 -34 10 -41 20
-32 11 9 11 17 -1 45 -18 43 -18 55 0 55 15 0 50 -65 42 -79 -3 -4 3 -17 14
-28 10 -11 20 -36 22 -54 l3 -34 16 28 c14 25 17 27 28 13 9 -11 12 -37 9 -81
-2 -36 -1 -65 2 -65 4 0 7 -12 7 -27 0 -16 15 -52 33 -80 18 -29 33 -53 34
-53 1 0 2 11 2 25 1 16 -2 23 -10 18 -6 -3 -3 3 7 14 10 11 17 36 17 59 0 21
4 56 9 76 6 23 5 36 0 32 -6 -3 -7 6 -3 23 9 36 14 42 14 15 0 -11 4 -23 9
-26 4 -3 8 20 8 52 0 31 -2 49 -4 40 -3 -10 -9 -18 -14 -18 -16 0 -10 19 11
37 15 13 20 30 20 65 0 26 5 50 10 53 6 3 10 0 10 -7 0 -20 24 -68 33 -68 5 0
6 -4 3 -8 -3 -4 -1 -25 4 -45 5 -23 4 -39 -2 -43 -6 -4 -7 -20 -4 -36 3 -16 2
-27 -3 -24 -5 3 -11 -4 -15 -17 -9 -34 -7 -59 4 -52 6 3 10 17 10 30 0 13 5
27 11 31 6 3 8 17 4 31 -4 16 -2 22 5 18 6 -3 10 3 10 17 0 15 3 19 8 11 5 -7
7 -46 5 -85 -2 -40 -5 -100 -7 -133 -2 -33 -8 -69 -13 -80 -10 -19 -29 -144
-26 -172 0 -7 -7 -13 -16 -13 -14 -1 -14 -2 2 -14 18 -14 24 -32 7 -21 -6 3
-7 -1 -4 -9 3 -9 11 -16 16 -16 6 0 8 -7 5 -15 -4 -8 -2 -17 3 -20 6 -4 10
-15 10 -26 0 -10 4 -19 9 -19 5 0 6 20 3 45 -2 24 3 98 13 164 9 66 14 129 10
140 -3 11 -1 22 5 26 14 9 13 68 -2 84 -8 9 -8 11 -2 8 7 -4 14 0 18 8 3 8 2
15 -2 15 -5 0 -6 16 -4 35 2 19 7 35 11 35 13 0 53 -103 47 -123 -3 -11 2 -26
9 -34 12 -11 14 -45 11 -174 -2 -87 -1 -161 2 -163 4 -2 8 -38 10 -79 2 -57
-1 -79 -13 -90 -21 -21 -19 -30 5 -22 15 5 20 2 20 -12 0 -15 -2 -16 -11 -3
-8 11 -9 8 -4 -14 6 -26 5 -28 -10 -16 -9 7 -23 27 -31 43 -9 16 -18 26 -21
23 -3 -3 0 -12 7 -20 6 -9 10 -21 8 -28 -4 -11 -54 68 -133 207 -16 28 -33 53
-39 57 -6 4 -7 8 -3 8 4 0 3 6 -3 13 -27 32 -117 165 -128 190 -6 15 -17 25
-23 22 -14 -9 -44 20 -60 57 -11 28 -11 33 10 49 21 17 21 19 5 19 -18 1 -18
1 0 15 20 15 12 20 -21 16 -17 -2 -16 9 3 30 13 15 14 21 3 41 -7 13 -12 30
-11 38 2 10 -1 9 -9 -3 -8 -14 -8 -22 0 -30 13 -13 15 -37 3 -37 -10 0 -34 54
-55 125 -8 27 -19 51 -26 53 -16 5 -14 -55 4 -86 16 -29 65 -152 65 -161 -1
-11 -40 41 -40 53 0 7 -11 27 -24 44 -21 29 -24 30 -29 13 -2 -11 -2 -41 0
-68 4 -33 2 -45 -5 -38 -11 11 -21 135 -11 135 4 0 3 18 -2 41 -5 22 -6 45 -2
52 3 6 5 33 4 59 -1 29 2 48 8 48 6 0 11 19 11 43 -1 39 -2 41 -15 23 -8 -11
-15 -18 -16 -15 0 2 -2 14 -5 27 -3 15 1 22 11 22 17 0 20 16 5 25 -6 4 -10
28 -9 53 1 26 0 52 -1 57 -6 25 2 45 21 55 19 11 20 10 9 -10 -16 -31 -16
-138 0 -153 10 -9 11 -9 6 1 -4 6 -3 12 2 12 5 0 14 33 21 73 18 105 21 117
26 117 2 0 2 -26 0 -57z m325 17 c0 -5 -5 -10 -11 -10 -5 0 -7 5 -4 10 3 6 8
10 11 10 2 0 4 -4 4 -10z m55 -39 c-6 -5 -25 10 -25 20 0 5 6 4 14 -3 8 -7 12
-15 11 -17z m1877 -10 c-4 -10 -7 -11 -10 -3 -2 7 -8 10 -13 6 -5 -3 -9 -1 -9
5 0 5 9 9 19 8 12 -1 17 -6 13 -16z m-16 -80 c-11 -73 -30 -151 -37 -151 -13
0 -7 -114 8 -143 8 -16 30 -46 50 -68 28 -31 42 -39 62 -36 14 2 20 2 13 0 -7
-3 -10 -9 -7 -14 8 -12 1 -11 -30 3 -14 6 -25 15 -25 19 0 5 -10 13 -21 20
-17 9 -24 8 -31 -2 -6 -10 -7 -6 -3 11 4 18 0 32 -15 48 -17 18 -21 33 -18 68
2 24 1 44 -3 44 -3 0 -4 23 -1 51 2 35 0 49 -7 45 -15 -10 -14 0 3 16 16 17
27 96 15 104 -5 3 -9 11 -9 17 0 7 4 6 10 -3 8 -12 11 -11 16 8 11 38 36 7 30
-37z m-3296 20 c0 -6 -4 -13 -10 -16 -5 -3 -10 1 -10 9 0 9 5 16 10 16 6 0 10
-4 10 -9z m3238 -26 c-3 -3 -9 2 -12 12 -6 14 -5 15 5 6 7 -7 10 -15 7 -18z
m-2663 -40 c25 -21 26 -23 7 -18 -12 3 -22 9 -22 14 0 5 -7 9 -15 9 -8 0 -15
5 -15 10 0 16 12 11 45 -15z m-538 -27 c-8 -24 -12 -28 -15 -15 -2 10 2 24 8
32 19 22 20 18 7 -17z m888 2 c3 -5 1 -10 -4 -10 -6 0 -11 5 -11 10 0 6 2 10
4 10 3 0 8 -4 11 -10z m605 -21 c0 -6 -4 -7 -10 -4 -5 3 -10 11 -10 16 0 6 5
7 10 4 6 -3 10 -11 10 -16z m-920 -37 c-5 -2 -7 -8 -4 -13 3 -6 12 -5 22 3 13
11 14 11 10 -2 -2 -8 -18 -15 -36 -16 -40 -2 -97 -37 -144 -88 -51 -56 -65
-83 -50 -98 8 -8 14 -5 21 14 5 14 32 47 59 75 l50 51 4 -33 c3 -26 -3 -41
-27 -68 -44 -51 -58 -70 -78 -107 -14 -26 -15 -35 -5 -41 10 -7 10 -11 0 -21
-6 -6 -12 -35 -13 -62 0 -29 -3 -44 -7 -34 -14 35 -29 1 -36 -79 -5 -67 -2
-96 15 -160 23 -86 55 -147 71 -137 6 4 8 2 4 -4 -3 -6 -2 -21 3 -34 17 -43
112 -163 147 -184 44 -27 47 -31 40 -43 -4 -6 -16 -5 -32 4 -15 7 -32 11 -39
8 -7 -2 -16 4 -19 15 -4 11 -21 35 -39 54 -42 44 -78 87 -142 173 -29 39 -69
86 -89 104 -20 19 -36 40 -36 45 0 6 -7 23 -14 39 -8 15 -13 27 -11 27 12 0
65 -61 65 -75 0 -21 20 -19 21 3 1 16 2 16 6 -1 7 -27 21 -11 16 18 -3 13 -9
23 -13 20 -8 -5 -28 14 -29 28 -2 51 -15 126 -21 122 -10 -6 -7 46 3 63 5 6 6
15 3 20 -2 4 2 16 10 27 14 18 14 17 9 -20 -9 -59 -7 -97 6 -109 9 -8 10 -6 5
8 -4 10 0 43 9 72 8 30 13 66 9 81 -4 21 -3 24 5 13 8 -12 12 -10 19 10 5 14
7 31 5 38 -3 6 0 12 6 12 6 0 11 5 11 10 0 22 -30 9 -36 -16 -4 -15 -12 -23
-20 -20 -7 3 -16 -4 -19 -15 -4 -10 -13 -19 -21 -19 -19 0 -18 13 7 44 11 14
18 30 14 35 -3 6 0 13 7 18 7 4 26 27 41 51 15 24 47 61 69 83 34 33 39 42 27
51 -12 8 -11 9 2 5 15 -5 93 46 136 88 16 16 17 16 25 -6 6 -15 5 -25 -2 -27z
m-610 -8 c-18 -21 -24 -10 -9 18 8 14 14 18 17 10 2 -7 -2 -19 -8 -28z m274
27 c3 -4 -5 -18 -18 -30 -18 -17 -26 -19 -31 -10 -5 7 -4 10 2 6 5 -4 16 5 23
18 15 28 16 29 24 16z m671 -59 c-8 -8 -12 0 -19 38 l-7 35 16 -34 c8 -19 13
-36 10 -39z m555 47 c0 -6 -4 -7 -10 -4 -5 3 -10 11 -10 16 0 6 5 7 10 4 6 -3
10 -11 10 -16z m1937 -21 c-3 -7 -5 -2 -5 12 0 14 2 19 5 13 2 -7 2 -19 0 -25z
m-2102 -3 c0 -10 -6 -20 -12 -22 -8 -3 -13 5 -13 22 0 17 5 25 13 23 6 -3 12
-13 12 -23z m-734 -38 l-23 -11 33 -13 c21 -8 24 -11 10 -9 -14 3 -31 0 -38
-6 -7 -6 -13 -7 -13 -2 0 5 -5 2 -10 -6 -8 -12 -10 -10 -10 9 0 27 26 51 55
50 18 0 18 -2 -4 -12z m2609 -64 c-11 -17 -11 -17 -6 0 3 10 7 31 7 45 l2 27
4 -27 c2 -15 -1 -35 -7 -45z m-3240 42 c-14 -17 -30 -20 -30 -4 0 5 5 7 10 4
6 -3 10 -1 10 4 0 6 5 11 11 11 8 0 8 -5 -1 -15z m991 -27 c6 -11 4 -18 -6
-22 -12 -4 -15 3 -14 32 0 20 3 30 6 22 3 -8 10 -22 14 -32z m296 0 c-3 -8 -6
-5 -6 6 -1 11 2 17 5 13 3 -3 4 -12 1 -19z m2030 0 c-3 -8 -6 -5 -6 6 -1 11 2
17 5 13 3 -3 4 -12 1 -19z m-3117 -65 c0 -12 -5 -25 -11 -29 -8 -4 -9 3 -4 26
4 20 4 30 -3 26 -13 -8 -7 -196 8 -266 14 -62 33 -105 61 -136 23 -25 16 -62
-8 -43 -56 47 -121 287 -91 342 6 12 11 37 9 55 -2 41 17 81 30 61 5 -8 9 -24
9 -36z m1165 27 c-3 -5 -12 -10 -18 -10 -7 0 -6 4 3 10 19 12 23 12 15 0z
m2285 -93 c0 -2 -15 -16 -32 -33 l-33 -29 29 33 c28 30 36 37 36 29z m-300
-49 c57 -46 85 -63 108 -66 15 -2 21 1 17 7 -4 7 0 8 11 4 14 -5 13 -8 -6 -18
-22 -12 -20 -13 33 -41 31 -15 55 -29 53 -31 -7 -7 -56 9 -56 19 0 5 -4 7 -9
3 -5 -3 -15 1 -23 8 -7 8 -18 12 -24 10 -7 -2 -21 8 -33 23 -12 15 -21 24 -21
20 0 -4 -11 1 -25 10 -14 9 -25 22 -25 30 0 7 -10 20 -22 28 -12 9 -19 16 -14
16 4 0 21 -10 36 -22z m177 6 c-3 -3 -12 -4 -19 -1 -8 3 -5 6 6 6 11 1 17 -2
13 -5z m39 -46 c4 -6 3 -8 -4 -4 -6 3 -13 2 -17 -4 -3 -5 -11 -10 -18 -10 -6
0 -2 7 9 15 23 18 21 17 30 3z m-2281 -22 c0 -37 -15 -44 -15 -8 0 18 4 32 8
32 4 0 8 -11 7 -24z m-237 -78 c7 -24 16 -49 19 -57 4 -9 1 -11 -6 -6 -20 12
-50 105 -34 105 5 0 14 -19 21 -42z m92 33 c0 -6 -4 -13 -10 -16 -5 -3 -10 1
-10 9 0 9 5 16 10 16 6 0 10 -4 10 -9z m-1393 -63 c-3 -8 -6 -5 -6 6 -1 11 2
17 5 13 3 -3 4 -12 1 -19z m707 -40 c-4 -13 -2 -18 4 -14 5 3 12 -7 15 -22 3
-15 12 -54 21 -87 8 -33 17 -71 20 -85 3 -14 16 -41 28 -60 12 -19 23 -43 25
-53 4 -24 30 -65 64 -102 16 -16 28 -33 29 -37 0 -5 0 -13 0 -19 0 -5 5 -7 12
-3 7 4 8 3 4 -4 -16 -27 -77 36 -133 138 -31 56 -33 60 -33 83 0 8 -3 8 -9 -2
-5 -8 -7 -21 -4 -30 5 -12 3 -13 -6 -5 -7 6 -14 31 -16 55 -11 128 -15 167
-25 199 -13 45 -13 83 0 75 6 -4 8 -16 4 -27z m-705 -45 c1 -12 -3 -25 -9 -28
-6 -4 -10 12 -9 42 0 36 3 43 9 28 5 -11 9 -30 9 -42z m376 37 c3 -5 -1 -10
-10 -10 -9 0 -13 5 -10 10 3 6 8 10 10 10 2 0 7 -4 10 -10z m1633 -52 c6 -24
9 -59 8 -78 -2 -19 2 -38 8 -42 7 -4 11 -46 12 -104 1 -66 5 -98 13 -104 9 -5
10 -9 2 -14 -6 -4 -11 -22 -11 -39 l1 -32 14 25 c8 14 14 32 15 41 0 9 11 21
24 27 13 6 27 23 30 39 4 15 15 37 24 47 9 11 11 16 5 12 -16 -9 -16 -9 0 34
7 19 18 36 25 37 6 2 9 -4 6 -12 -5 -11 -2 -13 10 -9 13 5 16 0 16 -24 0 -17
-5 -43 -10 -59 -9 -26 -9 -27 5 -9 15 19 15 19 15 -1 0 -12 -5 -25 -10 -28 -6
-4 -8 -11 -4 -16 3 -6 -1 -25 -10 -44 -9 -19 -21 -78 -26 -132 -6 -54 -14
-126 -18 -160 -8 -59 -3 -78 14 -51 5 7 10 4 16 -11 7 -20 10 -22 25 -10 12
10 14 10 9 2 -4 -8 -2 -13 8 -13 8 0 18 -5 21 -11 5 -7 -7 -8 -39 -4 -31 5
-46 4 -46 -4 0 -6 7 -11 15 -11 8 0 15 -4 15 -10 0 -5 -4 -10 -10 -10 -5 0 -1
-9 10 -20 11 -11 20 -24 20 -28 0 -5 16 -14 35 -22 20 -8 34 -19 31 -24 -2 -6
-9 -10 -15 -9 -6 2 -11 -2 -11 -7 0 -6 11 -10 24 -10 14 0 28 -5 32 -12 5 -7
3 -8 -6 -3 -9 5 -11 4 -6 -3 4 -7 14 -12 22 -12 8 0 12 -4 9 -10 -3 -5 9 -19
27 -30 52 -32 7 -24 -61 10 -45 23 -64 28 -82 21 l-24 -8 23 -7 c12 -4 22 -11
22 -16 0 -7 -116 40 -168 68 -26 15 -86 128 -78 148 8 21 23 17 30 -8 4 -17 8
-20 17 -11 18 18 6 48 -18 47 -13 -1 -20 3 -17 7 3 5 10 7 15 4 15 -10 10 5
-7 22 -12 12 -20 13 -40 5 -19 -10 -24 -9 -24 3 0 24 -2 29 -18 41 -10 8 -12
13 -4 18 6 4 9 13 5 22 -4 11 -9 12 -18 4 -18 -15 -29 5 -27 47 2 18 -1 33 -5
33 -9 0 -11 223 -2 230 11 8 21 100 20 173 -1 49 1 67 10 62 15 -10 41 -74 34
-85 -3 -4 -2 -15 1 -24 6 -15 8 -15 20 1 12 16 14 10 12 -44 0 -35 -5 -63 -11
-63 -5 0 -7 -6 -4 -14 3 -7 -1 -46 -9 -87 -22 -118 -19 -146 19 -140 4 0 7 -5
7 -13 0 -8 7 -17 16 -20 13 -5 14 1 7 42 -4 26 -6 88 -3 137 7 132 6 334 -2
378 -9 50 7 38 20 -15z m-1999 -153 c0 -23 -2 -26 -9 -15 -5 8 -9 33 -9 55 1
35 2 37 9 15 4 -14 8 -38 9 -55z m529 -110 c52 -37 54 -52 5 -25 -50 26 -73
45 -73 59 0 13 7 10 68 -34z m3555 28 c-7 -2 -21 -2 -30 0 -10 3 -4 5 12 5 17
0 24 -2 18 -5z m-1703 -140 c0 -44 -5 -41 -14 10 -5 27 -4 37 3 32 6 -3 11
-22 11 -42z m-1505 -153 c3 -5 1 -10 -4 -10 -6 0 -11 5 -11 10 0 6 2 10 4 10
3 0 8 -4 11 -10z m3666 -10 c30 -8 39 -18 58 -62 20 -46 23 -64 18 -138 -3
-47 -14 -123 -25 -170 -10 -47 -24 -110 -30 -142 -12 -62 -76 -222 -101 -252
-9 -10 -15 -20 -14 -22 1 -2 -5 -21 -14 -41 -9 -21 -26 -65 -38 -98 -12 -36
-26 -59 -34 -57 -7 1 -10 -2 -6 -8 5 -8 -42 -35 -54 -30 -2 1 -7 -4 -11 -10
-4 -7 -20 -14 -35 -15 -22 -3 -26 0 -22 16 8 31 -8 22 -20 -12 -9 -22 -17 -30
-28 -26 -8 4 -15 2 -15 -3 0 -6 -4 -10 -10 -10 -12 0 -2 27 24 64 14 21 19 42
17 75 -2 25 1 43 5 38 4 -4 15 0 25 9 10 9 25 14 34 10 10 -4 19 2 25 17 l9
22 0 -23 c1 -32 -18 -65 -34 -58 -7 2 -16 -2 -19 -9 -4 -11 0 -12 18 -5 13 5
26 7 29 4 2 -3 10 24 18 61 14 70 33 89 27 27 -2 -30 0 -38 14 -39 9 -1 20 7
23 18 4 11 11 16 17 13 8 -5 9 59 6 212 -4 187 -3 222 11 243 18 29 27 76 12
66 -7 -3 -8 0 -5 9 3 9 1 16 -5 16 -6 0 -11 9 -11 19 0 23 28 54 41 46 5 -4 6
1 3 10 -5 11 -2 14 10 9 12 -5 15 1 13 30 -2 19 1 32 6 29 5 -3 6 4 2 16 -4
14 -1 23 9 27 11 4 14 13 9 32 -4 18 -3 23 7 17 9 -6 10 -3 1 13 -6 11 -11 29
-11 39 0 15 2 16 10 3 5 -8 10 -10 10 -4 0 5 -5 15 -12 22 -15 15 -4 15 43 2z
m-2126 -30 c3 -5 1 -10 -4 -10 -6 0 -11 5 -11 10 0 6 2 10 4 10 3 0 8 -4 11
-10z m22 -127 c-3 -10 -5 -2 -5 17 0 19 2 27 5 18 2 -10 2 -26 0 -35z m2430 0
c30 -27 47 -94 39 -157 -10 -92 -150 -502 -235 -691 -20 -44 -41 -86 -48 -93
-7 -7 -13 -17 -13 -22 0 -4 -9 -6 -20 -3 -19 5 -20 3 -9 -21 10 -21 10 -34 1
-60 -7 -18 -12 -41 -13 -52 0 -18 -1 -18 -9 1 -7 17 -9 17 -9 3 -1 -10 0 -20
2 -21 5 -9 -27 -37 -42 -37 -14 0 -14 2 -1 10 19 13 8 13 -25 0 -14 -5 -24 -6
-21 -1 3 4 -6 13 -19 19 -27 12 -35 38 -9 28 9 -3 12 -2 9 5 -4 6 -13 8 -21 5
-7 -3 -16 -1 -19 4 -4 6 2 11 12 11 17 1 17 2 1 6 -22 5 -24 33 -3 33 8 0 15
5 15 11 0 5 -4 7 -10 4 -14 -9 -12 7 6 43 17 35 24 38 43 20 11 -11 12 -10 7
0 -6 10 -1 11 21 6 15 -4 24 -3 20 2 -7 7 -28 14 -54 16 -6 1 -14 10 -16 20
-5 16 -3 17 9 7 11 -9 14 -8 14 2 0 11 2 11 10 -1 8 -13 10 -12 10 3 0 9 -6
17 -13 17 -11 0 -14 19 -13 80 1 72 3 79 19 74 16 -5 17 -3 5 15 -9 14 -14 17
-20 8 -5 -8 -8 -7 -8 4 0 9 9 26 20 39 11 13 20 26 20 30 0 3 9 16 20 28 12
12 17 22 12 22 -12 0 -8 31 8 60 8 14 29 55 47 93 18 37 37 67 44 67 6 0 9 9
6 20 -3 12 -1 18 5 14 6 -4 8 2 4 17 -3 13 -3 18 0 12 3 -7 12 -13 20 -13 10
0 13 11 12 39 -1 30 5 45 25 65 17 17 27 21 30 13 4 -8 6 -6 6 4 1 8 -4 20
-10 26 -6 6 -8 20 -4 32 5 17 10 19 25 11 24 -13 27 -13 27 5 0 8 -4 12 -9 9
-15 -9 -8 24 8 40 13 13 19 35 23 79 2 14 49 7 68 -10z m-2674 -8 c-3 -9 -8
-14 -10 -11 -3 3 -2 9 2 15 9 16 15 13 8 -4z m252 -25 c3 -5 1 -10 -4 -10 -6
0 -11 5 -11 10 0 6 2 10 4 10 3 0 8 -4 11 -10z m-1555 -39 c0 -5 -11 -16 -25
-25 -14 -9 -25 -21 -25 -26 0 -6 11 -3 25 6 16 10 34 14 54 9 17 -3 32 -2 36
4 11 20 45 13 45 -9 0 -16 7 -20 35 -20 36 0 85 -35 85 -61 0 -7 3 -10 6 -7 7
8 -13 47 -39 75 -11 13 -17 26 -13 30 10 11 38 -10 64 -47 20 -29 28 -33 69
-34 37 -1 48 -5 51 -18 3 -15 -4 -18 -35 -19 -21 -1 -29 -4 -17 -6 12 -2 36
-20 54 -39 19 -18 40 -34 48 -34 10 0 12 -7 8 -24 -4 -15 0 -28 10 -37 25 -21
45 -68 39 -92 -5 -17 -4 -19 4 -7 6 8 11 30 11 48 0 23 4 32 13 29 7 -2 12
-24 12 -59 0 -47 4 -59 33 -91 30 -35 42 -67 25 -67 -5 0 -17 13 -28 29 -21
32 -33 35 -17 4 6 -10 12 -34 16 -53 3 -19 10 -36 15 -38 18 -6 12 -30 -9 -37
-15 -5 -20 -15 -20 -43 0 -23 -8 -44 -22 -59 -21 -23 -21 -23 -1 -23 11 0 32
9 46 20 30 24 47 26 47 6 0 -16 -41 -52 -69 -61 -16 -5 -17 -10 -8 -44 11 -39
5 -71 -13 -71 -5 0 -10 12 -11 28 0 15 -4 36 -9 47 -8 19 -9 18 -9 -4 -1 -26
-57 -96 -78 -96 -7 0 -19 -9 -26 -20 -10 -13 -26 -19 -52 -18 -47 1 -40 -6 16
-15 49 -8 60 -32 19 -42 -17 -4 -21 -8 -12 -14 22 -13 13 -36 -34 -81 -45 -44
-64 -55 -64 -35 0 6 -4 10 -10 10 -5 0 -10 -12 -10 -27 0 -49 -22 -78 -57 -78
-17 -1 -40 -8 -51 -18 -23 -21 -31 -21 -53 -1 -16 14 -18 13 -31 -12 -11 -23
-20 -28 -52 -30 -25 0 -44 -7 -52 -19 -9 -12 -20 -16 -37 -11 -17 4 -27 1 -31
-9 -3 -9 -17 -20 -31 -25 -14 -5 -25 -14 -25 -19 0 -16 -64 -9 -77 8 -10 14
-12 12 -8 -9 7 -36 -2 -55 -29 -68 -21 -9 -25 -8 -29 9 -3 11 -2 33 3 49 7 25
4 32 -23 54 l-31 26 25 27 c34 39 41 43 66 36 19 -4 23 -1 23 20 0 28 15 44
25 27 11 -17 -3 -57 -28 -81 l-22 -21 22 11 c12 6 25 16 28 21 11 18 25 0 25
-31 0 -16 4 -29 10 -29 5 0 7 24 4 60 -8 91 19 153 56 130 8 -5 10 -22 6 -56
-4 -28 -2 -56 4 -64 7 -11 10 -5 10 26 0 45 5 55 26 47 9 -3 15 -23 16 -57 1
-50 2 -50 5 -8 7 75 83 100 83 27 0 -21 4 -34 10 -30 5 3 7 19 4 35 -4 19 0
37 12 54 32 43 52 32 65 -34 l7 -35 1 35 c2 41 8 53 38 69 34 18 42 14 45 -26
l4 -38 12 30 c20 51 28 60 53 63 26 3 82 41 62 42 -19 0 -15 37 5 45 13 6 9
10 -18 16 -21 4 -36 4 -38 -2 -9 -25 -56 -69 -73 -69 -25 0 -24 12 2 36 11 10
26 28 31 39 10 18 8 18 -14 -2 -17 -16 -37 -23 -65 -23 -24 0 -46 -6 -53 -15
-17 -20 -27 -19 -35 4 -5 16 -15 20 -55 19 -36 -1 -56 4 -71 18 -22 19 -22 19
-11 -2 6 -11 18 -26 26 -34 20 -16 21 -40 2 -40 -19 0 -76 55 -76 73 0 12 -7
12 -39 4 -29 -8 -47 -8 -66 1 -36 16 -23 32 28 33 39 1 40 1 14 9 -16 5 -43
20 -62 34 -19 14 -41 26 -50 26 -12 0 -15 6 -10 20 5 15 -3 29 -31 55 -32 30
-36 39 -30 67 4 26 3 29 -5 16 -5 -10 -12 -32 -14 -49 -5 -37 -10 -44 -25 -34
-12 7 -9 58 5 103 5 16 3 22 -7 22 -19 0 -68 52 -68 73 0 24 25 21 43 -5 14
-22 15 -20 10 27 -3 28 -11 56 -17 64 -8 11 -6 17 12 29 16 10 22 24 22 51 0
20 8 48 17 61 17 24 17 25 -2 10 -11 -8 -26 -23 -33 -32 -7 -10 -17 -18 -23
-18 -19 0 -8 31 25 68 33 37 34 39 24 84 -9 36 -8 51 2 63 20 25 30 17 30 -23
0 -21 6 -46 13 -56 12 -16 13 -14 14 19 1 25 9 46 27 64 14 15 26 37 26 50 0
20 4 22 26 17 21 -6 33 -1 55 20 19 18 39 27 60 27 24 0 27 2 14 10 -9 5 -32
6 -51 3 -21 -5 -34 -3 -34 4 0 17 52 32 89 25 30 -6 37 -3 63 29 19 23 38 36
54 36 13 0 24 -4 24 -9z m4085 -325 c16 -12 19 -28 19 -132 1 -104 -3 -130
-27 -209 -30 -93 -71 -170 -87 -160 -5 3 -11 -4 -15 -15 -4 -11 -19 -27 -35
-35 -35 -18 -54 -19 -44 -3 4 6 3 8 -4 4 -6 -3 -13 -2 -17 4 -10 17 -25 11
-18 -7 5 -12 2 -15 -10 -10 -9 3 -17 2 -17 -4 0 -6 -4 -8 -9 -5 -5 4 -7 -4 -3
-16 5 -21 4 -22 -14 -9 -10 7 -7 2 9 -12 31 -30 35 -42 10 -29 -20 11 -46 5
-38 -8 3 -5 -4 -8 -15 -7 -26 2 -26 14 1 22 19 6 19 8 5 24 -9 10 -16 26 -15
37 1 15 3 14 9 -6 5 -17 8 -19 9 -7 1 9 6 17 11 17 7 0 7 6 2 18 -12 22 -3 84
11 75 6 -3 7 -1 3 5 -4 7 5 29 19 49 14 21 25 44 25 51 0 7 5 10 11 6 8 -4 9
1 4 16 -6 18 -4 22 8 17 11 -4 13 0 9 15 -3 14 -1 19 6 14 8 -5 10 -2 6 9 -4
8 -1 21 5 29 6 7 8 22 4 31 -4 13 -3 16 5 11 8 -5 11 -1 10 11 -3 35 2 54 13
48 6 -4 9 -1 8 6 -4 21 20 86 37 99 11 10 14 9 14 -9 0 -12 -4 -20 -8 -17 -5
3 -9 -14 -11 -37 -2 -39 -1 -40 16 -25 12 11 18 29 17 53 -1 19 2 38 7 41 5 3
9 0 9 -7 0 -7 3 -9 6 -6 4 4 1 13 -5 21 -10 11 -8 19 6 35 20 25 32 26 58 7z
m-615 -541 c-13 -62 -35 -77 -24 -17 7 44 28 96 32 82 2 -5 -2 -34 -8 -65z
m74 29 c3 -7 -5 -9 -20 -6 -13 2 -24 7 -24 11 0 11 39 7 44 -5z m-2624 -105
c0 -20 -28 -39 -47 -32 -8 3 -13 -4 -13 -17 0 -11 -7 -35 -16 -51 -12 -25 -20
-30 -39 -25 -13 3 -26 2 -29 -3 -6 -10 -68 -7 -86 4 -5 3 -10 16 -11 28 -1 16
-3 14 -8 -9 -12 -47 -17 -51 -61 -51 -24 0 -48 -7 -59 -18 -13 -11 -27 -14
-42 -10 -13 4 -24 2 -29 -5 -10 -17 -80 -20 -87 -4 -2 7 0 22 7 33 9 17 8 21
-5 21 -19 0 -19 14 0 30 9 7 15 22 14 34 -4 46 1 56 26 56 22 0 25 -5 25 -32
0 -48 15 -67 29 -39 13 23 61 30 61 9 0 -7 6 -4 12 7 6 11 11 21 12 22 1 1 13
4 29 8 26 7 27 6 28 -36 l1 -44 8 35 c7 29 5 39 -12 57 -23 25 -21 56 5 61 12
2 20 -4 24 -16 3 -11 13 -22 24 -25 14 -4 19 -14 19 -39 l1 -33 14 34 c12 25
20 32 34 28 15 -3 21 1 23 16 3 24 36 36 42 15 2 -7 8 -26 12 -43 l7 -30 9 34
c7 26 13 32 29 28 15 -4 19 0 19 20 0 22 2 24 15 13 8 -7 15 -21 15 -31z
m2895 -29 c3 -5 1 -10 -4 -10 -6 0 -11 5 -11 10 0 6 2 10 4 10 3 0 8 -4 11
-10z m42 -16 c-3 -3 -12 -4 -19 -1 -8 3 -5 6 6 6 11 1 17 -2 13 -5z m-52 -25
c6 -17 9 -18 23 -7 10 8 13 8 9 1 -4 -6 -3 -13 2 -15 5 -1 -3 -12 -17 -23 -21
-15 -24 -15 -13 -2 14 18 10 22 -34 29 -11 2 -21 11 -23 21 -5 26 45 23 53 -4z
m-382 -71 c-3 -24 -10 -51 -15 -60 -14 -28 -29 -21 -22 8 5 19 4 25 -5 20 -6
-4 -11 -18 -11 -31 0 -24 -31 -51 -44 -38 -3 3 -6 1 -6 -5 0 -7 -7 -12 -15
-12 -9 0 -12 6 -9 15 4 8 3 15 0 15 -4 0 -11 -10 -16 -22 -7 -19 -9 -16 -9 21
-1 34 2 42 14 37 8 -3 15 -2 15 3 0 4 19 17 43 29 23 12 52 30 62 41 11 11 21
20 22 20 0 1 -1 -18 -4 -41z m367 28 c0 -2 -9 -6 -20 -9 -11 -3 -18 -1 -14 4
5 9 34 13 34 5z m-2962 -112 c0 -14 5 -31 11 -37 8 -8 11 -4 11 16 0 40 28 46
57 13 25 -29 30 -70 11 -82 -17 -11 -68 -13 -68 -3 0 5 -4 9 -10 9 -5 0 -10
-7 -10 -15 0 -8 -4 -15 -9 -15 -5 0 -11 -9 -14 -20 -6 -24 -37 -27 -37 -4 0
12 -6 15 -24 10 -14 -3 -28 -2 -31 4 -9 15 -25 12 -25 -4 0 -28 -60 -36 -61
-8 0 13 -2 12 -9 -5 -6 -15 -15 -21 -25 -17 -8 4 -15 1 -15 -7 0 -7 -3 -10 -6
-7 -3 4 -22 0 -42 -9 -32 -13 -37 -13 -47 0 -12 17 -42 6 -31 -11 3 -5 -1 -15
-10 -23 -13 -10 -16 -9 -21 12 l-7 24 -6 -25 c-5 -20 -13 -26 -40 -28 -19 -2
-41 -8 -48 -14 -14 -12 -14 -12 -30 17 -11 20 -11 20 -12 -2 0 -29 -16 -38
-29 -16 -6 10 -11 13 -11 6 0 -23 -32 -45 -56 -39 -14 4 -24 2 -24 -4 0 -5 -9
-10 -20 -10 -11 0 -20 -4 -20 -8 0 -9 -70 -42 -89 -42 -7 0 -26 -9 -41 -20
-25 -18 -30 -18 -43 -6 -18 18 -27 11 -27 -21 0 -40 -25 -25 -48 28 -24 59
-22 72 12 59 21 -8 24 -5 29 19 6 29 48 51 56 30 2 -6 13 -1 26 11 13 12 29
22 36 24 8 1 24 7 36 14 34 19 50 14 62 -18 13 -39 22 -39 11 -1 -10 36 8 56
44 49 15 -3 27 0 30 8 3 8 16 14 30 14 13 0 27 6 30 13 3 8 9 6 20 -7 12 -15
16 -16 16 -5 0 8 21 25 46 37 43 21 48 22 70 7 23 -15 24 -14 24 8 0 19 8 25
43 34 36 10 45 9 61 -5 18 -16 18 -16 12 4 -6 20 -2 23 51 32 56 10 59 10 80
-16 l23 -27 0 26 c0 31 23 54 45 45 19 -7 20 -36 0 -36 -17 0 -18 -2 -9 -24 3
-9 15 -16 25 -16 21 0 25 24 9 65 -12 31 -6 45 19 45 13 0 19 -8 19 -26z m516
-486 c18 -18 37 -40 42 -49 11 -20 107 -86 154 -106 19 -8 68 -19 108 -24 47
-5 87 -16 110 -31 20 -12 46 -22 57 -20 20 3 20 3 0 -9 -11 -7 -23 -16 -26
-21 -10 -15 -83 -48 -106 -48 -40 0 -34 -19 9 -28 45 -9 102 1 128 22 8 7 24
16 35 21 20 7 20 7 0 14 -16 7 -9 14 43 44 109 64 193 66 422 12 58 -14 112
-27 121 -29 19 -4 154 26 165 37 4 4 16 7 26 7 10 0 18 5 18 11 0 6 8 8 19 4
11 -3 23 0 27 6 5 8 2 10 -7 5 -8 -4 -5 0 5 8 11 9 28 16 39 16 10 0 16 4 13
9 -3 5 6 9 20 9 14 0 38 8 52 19 76 56 161 52 297 -14 56 -28 84 -61 179 -213
141 -227 176 -308 176 -406 0 -50 -4 -59 -31 -85 -17 -16 -47 -31 -67 -34
-196 -30 -323 -106 -420 -250 -39 -59 -120 -121 -252 -195 -116 -65 -164 -107
-210 -180 -19 -31 -51 -76 -71 -101 -19 -24 -48 -64 -64 -89 -52 -82 -267
-311 -349 -373 -56 -42 -209 -128 -220 -124 -6 3 -18 17 -26 31 -11 22 -12 31
-2 46 7 11 12 33 12 48 0 38 35 89 129 187 42 44 99 113 126 153 28 40 62 87
77 105 15 17 28 41 28 53 0 11 4 24 9 30 18 19 79 177 74 190 -9 23 -20 16
-70 -44 -134 -160 -468 -457 -633 -564 -111 -72 -108 -69 -144 -78 -17 -4 -38
-11 -47 -14 -12 -5 -24 5 -45 41 -30 52 -34 106 -9 152 16 30 128 141 200 198
73 57 307 298 359 370 26 36 69 78 104 102 33 22 62 47 66 56 11 29 -4 61 -35
72 -16 6 -29 18 -29 27 0 21 -3 20 -48 -7 -20 -13 -53 -29 -72 -37 -51 -19
-197 -98 -260 -140 -30 -20 -95 -59 -145 -87 -49 -28 -130 -75 -180 -105 -105
-65 -198 -101 -246 -96 -28 2 -38 10 -58 47 -23 41 -24 48 -13 99 6 30 20 64
29 75 33 37 227 188 283 219 73 42 215 137 267 179 23 19 87 63 142 98 56 35
101 69 101 76 0 17 -82 39 -123 33 -17 -3 -59 -2 -92 2 -37 4 -77 2 -105 -5
-25 -7 -70 -18 -100 -25 -30 -7 -80 -25 -110 -40 -87 -44 -188 -71 -283 -76
l-88 -5 -14 35 c-8 19 -15 44 -15 54 0 21 32 87 56 113 40 44 217 136 387 199
42 16 90 36 107 45 16 8 56 18 87 21 32 2 75 9 96 15 20 5 42 7 47 4 15 -9 22
15 9 31 -7 9 -42 31 -78 50 -192 100 -221 122 -250 194 -10 24 -1 60 15 60 8
0 14 7 14 15 0 24 19 18 54 -17z"/>
<path d="M4967 6413 c-11 -11 -8 -20 7 -20 8 0 12 6 9 14 -6 15 -7 15 -16 6z"/>
<path d="M5230 6406 c0 -2 7 -9 15 -16 9 -7 15 -8 15 -2 0 5 -7 12 -15 16 -8
3 -15 4 -15 2z"/>
<path d="M5153 6331 c-2 -20 22 -35 38 -25 5 3 9 0 9 -5 0 -6 9 -11 19 -11 11
0 22 -4 25 -9 4 -7 57 -22 69 -20 1 0 14 -4 29 -10 34 -13 47 3 16 21 -13 7
-27 11 -31 10 -5 -1 -6 2 -3 7 8 13 -33 41 -59 41 -20 -1 -20 -1 -1 -15 11 -8
15 -15 9 -15 -5 0 -18 9 -28 20 -10 11 -27 19 -39 18 -11 0 -28 2 -36 6 -11 4
-16 0 -17 -13z m158 -58 c12 -16 12 -17 -1 -7 -8 6 -22 14 -30 17 -13 5 -12 6
1 6 9 1 23 -7 30 -16z"/>
<path d="M5390 6240 c0 -5 5 -10 11 -10 5 0 7 5 4 10 -3 6 -8 10 -11 10 -2 0
-4 -4 -4 -10z"/>
<path d="M5575 6180 c3 -5 8 -10 11 -10 2 0 4 5 4 10 0 6 -5 10 -11 10 -5 0
-7 -4 -4 -10z"/>
<path d="M3050 6270 c-13 -8 -13 -10 2 -10 9 0 20 5 23 10 8 13 -5 13 -25 0z"/>
<path d="M3078 6213 c6 -2 18 -2 25 0 6 3 1 5 -13 5 -14 0 -19 -2 -12 -5z"/>
<path d="M2745 6120 c-19 -8 -19 -9 2 -9 12 -1 25 4 28 9 7 12 -2 12 -30 0z"/>
<path d="M3201 5871 c0 -3 4 -15 8 -26 7 -18 8 -17 13 6 3 17 0 26 -9 26 -7 0
-13 -3 -12 -6z"/>
<path d="M2292 5898 c-7 -7 -12 -16 -12 -22 0 -5 -7 -17 -16 -27 -9 -10 -14
-24 -12 -30 2 -7 15 6 28 29 13 23 27 42 32 42 4 0 8 5 8 10 0 14 -13 13 -28
-2z"/>
<path d="M2317 5872 l-19 -37 22 21 c12 12 20 28 18 37 -2 9 -10 2 -21 -21z"/>
<path d="M2360 5796 c0 -2 8 -10 18 -17 15 -13 16 -12 3 4 -13 16 -21 21 -21
13z"/>
<path d="M2643 5992 c-13 -2 -23 -7 -23 -12 0 -5 -6 -10 -12 -13 -7 -2 1 -2
17 1 28 4 54 18 44 25 -2 1 -14 1 -26 -1z"/>
<path d="M3624 5416 c-12 -26 -2 -56 19 -56 7 0 6 4 -3 10 -12 8 -13 13 -2 30
6 11 12 24 12 30 0 18 -15 10 -26 -14z"/>
<path d="M3846 5257 c-5 -26 -6 -51 -2 -54 12 -13 17 6 14 53 l-3 49 -9 -48z"/>
<path d="M3576 5261 c-3 -5 3 -20 14 -32 l20 -24 -11 33 c-12 34 -15 37 -23
23z"/>
<path d="M3822 5140 c0 -19 -2 -65 -4 -103 -2 -56 -1 -65 10 -50 6 9 13 33 14
52 2 50 6 82 13 111 6 23 6 24 -8 7 -15 -18 -15 -18 -20 0 -2 10 -4 2 -5 -17z"/>
<path d="M3955 5060 c-4 -17 -5 -34 -2 -36 2 -3 7 10 11 27 8 42 0 50 -9 9z"/>
<path d="M3921 4775 c-1 -22 16 -45 33 -45 5 0 2 8 -6 18 -9 9 -18 24 -21 32
-4 11 -6 9 -6 -5z"/>
<path d="M5719 5818 c-5 -16 -8 -90 -3 -85 9 8 18 87 10 87 -3 0 -6 -1 -7 -2z"/>
<path d="M5707 5714 c-4 -4 -7 -19 -6 -33 l0 -26 10 24 c10 26 8 47 -4 35z"/>
<path d="M2827 5444 c-4 -4 -7 -14 -7 -23 0 -11 3 -12 11 -4 6 6 10 16 7 23
-2 6 -7 8 -11 4z"/>
<path d="M4280 4765 c-7 -9 -11 -17 -8 -20 2 -2 12 4 21 15 9 11 13 20 8 20
-5 0 -14 -7 -21 -15z"/>
<path d="M4331 4754 c-23 -29 -27 -44 -11 -44 11 0 44 59 37 66 -3 3 -14 -7
-26 -22z"/>
<path d="M4277 4645 c-20 -43 -22 -67 -3 -40 12 19 30 75 23 75 -2 0 -11 -16
-20 -35z"/>
<path d="M4260 4560 c0 -5 5 -10 10 -10 6 0 10 5 10 10 0 6 -4 10 -10 10 -5 0
-10 -4 -10 -10z"/>
<path d="M4267 4520 c10 -11 19 -20 21 -20 1 0 -2 9 -8 20 -6 11 -15 20 -20
20 -6 0 -2 -9 7 -20z"/>
<path d="M4265 4480 c-3 -5 -2 -10 4 -10 5 0 13 5 16 10 3 6 2 10 -4 10 -5 0
-13 -4 -16 -10z"/>
<path d="M4120 4440 c0 -5 5 -10 10 -10 6 0 10 5 10 10 0 6 -4 10 -10 10 -5 0
-10 -4 -10 -10z"/>
<path d="M4267 4298 c-4 -12 -4 -24 -2 -27 3 -2 5 1 5 8 0 7 5 9 10 6 8 -5 7
-11 -1 -21 -9 -11 -8 -14 5 -14 19 0 20 28 2 53 -13 16 -14 16 -19 -5z"/>
<path d="M4335 4210 c11 -5 29 -9 40 -9 17 -1 17 1 5 9 -8 5 -26 9 -40 9 -23
0 -23 -1 -5 -9z"/>
<path d="M6858 4083 c6 -2 18 -2 25 0 6 3 1 5 -13 5 -14 0 -19 -2 -12 -5z"/>
<path d="M6750 3924 c0 -8 5 -12 10 -9 6 4 8 11 5 16 -9 14 -15 11 -15 -7z"/>
<path d="M6726 3885 c-9 -26 -7 -32 5 -12 6 10 9 21 6 23 -2 3 -7 -2 -11 -11z"/>
<path d="M6686 3764 c-8 -20 -8 -24 2 -24 4 0 8 9 9 20 2 24 -3 26 -11 4z"/>
<path d="M6730 3751 c0 -6 5 -13 10 -16 6 -3 10 1 10 9 0 9 -4 16 -10 16 -5 0
-10 -4 -10 -9z"/>
<path d="M6715 3712 c-8 -22 -1 -24 36 -9 l34 14 -32 5 c-22 3 -34 0 -38 -10z"/>
<path d="M6698 3673 c7 -3 16 -2 19 1 4 3 -2 6 -13 5 -11 0 -14 -3 -6 -6z"/>
<path d="M3087 4233 c23 -4 39 -35 28 -53 -3 -6 4 -10 17 -10 13 0 33 -3 46
-6 18 -5 24 -2 29 14 3 12 15 23 27 25 14 3 11 5 -11 6 -17 0 -33 5 -35 9 -1
5 -30 11 -63 14 -33 3 -50 4 -38 1z"/>
<path d="M2870 4185 c-7 -9 -11 -17 -9 -20 3 -2 10 5 17 15 14 24 10 26 -8 5z"/>
<path d="M3007 4194 c-15 -15 -7 -44 13 -44 11 0 20 4 20 8 0 15 -26 43 -33
36z"/>
<path d="M2895 4160 c-10 -11 -20 -18 -23 -16 -2 3 -14 -5 -26 -18 -11 -12
-29 -25 -38 -29 -27 -10 -22 -25 6 -20 16 3 28 -2 38 -15 13 -20 14 -19 50 13
33 30 34 34 20 49 -14 13 -14 20 -4 36 16 26 0 26 -23 0z"/>
<path d="M3287 4143 c-11 -10 -8 -20 8 -27 10 -4 15 1 15 14 0 20 -11 26 -23
13z"/>
<path d="M3392 4110 c3 -8 -1 -23 -9 -32 -13 -15 -12 -20 11 -51 21 -28 31
-33 55 -29 30 4 30 4 13 31 -9 14 -19 28 -22 31 -3 3 -16 19 -29 35 -13 17
-21 23 -19 15z"/>
<path d="M3063 4090 c-43 -10 -124 -63 -149 -97 -34 -46 -64 -123 -64 -165 0
-106 70 -217 168 -265 46 -23 70 -28 127 -28 60 0 80 5 139 35 96 48 127 93
133 192 8 125 -49 239 -146 291 l-52 29 6 -24 c9 -33 -24 -72 -74 -87 -40 -12
-47 -23 -35 -56 6 -14 8 -13 18 7 16 31 50 30 54 -1 2 -13 -1 -28 -7 -34 -6
-6 -11 -24 -11 -39 0 -18 -5 -28 -15 -28 -12 0 -14 -7 -9 -27 12 -58 14 -60
34 -35 15 18 16 27 7 52 -8 20 -8 38 -1 57 8 23 15 28 44 28 l35 0 0 -50 c0
-36 6 -58 22 -78 12 -16 29 -48 38 -71 15 -40 16 -46 1 -75 -25 -47 -82 -53
-123 -13 -15 16 -16 15 -9 -11 5 -20 2 -29 -9 -33 -18 -7 -45 13 -45 34 0 16
64 117 80 127 6 3 10 11 10 17 0 7 -12 0 -27 -13 -62 -56 -103 -70 -144 -49
-21 12 -26 1 -7 -18 18 -18 -7 -40 -30 -26 -22 14 -27 59 -9 87 7 12 17 33 20
47 3 14 17 32 31 40 19 11 23 19 16 30 -8 13 -12 11 -25 -7 -18 -26 -35 -30
-35 -9 0 9 -8 12 -26 8 -20 -3 -26 0 -31 17 -4 14 -13 21 -30 21 -32 0 -28 34
4 38 12 2 32 19 43 37 30 49 78 75 136 75 65 0 78 9 69 49 -6 29 -9 31 -48 30
-23 -1 -56 -4 -74 -9z"/>
<path d="M2765 4000 c19 -35 38 -51 47 -38 12 20 10 28 -10 28 -10 0 -24 6
-31 13 -11 10 -12 9 -6 -3z"/>
<path d="M2860 3975 c-7 -9 -10 -18 -7 -21 3 -3 10 4 17 15 13 25 8 27 -10 6z"/>
<path d="M3021 3927 c-20 -23 -22 -28 -9 -45 12 -18 16 -18 32 -6 16 11 17 19
10 45 l-9 31 -24 -25z"/>
<path d="M3467 3900 c4 -16 8 -18 19 -9 20 16 17 29 -5 29 -14 0 -18 -5 -14
-20z"/>
<path d="M2720 3887 c0 -34 -12 -41 -27 -15 -9 16 -12 18 -13 7 0 -9 9 -24 20
-34 12 -10 19 -24 17 -29 -2 -6 -8 -22 -12 -36 -8 -24 -7 -24 18 -7 15 9 33
17 42 17 11 0 15 11 15 45 0 25 -3 44 -7 44 -21 -3 -33 2 -33 16 0 8 -4 15
-10 15 -5 0 -10 -10 -10 -23z"/>
<path d="M3536 3824 c-4 -11 -14 -15 -31 -12 -24 5 -25 3 -25 -43 0 -42 3 -48
23 -51 18 -2 22 -9 20 -33 -2 -24 0 -27 8 -13 10 18 25 168 16 168 -3 0 -8 -7
-11 -16z"/>
<path d="M2670 3736 c0 -8 4 -17 9 -20 5 -4 7 3 4 14 -6 23 -13 26 -13 6z"/>
<path d="M3077 3743 c-13 -12 -7 -33 8 -33 8 0 15 9 15 20 0 20 -11 26 -23 13z"/>
<path d="M2776 3695 c-22 -17 -17 -29 8 -19 9 3 16 12 16 20 0 17 0 17 -24 -1z"/>
<path d="M3241 3660 c-19 -17 -20 -21 -7 -26 23 -9 39 0 43 24 4 27 -5 27 -36
2z"/>
<path d="M3450 3636 c0 -10 8 -16 22 -16 12 0 19 1 17 3 -2 1 -12 9 -21 16
-15 12 -18 11 -18 -3z"/>
<path d="M2731 3594 c-2 -28 42 -68 69 -61 15 4 31 -6 61 -36 22 -23 35 -32
27 -19 -11 21 -11 25 7 40 20 17 20 17 -16 53 -34 34 -37 35 -58 20 -21 -14
-25 -13 -37 4 -12 16 -14 16 -14 2 0 -9 7 -20 15 -24 8 -5 11 -14 7 -20 -11
-18 -49 10 -55 40 -4 20 -4 20 -6 1z"/>
<path d="M3391 3546 c-16 -17 -19 -26 -11 -31 7 -4 10 -18 7 -31 -5 -30 -2
-30 29 3 13 14 34 31 46 37 12 6 23 17 26 24 3 11 1 11 -16 1 -18 -11 -24 -10
-40 4 -18 16 -20 16 -41 -7z"/>
<path d="M3290 3540 c-9 -6 -10 -10 -3 -10 6 0 15 5 18 10 8 12 4 12 -15 0z"/>
<path d="M3490 3505 c-8 -9 -8 -15 -2 -15 12 0 26 19 19 26 -2 2 -10 -2 -17
-11z"/>
<path d="M2970 3482 c0 -10 -6 -24 -12 -31 -11 -10 -10 -11 5 -6 11 5 17 2 17
-8 0 -8 9 -25 21 -38 l20 -24 -17 29 c-14 22 -16 34 -7 56 9 23 8 30 -4 34
-21 9 -23 8 -23 -12z"/>
<path d="M3283 3488 c-10 -12 -10 -19 1 -34 18 -24 24 -17 17 20 -5 25 -8 27
-18 14z"/>
<path d="M3100 3450 c0 -5 -10 -20 -21 -31 l-22 -22 27 7 c19 5 26 3 26 -9 0
-8 -8 -15 -17 -16 -10 0 -13 -3 -6 -5 6 -3 23 2 36 10 16 11 37 15 65 11 25
-3 43 -1 48 7 4 6 3 8 -4 5 -18 -12 -42 4 -42 29 0 22 -4 24 -45 24 -25 0 -45
-4 -45 -10z"/>
<path d="M3409 3433 c-13 -16 -12 -17 4 -4 16 13 21 21 13 21 -2 0 -10 -8 -17
-17z"/>
<path d="M3832 3331 c-6 -17 -7 -31 -3 -31 10 0 25 50 18 57 -3 2 -9 -10 -15
-26z"/>
<path d="M3515 3240 c-3 -5 -1 -10 4 -10 6 0 11 5 11 10 0 6 -2 10 -4 10 -3 0
-8 -4 -11 -10z"/>
<path d="M6408 3214 c-5 -4 -8 -16 -8 -28 0 -14 3 -17 11 -9 6 6 9 19 7 28 -1
9 -6 13 -10 9z"/>
<path d="M3950 3136 c0 -8 5 -18 10 -21 6 -3 10 1 10 9 0 8 -4 18 -10 21 -5 3
-10 -1 -10 -9z"/>
<path d="M3711 3093 c0 -5 4 -17 9 -28 8 -18 9 -17 9 8 1 15 -3 27 -9 27 -5 0
-10 -3 -9 -7z"/>
<path d="M3430 3020 c-20 -15 -22 -20 -11 -34 7 -9 18 -16 24 -16 7 0 7 4 -1
12 -17 17 -15 28 10 37 12 4 17 10 12 14 -5 3 -20 -3 -34 -13z"/>
<path d="M3240 2958 c0 -18 18 -34 28 -24 3 4 -2 14 -11 23 -16 16 -17 16 -17
1z"/>
<path d="M3103 2915 c-25 -17 -21 -45 6 -45 24 0 40 19 34 41 -6 23 -12 24
-40 4z"/>
<path d="M2001 9897 c-6 -8 -8 -17 -4 -20 11 -12 19 -7 20 13 2 24 -1 25 -16
7z"/>
<path d="M3360 9809 c0 -5 5 -7 10 -4 6 3 10 8 10 11 0 2 -4 4 -10 4 -5 0 -10
-5 -10 -11z"/>
<path d="M1921 9783 c-10 -26 -10 -27 4 -9 8 11 15 23 15 28 0 15 -7 8 -19
-19z"/>
<path d="M4130 9143 c-8 -2 -22 -7 -30 -10 -8 -3 -24 -5 -36 -4 -11 1 -27 -5
-34 -13 -7 -9 -19 -16 -27 -16 -13 0 -33 -12 -168 -105 -70 -48 -75 -53 -82
-86 -3 -16 -10 -29 -15 -29 -5 0 -7 -4 -3 -9 3 -6 17 -4 33 4 15 7 57 28 95
45 37 17 89 48 115 67 102 79 267 124 345 94 35 -14 35 0 -1 26 -41 30 -149
51 -192 36z"/>
<path d="M4266 8982 c-4 -7 -19 -9 -36 -6 -16 4 -53 0 -82 -7 -29 -8 -57 -14
-63 -14 -5 0 -14 -3 -20 -7 -5 -3 -26 -9 -45 -13 -34 -7 -124 -54 -169 -87
-21 -15 -50 -95 -30 -82 5 3 9 0 9 -5 0 -6 7 -11 15 -11 12 0 15 -9 11 -37 -3
-32 -2 -35 9 -19 10 13 14 14 18 4 3 -7 5 -2 4 11 -1 13 6 28 15 34 13 9 22 5
46 -21 17 -18 36 -32 44 -32 8 0 5 -5 -6 -12 -11 -6 -46 -11 -78 -12 -57 -1
-60 -2 -80 -38 -12 -21 -19 -41 -15 -44 3 -4 23 4 44 16 87 52 105 60 133 60
16 0 35 7 44 15 8 8 30 15 49 15 20 0 37 3 39 8 2 4 19 15 38 25 19 10 53 29
75 43 76 47 72 43 53 54 -29 17 -21 27 26 34 57 9 73 27 49 55 -9 12 -23 21
-31 21 -7 0 -10 5 -7 10 3 6 -2 13 -12 17 -10 4 -23 13 -29 21 -8 11 -13 12
-18 4z m-68 -149 c3 -12 -74 -100 -82 -92 -7 9 -15 97 -8 103 11 11 85 2 90
-11z m-123 -53 c9 -14 -13 -50 -30 -50 -10 0 -15 10 -15 30 0 23 5 30 19 30
11 0 23 -4 26 -10z m-89 -11 c3 -6 2 -15 -2 -19 -12 -12 -38 5 -30 19 9 14 23
14 32 0z"/>
<path d="M2432 8820 c0 -14 2 -19 5 -12 2 6 2 18 0 25 -3 6 -5 1 -5 -13z"/>
<path d="M4830 8813 c0 -5 9 -43 20 -87 11 -43 20 -88 20 -101 0 -12 3 -25 8
-29 4 -4 7 -24 7 -44 1 -64 17 -182 25 -177 4 2 7 -9 6 -24 -1 -16 -5 -27 -9
-24 -10 6 3 -49 14 -61 10 -11 12 -138 3 -185 -4 -17 -10 -28 -15 -25 -5 3 -8
-10 -7 -29 2 -19 6 -33 11 -30 9 5 9 -3 -2 -51 -6 -22 -6 -35 -1 -30 5 5 12
35 15 66 3 31 10 90 15 130 5 40 10 116 11 168 l2 95 8 -74 c5 -41 11 -76 14
-79 9 -10 5 183 -5 198 -8 12 -10 11 -10 -7 0 -12 -4 -25 -10 -28 -14 -8 -13
41 1 67 7 13 7 23 2 27 -6 3 -9 16 -8 28 1 12 -2 20 -6 18 -7 -5 -15 14 -47
115 -28 89 -47 164 -44 173 1 4 -2 7 -8 7 -5 0 -10 -3 -10 -7z"/>
<path d="M2007 8780 c8 -48 19 -57 19 -16 0 19 -3 33 -7 30 -4 -2 -10 2 -12 8
-3 7 -3 -3 0 -22z"/>
<path d="M2426 8781 c-4 -7 -5 -15 -2 -18 9 -9 19 4 14 18 -4 11 -6 11 -12 0z"/>
<path d="M2357 8746 c-4 -10 -7 -25 -6 -34 0 -11 4 -9 10 7 5 13 8 29 6 35 -2
5 -6 2 -10 -8z"/>
<path d="M2495 8748 c-10 -32 -23 -125 -20 -148 13 -83 17 -101 23 -95 11 11
11 65 -1 58 -7 -4 -8 8 -2 38 7 43 13 159 7 159 -1 0 -5 -6 -7 -12z"/>
<path d="M2334 8643 c-5 -27 -9 -56 -9 -65 0 -9 -4 -20 -8 -24 -4 -4 -7 -17
-7 -29 0 -11 -4 -25 -9 -30 -5 -6 -14 -50 -20 -100 -6 -49 -15 -124 -21 -165
-6 -42 -6 -78 -1 -83 5 -5 11 21 15 60 10 107 29 223 36 223 4 0 10 24 13 53
10 84 25 171 32 190 4 9 3 17 -3 17 -5 0 -13 -21 -18 -47z"/>
<path d="M4936 8604 c-4 -9 -4 -19 -1 -22 2 -3 7 3 11 12 4 9 4 19 1 22 -2 3
-7 -3 -11 -12z"/>
<path d="M2432 8560 c0 -19 2 -27 5 -17 2 9 2 25 0 35 -3 9 -5 1 -5 -18z"/>
<path d="M4950 8566 c0 -8 4 -17 9 -20 5 -4 7 3 4 14 -6 23 -13 26 -13 6z"/>
<path d="M4931 8554 c0 -11 3 -14 6 -6 3 7 2 16 -1 19 -3 4 -6 -2 -5 -13z"/>
<path d="M1741 8513 c1 -34 2 -35 9 -13 11 36 11 50 0 50 -5 0 -10 -17 -9 -37z"/>
<path d="M4980 8447 c0 -14 4 -28 8 -31 10 -6 10 40 0 50 -5 4 -8 -4 -8 -19z"/>
<path d="M1731 8444 c0 -11 3 -14 6 -6 3 7 2 16 -1 19 -3 4 -6 -2 -5 -13z"/>
<path d="M2042 8430 c0 -14 2 -19 5 -12 2 6 2 18 0 25 -3 6 -5 1 -5 -13z"/>
<path d="M2397 8403 c-12 -11 -7 -54 7 -68 12 -12 13 -8 9 28 -6 48 -7 49 -16
40z"/>
<path d="M4848 8370 c-3 -17 -1 -33 4 -36 4 -3 8 11 8 30 0 44 -6 47 -12 6z"/>
<path d="M4994 8387 c3 -10 6 -66 6 -124 0 -59 2 -104 6 -101 11 11 6 206 -6
224 -11 18 -11 18 -6 1z"/>
<path d="M4871 8374 c0 -11 3 -14 6 -6 3 7 2 16 -1 19 -3 4 -6 -2 -5 -13z"/>
<path d="M2490 8327 c0 -23 4 -36 10 -32 13 8 13 35 0 55 -7 11 -10 5 -10 -23z"/>
<path d="M4850 8297 c0 -15 -4 -27 -9 -27 -8 0 -3 -110 5 -119 2 -2 4 17 4 42
0 26 4 47 10 47 6 0 8 16 5 36 -5 45 -15 57 -15 21z"/>
<path d="M1851 8274 c0 -11 3 -14 6 -6 3 7 2 16 -1 19 -3 4 -6 -2 -5 -13z"/>
<path d="M2387 8283 c-4 -3 -7 -51 -7 -105 0 -80 3 -98 15 -98 10 0 15 -9 14
-27 -2 -24 -2 -25 -6 -5 -2 12 -8 22 -13 22 -4 0 -4 -16 0 -34 4 -19 5 -38 1
-42 -3 -4 -1 -4 6 0 18 10 30 -101 12 -114 -4 -3 -1 -14 7 -24 16 -22 15 -27
19 114 4 107 4 107 15 90 5 -8 10 -10 10 -4 0 5 -4 14 -8 20 -15 16 -35 121
-27 135 6 8 4 11 -7 7 -11 -5 -15 2 -16 29 -2 39 -5 47 -15 36z"/>
<path d="M2465 8241 c-3 -5 -1 -12 5 -16 5 -3 10 1 10 9 0 18 -6 21 -15 7z"/>
<path d="M4913 8215 c0 -22 2 -30 4 -17 2 12 2 30 0 40 -3 9 -5 -1 -4 -23z"/>
<path d="M1861 8204 c0 -11 3 -14 6 -6 3 7 2 16 -1 19 -3 4 -6 -2 -5 -13z"/>
<path d="M4711 8190 c0 -14 4 -32 9 -40 8 -12 10 -12 9 5 0 11 -4 29 -9 40 -8
18 -9 18 -9 -5z"/>
<path d="M5040 8184 c0 -14 4 -23 9 -20 5 3 7 15 4 26 -7 28 -13 25 -13 -6z"/>
<path d="M4845 8103 c-4 -16 -10 -36 -16 -45 -12 -23 -12 -55 1 -63 13 -8 13
-42 0 -47 -11 -3 -21 -186 -11 -193 4 -2 7 11 8 28 1 18 5 43 8 57 4 19 3 21
-5 10 -8 -13 -10 -13 -10 1 0 8 5 20 10 25 6 6 13 51 15 100 3 49 8 104 11
122 6 39 -3 43 -11 5z m-8 -95 c-3 -8 -6 -5 -6 6 -1 11 2 17 5 13 3 -3 4 -12
1 -19z"/>
<path d="M5061 8093 c-1 -6 -4 -20 -7 -30 -5 -17 -5 -17 6 0 6 10 9 23 6 30
-3 9 -5 9 -5 0z"/>
<path d="M4722 8065 c0 -16 2 -22 5 -12 2 9 2 23 0 30 -3 6 -5 -1 -5 -18z"/>
<path d="M4794 8059 c-3 -6 -1 -16 5 -22 8 -8 11 -5 11 11 0 24 -5 28 -16 11z"/>
<path d="M2461 8024 c0 -11 3 -14 6 -6 3 7 2 16 -1 19 -3 4 -6 -2 -5 -13z"/>
<path d="M1936 7974 c8 -18 11 -40 8 -48 -3 -9 -1 -16 6 -16 6 0 9 -4 6 -9 -3
-4 0 -16 7 -25 11 -15 12 -11 12 23 0 22 -3 37 -7 35 -5 -3 -8 6 -8 20 0 14
-5 26 -11 26 -6 0 -9 6 -6 13 3 8 -1 14 -8 14 -10 0 -10 -7 1 -33z"/>
<path d="M5042 7950 c0 -14 2 -19 5 -12 2 6 2 18 0 25 -3 6 -5 1 -5 -13z"/>
<path d="M4721 7904 c0 -11 3 -14 6 -6 3 7 2 16 -1 19 -3 4 -6 -2 -5 -13z"/>
<path d="M5036 7901 c4 -17 3 -21 -6 -16 -10 6 -12 1 -8 -19 3 -14 1 -29 -3
-32 -5 -3 -9 -15 -9 -27 0 -32 16 -8 28 42 7 30 8 50 1 60 -8 12 -8 10 -3 -8z"/>
<path d="M4745 7840 c-4 -23 -5 -43 -2 -46 2 -3 7 14 11 37 4 23 5 44 2 46 -2
2 -7 -14 -11 -37z"/>
<path d="M4991 7844 c0 -11 3 -14 6 -6 3 7 2 16 -1 19 -3 4 -6 -2 -5 -13z"/>
<path d="M5038 7790 c-13 -40 -13 -50 -2 -54 8 -3 11 0 8 9 -3 8 0 30 6 50 7
20 10 38 8 40 -2 3 -11 -17 -20 -45z"/>
<path d="M4186 7783 c-33 -22 -56 -44 -56 -55 0 -22 -37 -61 -50 -53 -6 4 -10
0 -10 -9 0 -22 -130 -125 -175 -138 -22 -7 -42 -15 -45 -18 -3 -4 -14 -10 -25
-14 -13 -5 -15 -10 -8 -13 17 -6 82 15 114 38 14 10 29 15 33 11 4 -4 12 1 17
11 6 9 15 17 22 17 7 0 47 26 89 58 42 31 86 63 97 71 11 8 18 18 15 23 -3 4
-1 8 4 8 5 0 17 19 27 43 10 23 20 45 23 50 9 16 -18 5 -72 -30z"/>
<path d="M4792 7795 c0 -16 2 -22 5 -12 2 9 2 23 0 30 -3 6 -5 -1 -5 -18z"/>
<path d="M4886 7769 c-4 -23 -5 -44 -2 -46 2 -2 7 14 11 37 4 23 5 43 2 46 -2
3 -7 -14 -11 -37z"/>
<path d="M1960 7781 c0 -11 5 -23 10 -26 6 -4 10 5 10 19 0 14 -4 26 -10 26
-5 0 -10 -9 -10 -19z"/>
<path d="M5047 7708 c-8 -18 -17 -44 -21 -58 -3 -14 6 -1 19 29 14 29 24 55
22 58 -3 2 -11 -11 -20 -29z"/>
<path d="M4811 7723 c0 -6 -4 -20 -7 -30 -5 -14 -4 -15 5 -7 7 7 11 20 8 30
-3 11 -5 14 -6 7z"/>
<path d="M4931 7704 c0 -11 3 -14 6 -6 3 7 2 16 -1 19 -3 4 -6 -2 -5 -13z"/>
<path d="M4991 7684 c0 -11 3 -14 6 -6 3 7 2 16 -1 19 -3 4 -6 -2 -5 -13z"/>
<path d="M4761 7674 c0 -11 3 -14 6 -6 3 7 2 16 -1 19 -3 4 -6 -2 -5 -13z"/>
<path d="M2001 7634 c0 -11 3 -14 6 -6 3 7 2 16 -1 19 -3 4 -6 -2 -5 -13z"/>
<path d="M4983 7602 c-7 -4 -9 -13 -4 -21 6 -9 10 -7 14 8 3 12 4 21 4 21 -1
0 -7 -4 -14 -8z"/>
<path d="M4756 7573 c-6 -14 -5 -15 5 -6 7 7 10 15 7 18 -3 3 -9 -2 -12 -12z"/>
<path d="M4965 7558 c2 -10 0 -18 -4 -18 -4 0 -8 -6 -9 -12 -1 -7 -4 -26 -8
-42 -10 -41 11 -25 26 19 6 19 16 33 21 30 5 -4 9 -1 9 4 0 6 -6 11 -14 11 -8
0 -16 6 -19 13 -2 6 -3 4 -2 -5z"/>
<path d="M1972 7540 c0 -19 2 -27 5 -17 2 9 2 25 0 35 -3 9 -5 1 -5 -18z"/>
<path d="M3355 7539 c-55 -13 -64 -26 -29 -39 16 -6 60 -27 98 -47 66 -34 166
-57 152 -35 -6 11 10 16 109 31 33 5 71 14 85 19 l25 9 -30 7 c-17 4 -53 7
-80 7 -114 0 -154 5 -171 19 -52 41 -81 47 -159 29z"/>
<path d="M4732 7530 c-15 -25 -15 -40 -1 -40 6 0 9 6 6 14 -3 7 0 19 6 25 6 6
9 13 6 15 -3 3 -10 -4 -17 -14z"/>
<path d="M4917 7519 c-9 -17 -18 -40 -18 -52 -1 -20 -2 -20 -6 -3 -4 15 -10 9
-29 -30 -12 -27 -23 -55 -23 -62 -1 -7 -7 -10 -13 -7 -7 4 -5 0 6 -9 10 -8 16
-19 13 -23 -3 -5 6 -9 20 -8 15 0 28 6 31 14 3 8 16 24 30 36 27 23 39 75 17
75 -18 0 -26 37 -14 67 14 36 7 37 -14 2z m33 -100 c0 -5 -5 -8 -12 -6 -6 1
-15 -9 -19 -23 -4 -14 -7 -20 -8 -13 -1 6 -4 19 -8 29 -4 12 -3 15 5 10 7 -4
12 -1 12 8 0 10 6 13 15 10 8 -4 15 -10 15 -15z m-63 -53 c-13 -10 -14 -15 -6
-18 8 -3 9 -7 4 -10 -6 -3 -16 0 -23 8 -11 12 -9 16 10 23 32 13 36 13 15 -3z"/>
<path d="M4842 7480 c0 -14 2 -19 5 -12 2 6 2 18 0 25 -3 6 -5 1 -5 -13z"/>
<path d="M4811 7454 c0 -11 3 -14 6 -6 3 7 2 16 -1 19 -3 4 -6 -2 -5 -13z"/>
<path d="M4976 7403 c-6 -14 -5 -15 5 -6 7 7 10 15 7 18 -3 3 -9 -2 -12 -12z"/>
<path d="M4805 7390 c-16 -7 -17 -9 -3 -9 9 -1 20 4 23 9 7 11 7 11 -20 0z"/>
<path d="M2221 7354 c0 -11 3 -14 6 -6 3 7 2 16 -1 19 -3 4 -6 -2 -5 -13z"/>
<path d="M4765 7333 c4 -16 8 -34 8 -40 0 -7 4 -13 9 -13 5 0 6 9 3 20 -4 11
-2 20 4 20 6 0 11 5 11 11 0 6 -7 8 -16 5 -12 -4 -15 -2 -10 9 3 8 1 15 -5 15
-7 0 -9 -10 -4 -27z"/>
<path d="M4960 7340 c-6 -11 -8 -20 -6 -20 3 0 10 9 16 20 6 11 8 20 6 20 -3
0 -10 -9 -16 -20z"/>
<path d="M4806 7305 c-3 -8 -1 -15 4 -15 6 0 10 7 10 15 0 8 -2 15 -4 15 -2 0
-6 -7 -10 -15z"/>
<path d="M4920 7305 c-10 -12 -16 -13 -26 -4 -18 15 -18 2 0 -17 20 -19 33
-18 46 5 13 24 -3 36 -20 16z"/>
<path d="M4795 7270 c-3 -5 -1 -10 4 -10 6 0 11 5 11 10 0 6 -2 10 -4 10 -3 0
-8 -4 -11 -10z"/>
<path d="M4858 7249 c-23 -25 -46 -26 -27 -1 11 15 11 15 -1 4 -8 -7 -15 -18
-15 -25 0 -7 -9 -11 -20 -10 -23 3 -53 -13 -42 -23 3 -4 14 -1 23 6 13 12 17
11 25 -1 5 -8 7 -20 4 -26 -2 -7 1 -13 8 -13 8 0 6 -4 -3 -10 -11 -7 -11 -10
-2 -10 7 0 10 -5 7 -10 -11 -18 -25 0 -21 25 3 14 0 28 -6 31 -13 9 -36 -15
-23 -24 6 -4 10 -13 11 -19 2 -29 5 -39 13 -52 7 -11 14 -8 35 15 14 16 25 34
26 39 0 6 -5 3 -10 -5 -5 -8 -10 -11 -10 -6 0 5 8 18 18 29 9 11 12 18 6 14
-6 -3 -11 0 -11 8 0 11 5 12 21 3 12 -6 18 -7 13 -3 -4 5 3 19 14 31 18 19 20
26 9 39 -16 19 -21 18 -42 -6z m39 -12 c-1 -5 -11 -11 -20 -13 -14 -2 -15 1
-6 17 10 20 33 16 26 -4z"/>
<path d="M2231 7233 c-1 -6 -4 -20 -7 -30 -5 -17 -5 -17 6 0 6 10 9 23 6 30
-3 9 -5 9 -5 0z"/>
<path d="M3205 6970 c-3 -5 -4 -10 -1 -10 2 0 12 -3 20 -6 12 -5 15 -2 10 10
-7 18 -20 21 -29 6z"/>
<path d="M2063 6958 c-15 -20 -25 -38 -20 -38 3 0 12 11 21 25 17 26 16 35 -1
13z"/>
<path d="M2890 6946 c0 -2 8 -10 18 -17 15 -13 16 -12 3 4 -13 16 -21 21 -21
13z"/>
<path d="M2100 6895 c0 -8 2 -15 4 -15 2 0 6 7 10 15 3 8 1 15 -4 15 -6 0 -10
-7 -10 -15z"/>
<path d="M2930 6906 c0 -4 7 -14 15 -22 8 -9 15 -11 15 -6 0 5 -7 15 -15 22
-8 7 -15 9 -15 6z"/>
<path d="M2076 6865 c-9 -26 -7 -32 5 -12 6 10 9 21 6 23 -2 3 -7 -2 -11 -11z"/>
<path d="M3010 6813 c27 -37 20 -55 -10 -28 -11 10 -20 16 -20 13 0 -7 32 -40
55 -58 19 -14 19 -14 6 3 -8 9 -11 20 -7 24 9 9 86 -69 79 -81 -3 -5 -1 -6 4
-3 6 4 14 0 17 -9 3 -8 10 -13 15 -10 5 4 -8 24 -28 45 -21 22 -49 52 -62 68
-14 15 -36 37 -49 48 l-23 20 23 -32z"/>
<path d="M1981 6814 c0 -11 3 -14 6 -6 3 7 2 16 -1 19 -3 4 -6 -2 -5 -13z"/>
<path d="M1961 6774 c0 -11 3 -14 6 -6 3 7 2 16 -1 19 -3 4 -6 -2 -5 -13z"/>
<path d="M3161 6704 c13 -17 26 -30 28 -27 3 2 -8 16 -24 31 l-28 27 24 -31z"/>
<path d="M2025 6709 c-4 -6 -5 -12 -2 -15 2 -3 7 2 10 11 7 17 1 20 -8 4z"/>
<path d="M2108 6693 c6 -2 18 -2 25 0 6 3 1 5 -13 5 -14 0 -19 -2 -12 -5z"/>
<path d="M1935 6560 c-3 -5 -2 -10 4 -10 5 0 13 5 16 10 3 6 2 10 -4 10 -5 0
-13 -4 -16 -10z"/>
<path d="M3481 6340 c81 -79 101 -92 80 -51 -13 23 -137 131 -152 131 -5 0 27
-36 72 -80z"/>
<path d="M2217 6393 c-4 -6 -3 -23 3 -38 12 -32 12 -35 1 -35 -5 0 -12 8 -14
18 -4 15 -5 15 -6 0 0 -9 8 -23 20 -31 17 -13 19 -19 10 -36 -10 -17 -9 -21 4
-21 21 0 30 27 15 45 -7 8 -10 26 -6 40 4 14 2 25 -3 25 -5 0 -11 10 -13 23
-2 14 -6 18 -11 10z"/>
<path d="M2510 6380 c-8 -5 -10 -10 -5 -10 6 0 17 5 25 10 8 5 11 10 5 10 -5
0 -17 -5 -25 -10z"/>
<path d="M2441 6347 c-6 -8 -8 -17 -4 -21 4 -4 0 -4 -10 0 -10 3 -17 1 -17 -6
0 -6 -4 -9 -9 -6 -4 3 -19 -6 -31 -19 -13 -14 -21 -25 -18 -25 9 0 113 60 104
60 -5 0 -3 7 4 15 7 8 8 15 2 15 -5 0 -15 -6 -21 -13z"/>
<path d="M2140 6253 c0 -3 7 -15 17 -25 20 -22 11 -35 -10 -13 -18 18 -27 19
-27 4 0 -7 12 -22 26 -35 14 -13 22 -29 19 -34 -6 -10 -11 -7 -54 30 -10 8
-28 21 -40 28 -20 12 -21 11 -9 -9 19 -32 40 -52 72 -69 25 -13 30 -13 34 -1
2 7 13 22 23 32 11 11 19 25 19 32 -1 26 -70 87 -70 60z"/>
<path d="M3580 6250 c-13 -8 -12 -10 3 -10 9 0 17 5 17 10 0 12 -1 12 -20 0z"/>
<path d="M2226 6134 c-4 -9 -4 -19 -1 -22 2 -3 7 3 11 12 4 9 4 19 1 22 -2 3
-7 -3 -11 -12z"/>
<path d="M2100 6111 c0 -9 52 -22 60 -15 7 7 -23 24 -42 24 -10 0 -18 -4 -18
-9z"/>
<path d="M2125 6060 c-3 -5 -1 -10 4 -10 6 0 11 5 11 10 0 6 -2 10 -4 10 -3 0
-8 -4 -11 -10z"/>
<path d="M3790 5831 c5 -11 15 -23 21 -27 6 -3 3 5 -6 20 -20 30 -30 35 -15 7z"/>
<path d="M1965 5789 c-4 -6 -5 -12 -2 -15 2 -3 7 2 10 11 7 17 1 20 -8 4z"/>
<path d="M3876 5777 c3 -10 9 -15 12 -12 3 3 0 11 -7 18 -10 9 -11 8 -5 -6z"/>
</g>
</svg>
