<?xml version="1.0" standalone="no"?>
<!DOCTYPE svg PUBLIC "-//W3C//DTD SVG 20010904//EN"
 "http://www.w3.org/TR/2001/REC-SVG-20010904/DTD/svg10.dtd">
<svg version="1.0" xmlns="http://www.w3.org/2000/svg"
 width="1280.000000pt" height="1130.000000pt" viewBox="0 0 1280.000000 1130.000000"
 preserveAspectRatio="xMidYMid meet">

<g transform="translate(0.000000,1130.000000) scale(0.100000,-0.100000)"
fill="#000000" stroke="none">
<path d="M5763 10870 c-50 -20 -27 -38 102 -80 55 -18 145 -56 200 -84 80 -41
116 -66 181 -131 44 -44 102 -113 128 -153 27 -41 55 -76 62 -79 20 -8 38 10
120 119 41 53 94 114 119 135 90 76 210 139 345 183 178 58 193 82 61 96 -127
13 -310 -44 -431 -135 -62 -46 -144 -145 -171 -204 -7 -15 -15 -27 -19 -27 -4
0 -23 26 -43 58 -39 63 -101 132 -157 174 -59 44 -191 105 -267 122 -78 17
-194 20 -230 6z"/>
<path d="M6981 10620 c-86 -13 -191 -57 -261 -109 -79 -57 -178 -177 -226
-272 -19 -38 -38 -69 -42 -69 -4 0 -18 22 -31 50 -28 60 -99 159 -155 218
-120 126 -320 198 -477 173 -120 -20 -254 -77 -384 -167 l-69 -47 -104 107
c-57 59 -105 106 -107 104 -1 -2 -24 -67 -50 -145 l-48 -141 -46 -7 c-76 -11
-221 -62 -297 -104 -168 -94 -283 -290 -284 -483 0 -83 19 -203 45 -285 12
-40 20 -73 16 -73 -5 0 -33 9 -63 19 -139 48 -336 53 -456 12 -87 -30 -183
-92 -237 -154 -83 -95 -151 -256 -177 -415 l-12 -82 -152 -2 -151 -3 65 -135
c48 -102 61 -139 53 -150 -110 -160 -171 -322 -171 -455 0 -227 145 -435 394
-566 l69 -37 -54 -27 c-84 -43 -169 -107 -241 -183 -214 -227 -208 -522 15
-841 l46 -65 -111 -105 -110 -106 145 -49 145 -50 21 -88 c69 -295 211 -461
446 -523 107 -28 282 -17 413 26 35 12 66 19 68 16 3 -3 -4 -35 -15 -72 -28
-91 -43 -259 -31 -346 18 -127 89 -262 179 -340 92 -80 277 -153 465 -184 l38
-6 -7 -150 c-4 -82 -4 -149 -1 -149 3 0 66 30 139 66 l133 66 71 -46 c145 -93
270 -136 400 -136 231 0 430 138 563 392 l38 71 32 -64 c36 -70 127 -189 192
-247 97 -89 233 -143 363 -144 136 -2 278 49 440 157 46 30 87 54 92 54 4 -1
51 -48 103 -104 52 -56 97 -103 100 -104 3 0 27 63 53 142 l47 142 112 27
c157 39 266 94 349 177 164 164 208 395 127 669 -11 40 -19 75 -16 77 3 3 30
-4 61 -14 76 -27 235 -45 322 -38 197 17 370 135 455 311 45 94 88 235 97 319
l6 58 153 -7 c85 -4 154 -4 154 -1 0 4 -30 67 -67 140 l-66 134 30 44 c89 129
143 271 150 394 9 168 -46 313 -168 436 -66 67 -184 152 -247 178 -18 8 -32
16 -32 20 0 3 24 19 53 34 134 70 271 200 324 309 106 214 76 431 -92 683
l-63 94 111 104 111 104 -141 47 c-78 26 -146 53 -151 59 -5 7 -12 32 -16 57
-12 75 -65 221 -106 291 -73 123 -201 217 -345 254 -110 28 -278 17 -413 -27
-35 -11 -66 -18 -68 -15 -3 3 4 35 15 71 30 97 45 265 31 351 -36 228 -182
387 -428 468 -59 19 -140 41 -181 47 l-74 12 7 149 c4 82 5 149 2 149 -2 0
-65 -29 -139 -65 l-134 -66 -59 39 c-169 113 -342 163 -483 142z m124 -114
c115 -27 277 -113 283 -150 5 -27 91 -249 101 -259 14 -14 281 4 297 21 20 20
101 9 224 -30 238 -75 355 -199 396 -418 16 -83 15 -236 -2 -331 l-6 -36 58
10 c33 5 113 10 179 10 196 2 314 -40 426 -152 59 -59 70 -77 107 -171 46
-118 63 -184 52 -197 -4 -4 -34 -66 -65 -138 l-58 -129 59 -54 c120 -110 162
-142 176 -137 34 13 177 -240 204 -363 49 -220 -53 -428 -299 -612 -25 -19
-46 -37 -46 -40 0 -3 21 -20 47 -38 66 -45 164 -138 207 -196 125 -169 148
-339 69 -522 -71 -166 -66 -161 -231 -224 l-146 -55 7 -145 c5 -111 10 -148
22 -156 13 -10 13 -22 3 -80 -17 -104 -64 -242 -104 -309 -51 -85 -109 -141
-187 -180 -107 -53 -197 -69 -352 -62 -72 4 -144 9 -160 13 -27 7 -28 6 -15
-17 10 -18 14 -71 14 -199 0 -146 -3 -184 -19 -230 -33 -95 -67 -152 -127
-212 -64 -64 -127 -98 -269 -142 l-85 -27 -35 19 c-19 11 -83 41 -143 67
l-107 48 -39 -44 c-136 -156 -160 -186 -150 -196 14 -14 -118 -104 -224 -153
-107 -50 -175 -64 -280 -58 -77 4 -96 9 -174 48 -73 36 -104 59 -183 139 -52
53 -108 113 -124 134 l-28 39 -33 -49 c-96 -142 -249 -265 -378 -305 -91 -28
-200 -29 -277 -4 -80 27 -248 115 -246 129 0 7 -21 72 -49 146 l-50 133 -145
-7 c-114 -5 -148 -10 -157 -22 -11 -14 -22 -15 -85 -4 -100 16 -240 65 -308
106 -171 104 -250 287 -236 545 3 63 9 131 13 150 5 32 5 34 -11 21 -28 -23
-311 -28 -400 -7 -176 42 -298 152 -363 330 -30 83 -53 170 -45 175 17 13 125
272 116 280 -116 109 -218 190 -229 181 -26 -22 -167 224 -199 347 -31 119
-15 241 47 356 36 69 153 197 239 264 l59 45 -43 30 c-152 109 -272 261 -313
395 -22 72 -19 201 6 276 32 96 108 237 128 237 9 0 73 22 141 48 92 35 126
53 129 67 2 10 0 79 -4 152 -5 104 -10 133 -21 133 -17 0 -17 10 0 102 33 169
100 312 185 391 116 107 236 142 456 134 77 -3 151 -9 164 -13 20 -6 22 -5 13
12 -27 52 -32 294 -8 398 47 202 167 319 398 391 l86 27 64 -30 c162 -78 223
-101 235 -90 7 6 52 55 99 109 54 62 84 105 80 114 -11 31 213 164 340 201
202 59 410 -25 590 -239 41 -48 74 -92 74 -97 0 -6 5 -10 10 -10 6 0 10 5 10
11 0 5 24 40 54 78 181 227 389 324 591 277z"/>
<path d="M6878 10439 c-108 -25 -218 -112 -260 -204 -32 -69 -33 -209 -2 -276
67 -145 217 -207 349 -145 119 55 160 185 90 286 -71 102 -228 68 -228 -50 0
-36 28 -70 57 -69 15 0 17 2 6 6 -45 18 -52 72 -14 102 36 28 79 27 109 -3 33
-33 41 -72 24 -120 -37 -108 -215 -114 -283 -9 -53 82 -57 172 -12 262 30 58
71 95 146 130 48 23 68 26 160 26 97 0 110 -2 170 -31 36 -17 87 -51 114 -75
50 -44 50 -44 30 -10 -27 47 -114 124 -168 149 -85 40 -198 52 -288 31z"/>
<path d="M5827 10430 c-104 -27 -213 -106 -261 -191 -19 -33 -18 -33 31 13
135 125 309 152 468 74 63 -31 82 -46 110 -89 47 -71 61 -141 42 -207 -30
-101 -96 -160 -181 -160 -76 0 -146 61 -146 127 0 42 34 90 68 97 66 15 121
-39 88 -89 -9 -14 -26 -25 -38 -25 -17 0 -19 -3 -10 -12 18 -18 59 6 79 46 15
32 15 37 -1 70 -45 94 -188 85 -238 -14 -11 -21 -18 -58 -18 -91 0 -115 95
-199 226 -199 75 0 122 18 179 71 64 59 89 124 90 234 0 79 -3 97 -28 147 -35
72 -116 146 -193 177 -66 26 -202 37 -267 21z"/>
<path d="M4833 10060 c-188 -44 -337 -245 -320 -430 15 -165 145 -296 307
-308 111 -8 198 44 246 145 48 103 20 209 -69 263 -101 62 -219 3 -219 -109 0
-61 87 -118 121 -78 8 11 5 13 -18 9 -41 -6 -73 36 -60 81 12 42 34 57 82 57
31 0 46 -7 73 -34 28 -28 34 -42 34 -75 0 -51 -19 -90 -60 -125 -81 -68 -199
-50 -282 42 -102 113 -87 289 39 423 72 77 190 128 303 130 37 1 41 2 20 9
-32 10 -155 10 -197 0z"/>
<path d="M7855 10003 c-47 -12 -31 -21 47 -25 114 -6 187 -40 266 -122 123
-128 142 -302 46 -414 -83 -98 -200 -116 -285 -45 -94 80 -72 215 38 230 35 5
45 2 67 -20 59 -60 6 -144 -67 -106 -22 12 -22 12 -3 -10 24 -26 75 -28 106
-3 16 13 24 32 28 70 4 50 3 53 -36 92 -36 37 -44 40 -93 40 -81 0 -130 -34
-169 -115 -26 -53 -25 -100 4 -160 49 -103 134 -159 242 -158 208 2 368 224
309 429 -37 131 -121 230 -241 286 -54 25 -80 31 -152 34 -48 2 -96 0 -107 -3z"/>
<path d="M6305 9764 c-368 -22 -687 -109 -1002 -274 -711 -372 -1192 -1084
-1273 -1884 -16 -148 -8 -462 15 -606 79 -509 321 -979 691 -1342 129 -128
211 -194 359 -293 271 -181 587 -307 915 -365 156 -28 484 -38 652 -21 862 89
1615 645 1959 1447 206 483 246 1039 110 1560 -228 871 -957 1555 -1846 1733
-171 34 -427 54 -580 45z m444 -169 c910 -141 1637 -809 1856 -1703 61 -250
78 -586 41 -837 -59 -405 -227 -792 -480 -1105 -78 -97 -252 -271 -341 -341
-183 -145 -458 -299 -659 -369 -475 -164 -982 -169 -1454 -14 -677 223 -1217
765 -1439 1444 -73 223 -107 441 -107 690 0 269 28 449 110 708 52 161 160
388 251 527 376 571 979 939 1663 1014 119 13 434 5 559 -14z"/>
<path d="M6165 9469 c-734 -92 -1371 -559 -1673 -1223 -367 -808 -197 -1748
429 -2375 319 -319 698 -514 1164 -597 155 -28 519 -26 682 4 439 80 824 278
1129 580 394 391 611 883 631 1432 12 334 -46 637 -181 940 -305 682 -956
1156 -1701 1240 -107 12 -381 11 -480 -1z m550 -45 c543 -79 1045 -379 1370
-819 265 -359 405 -784 405 -1235 0 -465 -141 -888 -419 -1260 -70 -94 -232
-263 -331 -345 -290 -242 -664 -407 -1041 -460 -150 -21 -419 -21 -568 0 -835
117 -1525 735 -1730 1550 -97 388 -79 827 49 1190 169 477 475 851 908 1111
256 154 582 259 880 284 132 10 344 4 477 -16z"/>
<path d="M7454 9055 c-4 -9 -1 -29 6 -45 30 -73 -7 -228 -74 -307 -90 -107
-333 -130 -606 -57 -52 13 -137 36 -188 49 -270 71 -527 52 -751 -55 -145 -70
-297 -191 -348 -277 -14 -24 -26 -43 -28 -43 -2 0 -16 5 -32 11 -43 17 -192
42 -252 43 -48 1 -56 -2 -75 -27 -18 -24 -19 -29 -6 -38 8 -5 24 -7 35 -4 50
14 203 15 255 2 62 -15 62 -14 31 -99 -30 -81 -29 -186 3 -253 27 -59 64 -87
118 -89 30 0 44 6 70 32 32 31 33 36 36 122 4 77 1 96 -20 142 -14 29 -39 68
-57 86 l-33 33 73 72 c131 128 280 187 486 190 61 1 114 0 117 -4 3 -3 -3 -48
-13 -100 -10 -51 -24 -148 -31 -214 -25 -227 -34 -280 -50 -276 -8 2 -58 4
-110 3 -166 0 -287 -56 -340 -155 -29 -54 -22 -80 23 -85 22 -3 31 4 53 40 48
79 116 108 254 108 142 0 132 36 88 -308 -53 -423 -66 -501 -94 -599 -47 -163
-100 -233 -182 -241 -141 -13 -242 99 -242 267 0 56 3 70 18 76 9 4 75 27 145
51 154 53 238 94 266 130 75 95 -6 214 -145 214 -124 0 -252 -97 -320 -245
-19 -40 -34 -83 -34 -94 0 -15 -20 -30 -79 -61 -110 -58 -202 -144 -242 -227
-29 -60 -31 -72 -27 -142 3 -42 12 -90 21 -107 38 -72 150 -71 149 2 0 16 -4
71 -8 121 -8 104 6 157 54 215 26 31 99 88 112 88 4 0 10 -31 13 -68 11 -137
99 -263 220 -318 78 -35 183 -37 265 -6 34 13 65 18 91 15 21 -3 76 2 122 12
161 32 312 94 479 195 47 28 89 52 93 53 9 2 49 -95 102 -247 78 -220 107
-411 81 -536 -40 -192 -165 -301 -345 -300 -92 1 -166 32 -204 87 -24 33 -31
55 -35 111 -2 39 -1 95 2 125 8 65 -3 59 180 82 261 32 329 67 329 169 0 136
-181 193 -348 109 -65 -33 -166 -136 -196 -201 -13 -28 -30 -51 -37 -52 -37
-1 -182 -58 -237 -94 -114 -74 -175 -173 -175 -286 0 -88 76 -155 133 -117 22
14 25 25 30 109 9 146 51 221 155 276 33 18 64 32 68 32 5 0 9 -48 10 -108 0
-85 5 -118 22 -163 45 -114 124 -186 252 -229 54 -18 79 -21 145 -17 216 15
389 121 468 288 53 112 62 164 61 339 -1 195 -19 284 -120 594 l-75 228 143
147 c150 153 208 237 208 301 0 109 -117 174 -270 151 -194 -30 -298 -114
-356 -286 -33 -101 -43 -257 -22 -358 l15 -68 -56 -35 c-163 -101 -410 -204
-530 -220 l-54 -7 21 29 c66 91 127 365 182 814 16 133 31 244 33 246 5 6 167
-12 173 -19 3 -3 -13 -68 -35 -145 -23 -77 -41 -147 -41 -156 0 -9 12 -23 26
-32 24 -16 26 -16 44 2 10 10 25 46 35 79 9 33 30 104 46 158 l30 97 48 0
c136 0 233 84 233 201 0 57 -34 111 -86 136 -77 36 -178 -41 -232 -177 -15
-39 -32 -70 -38 -70 -18 0 -191 22 -194 24 -3 4 56 481 69 554 9 50 15 62 28
58 9 -3 77 -17 151 -33 116 -24 159 -28 300 -28 143 0 174 3 235 22 154 49
291 159 346 278 34 72 48 188 35 279 -6 40 -10 46 -32 46 -14 0 -27 -7 -30
-15z m-1848 -941 c19 -67 14 -149 -11 -188 -23 -35 -73 -36 -105 -2 -47 51
-45 150 5 262 l26 59 34 -37 c21 -22 41 -59 51 -94z m1200 -119 c10 -39 -4
-74 -37 -94 -32 -20 -97 -36 -106 -27 -9 9 51 127 75 146 29 24 58 13 68 -25z
m450 -478 c22 -19 26 -29 20 -50 -12 -50 -248 -299 -266 -281 -17 17 -30 157
-19 200 30 119 188 197 265 131z m-1314 -154 c37 -33 14 -89 -50 -122 -20 -10
-90 -38 -156 -61 -65 -23 -125 -44 -132 -47 -22 -8 11 72 52 126 82 108 224
160 286 104z m842 -934 c43 -34 30 -90 -27 -114 -18 -7 -95 -23 -172 -34 -77
-12 -148 -24 -157 -27 -26 -8 -22 8 16 58 68 89 157 137 252 138 47 0 67 -5
88 -21z"/>
<path d="M4066 9299 c-188 -66 -313 -258 -291 -449 9 -80 25 -99 25 -30 0 212
157 392 354 407 105 9 204 -47 250 -139 42 -83 33 -154 -26 -215 -60 -62 -141
-68 -194 -12 -69 72 -10 177 81 143 24 -10 37 -51 24 -77 -9 -20 -8 -20 11 2
41 48 -6 123 -77 125 -69 1 -133 -62 -133 -132 0 -38 23 -98 48 -125 71 -79
219 -74 309 11 111 104 104 294 -17 411 -97 94 -238 125 -364 80z"/>
<path d="M8599 9257 c-185 -69 -280 -270 -202 -426 39 -80 130 -139 217 -140
173 -4 257 236 107 303 -33 15 -45 16 -75 6 -54 -18 -79 -65 -60 -114 11 -28
20 -17 16 18 -3 28 1 37 22 51 47 31 116 -9 116 -67 0 -104 -118 -150 -208
-82 -69 53 -89 141 -51 224 99 219 411 196 557 -42 32 -51 54 -133 56 -200 2
-96 21 -46 21 55 0 129 -27 198 -113 289 -89 94 -165 131 -282 135 -55 2 -98
-2 -121 -10z"/>
<path d="M3513 8281 c-93 -68 -153 -165 -173 -283 -30 -173 58 -357 205 -428
69 -34 207 -36 276 -4 168 78 220 261 116 408 -46 65 -166 86 -243 41 -93 -55
-94 -191 -1 -230 50 -21 118 16 117 65 -1 9 -7 4 -15 -11 -39 -73 -138 -21
-120 62 9 39 38 61 87 66 53 5 85 -11 116 -57 33 -49 28 -142 -11 -193 -102
-134 -335 -97 -419 67 -82 160 -57 336 67 474 26 29 45 52 42 52 -2 0 -22 -13
-44 -29z"/>
<path d="M9301 8181 c143 -164 153 -386 24 -539 -69 -82 -206 -106 -306 -54
-75 39 -101 85 -96 170 3 54 7 67 34 94 24 24 42 32 81 36 44 4 54 1 76 -21
32 -32 36 -95 8 -120 -35 -32 -87 -16 -105 33 -3 9 -6 4 -6 -12 -1 -30 20 -55
57 -69 37 -14 92 17 116 65 17 35 18 45 7 85 -16 61 -44 88 -108 107 -209 61
-348 -222 -191 -392 108 -117 299 -136 435 -43 76 53 134 152 154 264 28 163
-51 340 -191 428 -35 21 -34 21 11 -32z"/>
<path d="M3573 7250 c-115 -46 -200 -162 -225 -307 -21 -128 20 -260 111 -356
45 -47 111 -96 111 -83 0 3 -18 24 -40 47 -84 87 -130 227 -111 345 26 169
132 276 272 276 132 0 219 -72 219 -182 0 -85 -42 -137 -118 -147 -31 -4 -44
0 -70 22 -25 21 -32 34 -32 63 1 48 20 72 56 72 37 0 50 -9 63 -40 9 -24 10
-24 10 -3 1 35 -9 53 -41 69 -89 46 -174 -60 -132 -165 39 -99 199 -123 287
-43 41 37 71 114 71 182 0 105 -52 186 -151 235 -79 39 -202 45 -280 15z"/>
<path d="M9028 7173 c-79 -30 -133 -75 -163 -137 -24 -48 -27 -65 -24 -128 3
-60 10 -82 34 -121 61 -98 191 -126 273 -60 87 70 71 206 -28 228 -32 7 -84
-15 -94 -40 -12 -33 -5 -37 19 -11 28 31 54 33 86 7 51 -41 15 -133 -57 -147
-44 -8 -103 21 -127 63 -22 39 -24 120 -4 159 37 71 107 108 202 109 59 0 78
-5 124 -30 61 -34 89 -67 126 -148 64 -139 35 -306 -78 -441 l-41 -50 33 20
c18 10 52 40 76 66 181 201 132 531 -97 649 -59 31 -193 37 -260 12z"/>
<path d="M4128 6020 c-59 -32 -91 -82 -96 -151 -4 -58 -3 -60 35 -98 22 -22
51 -43 66 -46 36 -9 99 23 111 56 10 29 1 79 -14 79 -5 0 -7 -7 -4 -15 10 -26
-5 -61 -31 -73 -35 -16 -39 -16 -74 14 -73 61 -13 174 91 174 66 0 145 -76
155 -148 11 -79 -46 -183 -123 -228 -66 -39 -167 -44 -247 -14 -151 57 -257
208 -261 372 -1 71 -16 60 -23 -18 -11 -120 27 -229 109 -319 94 -103 206
-151 329 -143 86 7 150 37 216 104 114 117 125 291 25 398 -65 70 -188 96
-264 56z"/>
<path d="M8483 5981 c-78 -27 -121 -65 -156 -138 -26 -56 -29 -72 -24 -124 10
-114 87 -220 203 -279 42 -21 62 -25 139 -25 82 1 97 4 160 35 166 80 270 258
249 428 -9 81 -23 100 -24 32 0 -121 -45 -224 -131 -305 -74 -70 -147 -100
-239 -100 -64 0 -83 4 -128 29 -120 67 -166 198 -103 297 47 75 132 100 198
59 89 -54 48 -191 -50 -166 -32 8 -51 50 -35 79 10 20 10 21 -5 9 -25 -21 -29
-48 -12 -81 39 -77 145 -71 195 12 55 90 -14 219 -130 246 -56 13 -45 14 -107
-8z"/>
<path d="M4694 5460 c-119 -39 -217 -161 -230 -288 -7 -63 12 -155 45 -221 37
-72 117 -148 199 -188 72 -36 80 -38 178 -38 69 0 107 4 115 13 10 10 1 12
-46 12 -204 1 -370 143 -400 342 -20 135 105 288 236 288 83 0 168 -80 169
-158 0 -96 -105 -158 -165 -97 -58 57 -5 142 65 105 15 -8 18 -7 14 3 -10 28
-52 38 -89 23 -39 -17 -55 -42 -55 -88 0 -45 19 -78 60 -106 69 -47 183 -13
229 68 43 77 36 151 -22 236 -65 95 -185 133 -303 94z"/>
<path d="M7885 5386 c-155 -73 -194 -269 -75 -370 17 -14 44 -29 58 -32 15 -3
32 -7 39 -9 26 -8 83 18 112 51 53 60 36 155 -30 169 -31 7 -69 -1 -69 -15 0
-5 7 -7 15 -4 26 10 61 -5 73 -31 16 -35 16 -39 -14 -74 -44 -53 -124 -38
-159 29 -58 112 68 244 200 211 212 -53 260 -315 92 -498 -71 -77 -197 -131
-312 -134 l-40 -1 35 -10 c19 -6 72 -8 117 -5 110 8 178 40 264 126 96 97 137
202 126 323 -19 209 -254 358 -432 274z"/>
<path d="M6727 4949 c-82 -19 -140 -68 -185 -153 -23 -45 -26 -63 -27 -146 0
-84 3 -102 28 -151 89 -182 345 -261 543 -168 56 27 145 106 174 157 l22 37
-34 -31 c-103 -97 -211 -140 -332 -132 -228 15 -370 208 -285 389 39 83 114
122 203 105 109 -21 143 -176 46 -216 -28 -12 -36 -11 -65 4 -18 10 -36 27
-38 38 -8 30 9 64 34 71 13 4 20 9 17 12 -14 14 -58 -9 -72 -39 -48 -102 87
-188 190 -121 59 38 80 153 44 232 -23 51 -88 97 -161 112 -56 12 -50 12 -102
0z"/>
<path d="M5882 4927 c-18 -5 -52 -27 -76 -48 -143 -126 -26 -372 139 -293 40
19 68 72 59 109 -6 25 -47 65 -67 65 -5 0 2 -11 17 -25 33 -30 33 -59 1 -90
-55 -56 -145 -5 -145 82 0 41 35 92 75 109 81 33 169 8 217 -61 130 -190 -31
-425 -292 -425 -106 0 -206 41 -293 119 l-41 36 20 -34 c26 -45 107 -117 166
-147 192 -97 456 -18 545 165 24 49 28 68 28 146 0 102 -18 153 -76 220 -65
73 -180 104 -277 72z"/>
<path d="M4445 10352 c-58 -36 -144 -141 -184 -225 -72 -151 -88 -281 -52
-429 10 -43 17 -78 16 -78 -2 0 -38 7 -81 16 -159 33 -339 1 -487 -87 -76 -45
-171 -133 -182 -170 -15 -47 11 -43 142 19 258 124 383 143 621 95 61 -12 86
-13 94 -5 13 13 12 78 -3 186 -26 177 7 343 107 539 76 149 78 181 9 139z"/>
<path d="M8396 10304 c-4 -10 16 -64 48 -130 91 -187 133 -351 121 -463 -3
-31 -13 -100 -22 -154 -14 -85 -14 -100 -2 -108 15 -11 96 -7 226 11 151 20
325 -23 527 -129 54 -28 102 -48 107 -45 24 14 4 51 -63 119 -80 79 -189 140
-303 170 -79 20 -213 18 -300 -5 -38 -10 -71 -17 -72 -16 -1 1 5 29 14 61 27
98 21 251 -12 355 -42 131 -110 237 -200 311 -53 44 -60 46 -69 23z"/>
<path d="M2915 8089 c-12 -56 -8 -172 10 -239 9 -36 35 -103 57 -150 48 -101
148 -206 241 -256 l59 -31 -71 -47 c-148 -99 -252 -250 -291 -427 -17 -71 -20
-111 -16 -164 11 -125 37 -113 91 43 91 263 178 382 371 513 41 27 74 56 74
64 0 18 -25 42 -115 110 -170 129 -250 248 -330 490 -43 129 -67 156 -80 94z"/>
<path d="M9872 8016 c-6 -14 -23 -60 -37 -103 -83 -247 -186 -389 -364 -503
-107 -69 -105 -79 29 -179 95 -70 134 -109 193 -193 59 -83 106 -183 146 -315
18 -56 37 -105 43 -109 42 -26 53 157 17 286 -44 160 -134 284 -272 374 l-75
49 74 49 c159 107 260 268 296 475 21 124 -15 246 -50 169z"/>
<path d="M3424 5435 c-8 -20 27 -75 79 -122 57 -53 167 -116 247 -144 94 -32
241 -36 340 -11 41 11 76 19 77 18 1 0 -6 -26 -14 -56 -10 -34 -16 -97 -16
-165 0 -93 4 -123 27 -195 15 -47 48 -118 73 -158 46 -74 133 -167 166 -178
44 -14 40 14 -21 143 -115 243 -139 390 -98 600 25 125 24 127 -72 119 -42 -3
-121 -9 -176 -12 -166 -11 -307 23 -472 112 -111 60 -133 67 -140 49z"/>
<path d="M9200 5326 c-183 -86 -275 -111 -410 -110 -59 1 -142 8 -188 18 -118
25 -117 26 -106 -92 25 -289 5 -414 -102 -626 -71 -142 -73 -166 -8 -131 92
50 206 230 240 381 19 88 15 206 -10 289 -8 27 -14 51 -12 53 2 1 44 -4 92
-14 220 -41 454 34 608 196 53 56 67 88 41 97 -5 1 -71 -26 -145 -61z"/>
<path d="M6334 4347 c-21 -24 -66 -79 -98 -121 -97 -126 -228 -208 -445 -280
-69 -23 -126 -47 -128 -53 -7 -21 40 -36 121 -37 100 0 167 15 274 65 130 60
190 113 268 237 l47 73 30 -53 c16 -29 64 -87 106 -129 95 -94 213 -157 342
-184 93 -19 211 -17 231 3 19 19 -7 36 -112 72 -265 91 -380 175 -518 375 -27
38 -55 71 -63 73 -9 2 -33 -17 -55 -41z"/>
<path d="M2570 3848 c-59 -29 -163 -134 -223 -225 -94 -141 -187 -353 -255
-580 -22 -73 -65 -183 -95 -245 -135 -278 -238 -378 -312 -303 -21 20 -25 33
-25 88 0 52 14 107 75 298 41 129 75 243 75 255 0 29 -19 44 -56 44 -54 0 -71
-24 -123 -182 -59 -178 -120 -287 -212 -380 -98 -99 -151 -104 -157 -14 -6 85
70 270 165 403 51 73 71 86 118 77 47 -8 48 18 3 46 -42 25 -71 25 -125 -1
-134 -65 -283 -400 -243 -549 17 -62 40 -80 103 -80 73 0 129 31 195 109 l54
63 -7 -46 c-12 -81 2 -153 39 -194 28 -30 40 -36 88 -40 42 -3 64 1 95 16 56
29 139 123 200 228 29 49 57 96 62 104 5 9 6 -2 0 -30 -4 -25 -8 -81 -8 -125
-1 -88 22 -155 57 -174 36 -19 95 -13 131 14 41 30 100 106 125 164 20 43 20
43 62 36 64 -9 115 9 175 63 29 26 50 40 47 31 -12 -31 -21 -177 -14 -223 10
-66 47 -106 97 -106 22 0 52 6 67 14 42 22 105 93 161 181 46 72 51 77 51 50
0 -51 19 -102 45 -119 30 -20 104 -21 149 -2 35 15 96 70 138 125 l26 34 -5
-69 c-11 -145 36 -214 144 -214 87 0 174 74 271 231 44 70 49 75 57 56 14 -31
52 -33 82 -5 13 13 92 129 175 258 164 257 194 300 209 300 18 0 8 -35 -78
-289 -77 -226 -87 -266 -91 -342 -7 -144 39 -209 147 -209 82 0 166 69 260
214 l51 79 0 -39 c0 -101 36 -144 120 -144 58 0 107 29 176 103 l61 64 -5 -78
c-6 -96 19 -158 72 -183 138 -65 272 57 446 407 77 155 116 203 194 242 63 31
116 32 182 1 65 -30 71 -41 33 -56 -88 -37 -76 -165 14 -139 46 13 59 32 65
88 4 44 8 51 26 51 75 0 402 33 449 45 115 30 211 95 248 166 52 103 -3 249
-104 274 -62 16 -137 -34 -137 -90 0 -63 83 -130 129 -105 24 12 28 42 8 59
-8 6 -31 10 -51 8 -48 -3 -67 20 -47 57 32 58 115 50 162 -15 19 -28 24 -46
24 -100 0 -56 -4 -71 -27 -101 -15 -19 -49 -49 -75 -66 -85 -54 -152 -70 -374
-87 -112 -8 -212 -18 -222 -21 -11 -3 -32 7 -58 29 -49 43 -113 61 -183 54
-123 -12 -192 -81 -295 -292 -132 -273 -231 -380 -306 -331 -14 9 -29 33 -35
55 -14 54 2 127 84 382 36 113 66 210 66 216 0 37 -77 58 -112 31 -9 -7 -40
-82 -69 -166 -53 -157 -118 -283 -188 -364 -78 -91 -161 -125 -181 -74 -25 67
50 279 150 426 57 83 81 102 125 98 50 -4 56 16 13 42 -42 25 -78 25 -127 0
-69 -35 -126 -113 -221 -305 -155 -310 -250 -406 -327 -329 -24 24 -25 30 -20
102 4 60 24 135 92 347 49 150 88 287 88 309 0 47 -31 75 -83 76 -65 0 -92
-28 -240 -250 -77 -116 -140 -208 -140 -205 0 3 16 52 36 110 20 58 34 111 30
120 -7 19 -85 21 -109 3 -9 -7 -44 -94 -77 -192 -99 -294 -221 -465 -314 -442
-39 10 -58 46 -57 114 0 53 63 276 135 481 9 24 16 52 16 62 0 45 -68 65 -109
32 -12 -11 -37 -66 -61 -138 -54 -160 -65 -186 -126 -285 -73 -118 -161 -200
-215 -200 -31 0 -39 15 -39 74 0 85 86 287 170 401 46 63 67 76 111 73 44 -4
48 17 7 42 -46 28 -86 25 -140 -9 -64 -41 -117 -116 -188 -266 -102 -214 -199
-365 -255 -395 -82 -44 -72 119 25 426 65 203 64 254 -2 254 -56 0 -65 -13
-109 -153 -47 -151 -57 -172 -111 -244 -51 -67 -112 -99 -166 -86 -21 6 -36
15 -34 22 1 7 14 52 28 100 17 54 28 122 31 183 5 94 5 97 -20 122 -32 31 -46
32 -81 5 -80 -63 -107 -247 -55 -368 l19 -44 -42 -80 c-44 -82 -86 -126 -108
-112 -9 6 -11 29 -7 84 6 83 27 167 89 366 40 128 42 130 123 225 223 260 385
520 385 618 0 85 -61 114 -150 70z m90 -81 c0 -66 -112 -258 -272 -464 -44
-57 -81 -103 -83 -103 -4 0 54 163 92 260 74 188 180 340 237 340 23 0 26 -4
26 -33z m-317 -769 c6 -22 -14 -154 -34 -223 l-12 -40 -9 35 c-15 55 -6 191
15 223 21 33 33 34 40 5z m3527 -49 c0 -48 -56 -89 -77 -56 -15 24 -11 37 24
67 39 35 53 32 53 -11z"/>
<path d="M1766 3668 c-2 -7 -7 -32 -9 -55 -8 -65 -51 -131 -100 -154 -90 -40
-207 -19 -392 71 -172 84 -246 104 -375 104 -141 0 -260 -39 -364 -118 l-49
-38 -81 36 c-90 40 -108 43 -126 21 -18 -22 -7 -28 63 -36 34 -3 79 -13 99
-22 l38 -16 -30 -56 c-42 -79 -42 -145 -1 -186 35 -35 60 -37 89 -6 41 44 47
159 10 204 -16 20 -3 39 46 68 88 52 213 68 326 44 42 -9 50 -14 44 -27 -4
-10 -32 -88 -62 -175 -45 -129 -58 -157 -71 -152 -67 26 -177 27 -226 3 -34
-18 -65 -51 -65 -70 0 -28 30 -35 49 -11 24 31 54 43 106 43 39 0 135 -17 135
-25 0 -1 -33 -101 -74 -222 -109 -323 -166 -423 -240 -423 -38 0 -95 35 -114
70 -13 25 -13 143 1 156 4 4 51 13 104 21 123 17 158 28 183 60 27 35 25 57
-7 93 -33 37 -87 48 -150 31 -48 -13 -133 -85 -155 -132 -13 -25 -28 -35 -80
-53 -115 -38 -184 -108 -195 -195 -5 -45 -3 -55 17 -76 45 -48 80 -26 80 50 1
86 47 157 118 179 21 7 22 5 22 -56 0 -39 7 -78 19 -103 19 -43 78 -100 118
-116 37 -14 130 -11 162 5 36 19 95 85 120 134 29 58 111 270 156 403 l38 116
44 -13 c24 -7 48 -16 53 -19 5 -3 -11 -43 -36 -89 -42 -80 -49 -116 -19 -116
17 0 36 26 75 100 45 88 48 92 81 85 43 -10 97 5 129 35 24 22 30 36 30 69 0
49 -34 91 -73 91 -33 0 -87 -39 -116 -83 -13 -20 -32 -37 -41 -37 -17 0 -110
30 -110 35 0 5 120 348 122 350 2 2 46 -15 98 -36 142 -57 211 -72 305 -67
145 8 267 89 294 197 16 60 17 114 4 118 -7 3 -15 -1 -17 -9z m-1241 -278 c22
-43 20 -122 -6 -154 -24 -30 -36 -32 -61 -9 -27 25 -23 80 12 141 17 28 32 52
35 52 2 0 11 -13 20 -30z m725 -281 c0 -4 -8 -17 -18 -29 -14 -17 -26 -21 -57
-18 l-39 3 43 45 c41 43 43 44 57 26 8 -11 14 -23 14 -27z m-612 -255 c54 -38
12 -72 -114 -90 -53 -8 -99 -13 -101 -10 -9 9 29 55 66 79 59 39 112 47 149
21z"/>
<path d="M7497 3622 c-59 -21 -112 -63 -133 -105 -40 -76 -55 -202 -35 -274 8
-29 6 -35 -15 -52 -72 -57 -252 -130 -357 -146 -26 -4 -49 -11 -52 -15 -10
-17 8 -40 32 -40 73 0 291 81 372 139 16 12 33 21 38 21 10 0 63 -143 92 -250
41 -150 25 -283 -42 -348 -85 -82 -226 -83 -277 0 -23 38 -28 134 -7 160 8 11
44 20 112 28 148 18 185 38 187 101 1 24 -7 39 -31 61 -38 34 -103 38 -167 9
-46 -21 -117 -90 -134 -130 -8 -20 -24 -30 -68 -43 -123 -36 -202 -120 -202
-214 0 -34 5 -47 26 -63 30 -24 33 -24 54 -11 9 5 16 34 21 79 7 82 36 129 99
161 l38 19 0 -68 c-1 -83 27 -147 86 -197 50 -43 103 -58 187 -52 125 9 226
77 278 187 24 51 26 67 26 186 0 142 -7 178 -76 386 l-40 121 89 92 c95 99
123 140 124 186 2 78 -109 113 -225 72z m153 -87 c10 -12 10 -22 2 -39 -16
-36 -144 -168 -153 -159 -5 5 -11 33 -15 63 -5 48 -3 60 18 90 13 19 35 40 48
47 34 17 85 16 100 -2z m-290 -665 c26 -26 25 -36 -4 -55 -23 -15 -198 -49
-217 -43 -17 6 50 76 93 97 54 27 102 27 128 1z"/>
<path d="M9414 3611 c-44 -20 -78 -57 -99 -108 -51 -122 -9 -225 108 -262 20
-7 37 -17 37 -22 0 -28 -166 -423 -213 -509 -84 -151 -164 -240 -216 -240 -47
0 -73 29 -79 88 -6 62 1 92 84 347 66 205 73 242 52 263 -18 18 -76 14 -97 -7
-10 -10 -38 -76 -61 -147 -50 -151 -89 -232 -159 -332 -79 -110 -171 -168
-209 -130 -51 51 70 364 192 496 37 41 43 43 78 38 33 -5 38 -4 38 14 0 12
-12 26 -30 35 -103 53 -207 -35 -328 -278 -106 -212 -175 -289 -259 -289 -55
0 -58 13 -17 80 107 181 127 401 40 457 -73 48 -180 -68 -206 -225 -14 -83 -1
-174 37 -247 l27 -54 -39 -39 c-44 -46 -108 -80 -148 -80 -42 0 -80 65 -85
145 -7 105 41 224 160 402 26 40 48 76 48 81 0 12 -25 22 -55 22 -35 0 -135
-97 -183 -178 -71 -116 -95 -193 -96 -302 -1 -82 2 -102 24 -145 65 -131 240
-128 365 6 l46 49 41 -11 c33 -8 49 -8 83 6 41 15 117 86 157 145 17 25 17 24
17 -48 1 -68 3 -76 30 -103 25 -24 37 -29 81 -29 68 0 115 26 182 100 l55 60
0 -82 c-1 -96 16 -138 66 -168 39 -24 107 -26 153 -4 118 56 267 299 425 691
l53 132 52 6 c28 4 60 5 70 3 29 -5 29 -51 0 -132 -87 -246 -99 -448 -34 -555
40 -64 123 -90 186 -57 34 18 114 100 140 144 l20 34 7 -54 c19 -135 114 -228
237 -228 71 0 129 30 208 110 119 119 229 311 296 518 46 139 76 202 113 236
l22 20 -20 -45 c-29 -63 -26 -112 14 -241 43 -135 80 -306 70 -316 -4 -4 -10
-1 -12 6 -9 24 -55 73 -84 87 -71 37 -153 -5 -205 -105 -27 -51 -26 -159 2
-196 43 -58 68 -69 163 -69 81 0 90 2 139 34 29 18 61 46 73 62 17 24 28 29
62 29 107 1 182 74 291 288 91 178 124 224 184 259 72 42 178 34 242 -18 20
-16 22 -22 10 -26 -35 -14 -70 -62 -70 -95 0 -43 15 -58 56 -58 50 0 84 45 84
111 0 16 3 29 7 29 78 0 418 36 476 50 183 45 286 177 248 318 -15 53 -62 107
-106 122 -71 23 -166 -50 -149 -115 9 -36 69 -85 103 -85 38 0 56 22 41 50 -9
17 -19 21 -53 18 -37 -3 -42 0 -51 24 -12 33 11 63 55 73 88 19 165 -112 124
-211 -46 -112 -165 -173 -365 -188 -41 -3 -137 -11 -212 -17 l-137 -11 -33 25
c-76 57 -145 74 -229 56 -82 -18 -147 -89 -232 -255 -108 -211 -179 -293 -271
-310 -37 -6 -38 -6 -31 17 41 126 28 253 -42 434 -54 137 -64 180 -51 215 12
35 47 48 83 32 27 -12 45 -65 38 -106 -7 -36 14 -33 22 3 8 35 -11 109 -33
135 -69 76 -217 56 -282 -40 -17 -24 -50 -103 -74 -176 -144 -440 -373 -698
-527 -595 -55 36 -74 87 -73 192 0 74 6 102 29 160 34 85 77 145 130 179 46
30 58 32 80 9 22 -22 13 -66 -23 -118 -38 -54 -86 -85 -133 -85 -38 0 -56 -19
-21 -21 147 -12 272 96 272 237 0 167 -208 156 -338 -18 -51 -68 -64 -96 -96
-193 -44 -136 -139 -260 -194 -253 -47 6 -67 58 -66 173 1 107 15 175 70 352
19 62 37 134 41 161 10 84 -30 100 -162 62 -80 -23 -125 -26 -125 -7 0 6 5 28
10 47 35 122 30 235 -13 265 -29 20 -73 19 -123 -4z m123 -69 c6 -26 -15 -151
-36 -205 -9 -24 -13 -26 -32 -17 -28 15 -59 86 -59 135 0 106 104 178 127 87z
m-1284 -497 c25 -25 29 -68 12 -148 -23 -111 -84 -267 -104 -267 -20 0 -52
118 -52 187 0 147 88 285 144 228z m3547 -78 c0 -34 -28 -67 -56 -67 -20 0
-24 5 -24 30 0 23 7 35 32 50 36 22 48 18 48 -13z m-1016 -243 c9 -4 35 -37
57 -75 31 -54 38 -73 30 -88 -24 -44 -129 -81 -175 -60 -25 12 -46 47 -46 77
0 92 72 170 134 146z"/>
<path d="M2792 3324 c-55 -38 -65 -118 -17 -130 53 -13 109 20 124 73 18 62
-49 98 -107 57z"/>
<path d="M10004 1692 c-11 -7 -34 -45 -34 -56 0 -13 31 -5 36 8 10 26 36 27
80 1 53 -31 88 -32 108 -3 31 44 10 68 -23 26 l-18 -22 -51 27 c-53 27 -78 33
-98 19z"/>
<path d="M2853 1541 c-99 -34 -180 -109 -226 -208 -18 -39 -22 -66 -22 -148 0
-89 3 -107 29 -163 53 -115 166 -197 298 -216 85 -13 211 23 283 79 17 13 17
17 4 30 -13 13 -19 12 -52 -11 -136 -92 -321 -72 -433 48 -68 73 -89 126 -89
228 0 71 4 94 26 141 34 73 96 134 168 167 45 21 71 26 137 27 75 0 87 -3 155
-38 64 -32 75 -35 87 -23 13 13 9 19 -34 46 -96 61 -227 77 -331 41z"/>
<path d="M4087 1536 c-157 -66 -244 -204 -235 -375 16 -327 410 -477 642 -245
188 187 131 499 -112 612 -83 39 -213 43 -295 8z m275 -44 c70 -31 141 -102
173 -173 24 -54 27 -70 23 -147 -4 -102 -28 -161 -95 -228 -101 -100 -263
-127 -387 -63 -60 31 -132 105 -157 163 -29 68 -36 166 -15 234 30 101 120
195 219 227 60 20 180 14 239 -13z"/>
<path d="M5693 1541 c-96 -33 -171 -100 -224 -201 -21 -39 -24 -59 -24 -155 0
-99 3 -115 27 -165 33 -67 107 -143 169 -175 124 -63 291 -50 393 31 l36 29 0
118 c0 110 -1 117 -20 117 -19 0 -20 -7 -20 -109 0 -108 0 -110 -27 -129 -75
-51 -202 -70 -289 -42 -270 87 -318 459 -77 607 118 73 269 65 385 -19 15 -10
20 -10 33 3 14 14 12 18 -24 44 -92 63 -233 82 -338 46z"/>
<path d="M8741 1539 c-41 -108 -261 -718 -261 -723 0 -4 9 -6 21 -4 17 2 30
27 69 135 26 72 51 136 55 142 4 7 52 11 130 11 l123 0 30 -77 c16 -43 40
-108 53 -145 20 -56 28 -68 46 -68 21 0 22 1 9 38 -95 263 -258 708 -262 711
-2 2 -8 -7 -13 -20z m69 -248 c28 -78 49 -145 47 -147 -2 -3 -52 -3 -110 -2
l-105 3 49 135 c27 74 51 141 54 149 3 8 7 12 9 10 3 -2 27 -69 56 -148z"/>
<path d="M9385 1547 c-101 -34 -189 -107 -233 -194 -102 -199 -3 -447 211
-528 50 -19 52 -22 38 -44 -7 -11 -4 -18 12 -26 12 -6 23 -21 25 -33 3 -18 -3
-23 -28 -28 -17 -4 -29 -12 -27 -18 5 -12 52 -10 79 5 25 13 24 65 -2 81 -36
23 -22 35 48 41 77 6 163 36 206 72 25 20 28 26 17 39 -12 14 -16 14 -40 -3
-79 -56 -161 -75 -256 -59 -264 42 -372 367 -187 561 118 124 292 139 444 40
21 -13 30 -15 40 -5 18 18 -12 45 -85 78 -73 33 -196 43 -262 21z"/>
<path d="M10088 1554 c-7 -10 -258 -699 -266 -727 -4 -15 0 -18 18 -15 19 2
29 22 66 125 64 181 44 164 190 162 l124 -2 19 -51 c10 -28 33 -93 51 -143 29
-81 36 -93 56 -93 22 0 23 2 13 28 -6 15 -64 173 -129 352 -65 179 -123 336
-128 349 -5 14 -11 20 -14 15z m106 -391 c7 -23 7 -23 -104 -23 -103 0 -112 1
-105 18 4 9 24 64 45 122 68 188 55 184 110 35 26 -71 51 -140 54 -152z"/>
<path d="M10711 1545 c-216 -70 -323 -332 -219 -537 25 -52 114 -138 170 -166
211 -104 464 7 533 234 54 179 -39 379 -213 457 -60 27 -206 34 -271 12z m259
-56 c299 -140 243 -578 -80 -637 -154 -28 -299 50 -368 198 -31 65 -35 178
-10 247 32 87 104 161 196 200 77 32 183 29 262 -8z"/>
<path d="M1620 1180 c0 -362 0 -370 20 -370 19 0 20 8 22 333 l3 332 31 -55
c65 -112 246 -425 248 -427 1 -2 65 106 142 239 l139 241 3 -331 c2 -324 3
-332 22 -332 20 0 20 8 20 371 l0 370 -26 -3 c-22 -3 -44 -36 -162 -240 l-136
-237 -22 37 c-12 20 -74 128 -138 240 -102 175 -121 202 -142 202 l-24 0 0
-370z"/>
<path d="M2420 1180 c0 -363 0 -370 20 -370 20 0 20 7 20 370 0 363 0 370 -20
370 -20 0 -20 -7 -20 -370z"/>
<path d="M3350 1180 c0 -363 0 -370 20 -370 19 0 20 7 20 130 l0 130 69 0 70
0 82 -130 c67 -107 86 -130 105 -130 13 0 24 2 24 5 0 2 -34 56 -75 119 -41
63 -78 121 -81 129 -3 10 5 18 24 25 41 14 100 68 125 116 15 30 21 59 21 106
0 74 -22 125 -76 177 -53 51 -93 63 -218 63 l-110 0 0 -370z m229 320 c35 -10
94 -59 113 -95 37 -66 25 -165 -25 -222 -47 -54 -97 -73 -194 -73 l-83 0 0
200 0 200 78 0 c42 0 93 -4 111 -10z"/>
<path d="M4740 1180 c0 -363 0 -370 20 -370 19 0 20 7 20 130 l0 130 88 0 c70
0 97 5 138 24 155 72 187 274 62 393 -53 51 -93 63 -218 63 l-110 0 0 -370z
m249 311 c45 -23 98 -81 107 -117 4 -13 4 -51 2 -84 -3 -48 -10 -67 -35 -97
-49 -62 -84 -77 -190 -81 l-93 -4 0 201 0 201 85 0 c65 0 95 -5 124 -19z"/>
<path d="M5258 1180 c2 -361 3 -370 22 -370 20 0 20 8 20 370 l0 370 -22 0
-23 0 3 -370z"/>
<path d="M6200 1180 c0 -363 0 -370 20 -370 20 0 20 7 20 328 1 283 3 325 15
308 7 -10 69 -114 137 -232 68 -118 126 -214 130 -214 3 0 66 104 140 231
l133 231 3 -326 2 -326 25 0 25 0 0 371 0 370 -27 -3 c-25 -3 -43 -28 -161
-233 -72 -126 -135 -231 -140 -232 -6 -2 -158 253 -246 414 -22 41 -34 53 -52
53 l-24 0 0 -370z"/>
<path d="M6980 1180 l0 -370 189 0 c184 0 190 1 188 20 -1 19 -8 20 -162 20
-89 0 -164 2 -166 4 -2 2 -3 72 -1 155 l3 151 158 0 c150 0 159 1 164 20 5 19
0 20 -158 20 l-164 0 -3 155 -3 155 161 0 c153 0 162 1 167 20 5 19 0 20 -184
20 l-189 0 0 -370z"/>
<path d="M7480 1180 l0 -371 23 3 22 3 0 323 c0 177 3 322 6 322 3 0 90 -146
193 -325 143 -248 192 -325 207 -325 18 0 19 12 19 370 0 363 0 370 -20 370
-20 0 -20 -7 -20 -322 0 -177 -3 -318 -7 -314 -5 4 -89 148 -188 319 -162 280
-183 312 -207 315 l-28 3 0 -371z"/>
<path d="M8050 1530 c0 -19 7 -20 93 -20 l92 0 0 -347 0 -348 23 -3 22 -3 0
350 0 351 90 0 c83 0 90 1 90 20 0 19 -7 20 -205 20 -198 0 -205 -1 -205 -20z"/>
</g>
</svg>
