<?xml version="1.0" standalone="no"?>
<!DOCTYPE svg PUBLIC "-//W3C//DTD SVG 20010904//EN"
 "http://www.w3.org/TR/2001/REC-SVG-20010904/DTD/svg10.dtd">
<svg version="1.0" xmlns="http://www.w3.org/2000/svg"
 width="765.000000pt" height="713.000000pt" viewBox="0 0 765.000000 713.000000"
 preserveAspectRatio="xMidYMid meet">

<g transform="translate(0.000000,713.000000) scale(0.100000,-0.100000)"
fill="#000000" stroke="none">
<path d="M3193 7070 c-50 -20 -27 -38 102 -80 55 -18 145 -56 200 -84 81 -40
116 -65 181 -130 45 -45 103 -114 129 -154 26 -40 53 -76 61 -79 20 -7 43 15
126 125 39 52 91 110 115 130 88 75 209 139 343 182 119 39 162 61 147 76 -3
3 -23 10 -44 15 -129 30 -336 -27 -473 -130 -62 -46 -144 -145 -171 -204 -7
-15 -15 -27 -19 -27 -4 0 -23 26 -43 59 -113 182 -350 312 -564 310 -37 0 -78
-4 -90 -9z"/>
<path d="M4410 6819 c-200 -29 -381 -172 -489 -386 -17 -35 -35 -63 -39 -63
-4 0 -18 22 -31 50 -49 103 -157 232 -241 290 -150 102 -318 130 -480 81 -92
-28 -215 -90 -299 -149 l-64 -46 -105 108 c-57 59 -105 106 -107 104 -1 -2
-24 -67 -51 -145 l-49 -141 -45 -7 c-75 -11 -221 -63 -296 -104 -172 -96 -283
-291 -284 -497 0 -76 23 -210 49 -286 11 -32 16 -58 12 -58 -4 0 -33 9 -63 19
-139 48 -336 53 -456 12 -87 -30 -183 -92 -237 -154 -83 -95 -155 -265 -177
-417 l-12 -80 -152 -2 -151 -3 63 -133 64 -133 -46 -77 c-90 -147 -134 -279
-134 -397 0 -228 143 -434 394 -566 l69 -37 -54 -27 c-84 -43 -169 -107 -241
-183 -214 -227 -208 -522 15 -841 l46 -65 -111 -105 -110 -106 146 -50 145
-49 11 -56 c17 -82 48 -176 88 -260 68 -141 207 -253 367 -295 110 -28 278
-17 413 27 35 11 66 18 68 15 3 -3 -4 -35 -15 -72 -28 -91 -43 -259 -31 -346
20 -140 99 -280 202 -358 100 -75 263 -136 442 -166 l38 -6 -7 -150 c-4 -82
-4 -149 -1 -149 3 0 66 30 139 66 l133 66 74 -48 c139 -90 269 -134 395 -134
233 0 432 138 565 392 l38 71 32 -64 c61 -120 188 -260 288 -316 91 -51 173
-74 267 -75 136 -2 278 49 440 157 46 30 87 54 92 54 4 -1 51 -48 103 -104 52
-56 97 -103 100 -104 3 0 27 63 53 142 l47 142 112 27 c62 16 150 46 197 69
143 70 251 196 297 348 34 115 26 290 -20 437 -13 41 -21 74 -17 74 5 0 33 -9
64 -19 76 -27 235 -45 322 -38 197 17 370 135 455 311 45 94 88 235 97 319 l6
58 153 -7 c85 -4 154 -4 154 -1 0 4 -30 67 -67 140 l-66 134 31 45 c50 72 109
198 131 278 55 196 -1 400 -150 551 -66 67 -184 152 -247 178 -18 8 -32 16
-32 20 0 4 21 17 48 30 65 32 183 123 245 191 91 99 147 243 147 380 0 124
-55 275 -155 425 l-63 94 111 104 111 104 -145 48 c-79 26 -145 49 -147 50 -2
2 -10 36 -18 76 -22 103 -70 229 -113 296 -74 114 -200 203 -336 238 -110 28
-278 17 -413 -27 -35 -11 -66 -18 -68 -15 -3 3 4 35 15 71 29 96 45 265 31
349 -44 278 -242 449 -592 513 l-91 17 7 149 c4 81 5 148 2 148 -3 0 -49 -21
-103 -48 -54 -26 -114 -54 -134 -64 l-36 -16 -79 49 c-102 63 -206 107 -301
125 -82 15 -83 15 -163 3z m125 -113 c93 -22 296 -121 280 -137 -5 -6 92 -259
104 -272 14 -14 281 4 297 21 11 11 28 13 72 7 74 -9 252 -68 318 -106 169
-97 255 -290 240 -544 -4 -60 -9 -124 -12 -141 l-6 -31 59 10 c32 5 112 10
178 10 196 2 314 -40 426 -152 59 -59 70 -77 107 -171 46 -118 63 -184 52
-197 -4 -4 -34 -66 -65 -138 l-58 -129 59 -54 c120 -110 162 -142 176 -137 33
13 175 -238 204 -360 51 -218 -53 -431 -299 -615 -25 -19 -47 -37 -47 -40 0
-3 13 -14 30 -23 55 -33 171 -141 217 -202 134 -178 158 -343 77 -531 -71
-166 -66 -161 -231 -224 l-145 -55 6 -145 c5 -111 10 -148 22 -156 13 -10 13
-22 3 -80 -43 -249 -148 -422 -301 -494 -104 -49 -191 -64 -342 -57 -72 4
-144 9 -160 13 -27 7 -28 6 -15 -17 8 -16 14 -77 17 -174 4 -131 2 -161 -17
-229 -30 -109 -64 -171 -132 -238 -64 -64 -127 -98 -269 -142 l-85 -27 -35 19
c-19 11 -83 41 -142 67 l-106 47 -40 -44 c-111 -122 -161 -185 -151 -195 12
-12 -103 -94 -196 -141 -112 -56 -195 -75 -302 -70 -87 5 -102 9 -180 48 -94
48 -198 138 -284 246 l-52 65 -32 -48 c-96 -142 -249 -265 -378 -305 -91 -28
-200 -29 -277 -4 -80 27 -248 115 -246 129 0 7 -21 72 -49 145 l-50 134 -145
-7 c-113 -5 -148 -10 -157 -22 -11 -14 -22 -14 -85 -4 -100 16 -240 65 -308
106 -171 104 -250 287 -236 545 3 63 9 131 13 150 5 32 5 34 -11 21 -28 -23
-311 -28 -400 -7 -176 42 -298 152 -363 330 -30 83 -53 170 -45 175 17 13 125
272 116 280 -114 107 -219 190 -229 181 -26 -21 -168 225 -199 347 -31 119
-15 241 47 357 36 68 166 209 245 268 l54 40 -44 31 c-153 110 -272 260 -313
394 -20 64 -19 196 1 264 25 83 113 249 133 249 9 0 73 22 141 48 92 35 126
53 129 67 2 10 0 79 -4 152 -6 108 -10 133 -22 133 -12 0 -14 9 -8 53 25 178
102 354 192 438 118 109 237 144 458 136 77 -3 151 -9 164 -13 22 -7 23 -6 10
17 -21 39 -25 308 -5 392 48 204 166 320 400 393 73 22 92 25 108 15 17 -10
136 -65 235 -107 l32 -14 93 106 c53 61 93 115 92 126 -2 38 212 166 342 204
213 62 436 -38 629 -284 29 -38 51 -58 54 -50 2 7 20 33 39 58 190 243 399
345 607 296z"/>
<path d="M4308 6639 c-66 -15 -152 -65 -199 -116 -115 -123 -119 -321 -8 -448
115 -131 340 -105 404 47 46 112 -25 238 -135 238 -53 0 -97 -32 -110 -80 -10
-36 -8 -44 10 -70 13 -18 30 -30 43 -29 15 0 17 2 7 6 -45 18 -52 72 -14 102
54 43 129 11 140 -59 24 -148 -193 -206 -286 -78 -85 117 -52 281 74 366 71
47 143 65 241 60 97 -5 183 -41 259 -109 50 -44 50 -44 30 -10 -27 47 -114
124 -168 149 -85 40 -198 52 -288 31z"/>
<path d="M3257 6630 c-104 -27 -213 -106 -261 -191 -19 -33 -18 -33 31 13 92
84 198 124 316 116 76 -5 161 -36 215 -78 71 -56 113 -172 92 -252 -37 -137
-152 -203 -258 -149 -68 35 -90 106 -53 168 33 54 118 53 143 -1 14 -31 -10
-72 -44 -79 -20 -3 -21 -4 -5 -11 23 -11 65 17 78 51 13 36 -9 92 -46 115 -97
59 -215 -22 -215 -147 0 -118 83 -197 214 -203 85 -4 128 11 191 69 64 59 89
124 90 234 0 79 -3 97 -28 147 -35 72 -116 146 -193 177 -66 26 -202 37 -267
21z"/>
<path d="M2249 6256 c-179 -48 -319 -239 -306 -419 12 -169 142 -303 308 -315
110 -8 197 44 245 145 48 103 20 209 -69 263 -50 31 -99 34 -146 11 -47 -25
-71 -64 -71 -120 0 -32 6 -44 31 -65 33 -28 70 -34 88 -13 8 11 5 13 -18 9
-41 -6 -73 36 -60 81 12 42 34 57 82 57 31 0 46 -7 73 -34 28 -28 34 -42 34
-75 0 -51 -19 -90 -60 -125 -83 -70 -201 -50 -287 48 -48 55 -67 115 -61 193
14 190 198 349 408 354 37 1 41 2 20 9 -38 12 -160 10 -211 -4z"/>
<path d="M5285 6203 c-47 -12 -31 -21 47 -25 114 -6 187 -40 266 -122 123
-128 142 -302 46 -414 -83 -98 -200 -116 -285 -45 -94 80 -72 215 38 230 35 5
45 2 67 -20 59 -60 6 -144 -67 -106 -22 12 -22 12 -3 -10 24 -26 75 -28 106
-3 16 13 24 32 28 70 4 50 3 53 -36 92 -36 37 -44 40 -92 40 -77 0 -131 -34
-166 -105 -22 -45 -25 -64 -21 -100 12 -88 81 -176 162 -211 134 -57 312 22
386 171 72 147 34 321 -98 446 -79 75 -164 111 -271 115 -48 2 -96 0 -107 -3z"/>
<path d="M3680 5959 c-582 -40 -1124 -289 -1537 -706 -358 -361 -585 -811
-670 -1328 -26 -156 -26 -563 0 -720 65 -398 216 -757 447 -1067 396 -530 969
-867 1624 -953 136 -17 422 -20 564 -4 1030 111 1883 894 2087 1913 70 354 58
744 -34 1092 -229 865 -933 1534 -1816 1728 -187 41 -463 60 -665 45z m499
-164 c380 -59 727 -208 1046 -448 115 -87 328 -304 421 -430 229 -307 373
-655 430 -1037 24 -160 24 -464 0 -625 -98 -652 -446 -1203 -991 -1569 -119
-80 -364 -203 -490 -246 -477 -164 -986 -169 -1455 -14 -740 246 -1304 861
-1485 1619 -62 257 -78 580 -41 829 57 394 206 748 449 1071 78 103 299 324
402 402 348 262 740 419 1157 463 119 12 435 4 557 -15z"/>
<path d="M3570 5665 c-474 -67 -885 -270 -1220 -605 -642 -642 -803 -1623
-400 -2429 287 -573 779 -967 1405 -1125 257 -65 595 -72 884 -20 795 146
1452 763 1655 1554 49 192 61 299 60 535 0 180 -4 242 -22 340 -50 276 -132
501 -265 727 -335 568 -933 954 -1592 1028 -123 14 -390 11 -505 -5z m575 -41
c619 -91 1160 -452 1482 -989 83 -138 136 -254 187 -408 77 -230 106 -412 106
-664 0 -455 -144 -887 -416 -1249 -73 -97 -248 -280 -340 -355 -294 -240 -661
-401 -1035 -454 -150 -21 -418 -21 -568 0 -592 83 -1119 417 -1452 920 -355
535 -439 1234 -221 1840 138 384 370 703 690 948 316 242 697 392 1084 426
128 12 351 5 483 -15z"/>
<path d="M4884 5255 c-4 -9 -1 -29 6 -45 19 -46 8 -156 -22 -221 -34 -75 -70
-114 -131 -143 -119 -59 -307 -57 -542 5 -238 62 -272 69 -378 81 -123 13
-279 0 -395 -33 -189 -54 -428 -215 -499 -336 -14 -24 -26 -43 -28 -43 -1 0
-20 6 -41 14 -22 7 -64 17 -94 21 -30 4 -79 13 -108 21 -62 15 -93 7 -118 -31
-15 -23 -15 -28 -3 -36 8 -5 23 -7 34 -4 50 13 184 17 235 6 83 -17 83 -17 55
-94 -34 -92 -34 -192 -1 -262 27 -59 64 -87 118 -89 30 0 44 6 70 32 32 31 33
36 36 122 4 77 1 96 -20 142 -14 29 -39 68 -57 86 l-33 33 73 72 c131 128 280
187 486 190 61 1 114 0 117 -4 3 -3 -3 -48 -13 -100 -10 -51 -24 -148 -31
-214 -25 -227 -34 -280 -50 -276 -8 2 -58 4 -110 3 -166 0 -287 -56 -340 -155
-29 -55 -21 -82 26 -82 23 0 33 8 51 41 36 65 105 97 220 102 51 3 107 2 126
-2 l34 -6 -33 -258 c-68 -543 -87 -642 -143 -757 -42 -85 -78 -117 -141 -123
-140 -13 -240 100 -240 274 0 50 3 63 18 69 9 4 73 26 142 50 216 73 282 115
296 189 9 49 -19 101 -71 131 -94 56 -231 19 -333 -88 -53 -57 -122 -183 -122
-224 0 -17 -16 -30 -79 -63 -110 -58 -202 -144 -242 -227 -29 -60 -31 -72 -27
-142 5 -86 24 -132 63 -149 61 -28 123 4 111 56 -4 15 -9 66 -13 114 -7 99 8
154 55 210 26 31 99 88 112 88 4 0 10 -31 13 -68 11 -137 99 -263 220 -318 78
-35 183 -37 265 -6 34 13 65 18 91 15 118 -16 403 84 616 216 44 27 83 46 86
43 14 -16 123 -324 145 -409 36 -145 48 -286 30 -373 -40 -192 -165 -301 -345
-300 -93 1 -166 32 -205 87 -25 36 -30 54 -34 122 -2 44 -1 100 2 124 8 53 0
50 180 72 261 32 332 69 330 170 -3 136 -183 191 -349 108 -64 -33 -165 -136
-196 -201 -20 -43 -29 -51 -59 -57 -56 -11 -177 -62 -227 -96 -112 -78 -158
-156 -158 -271 0 -67 3 -80 24 -102 31 -33 75 -42 105 -23 20 14 24 26 29 109
6 109 28 169 81 222 33 32 122 86 143 86 4 0 8 -48 9 -108 0 -85 5 -118 22
-163 45 -114 124 -186 252 -229 54 -18 79 -21 145 -17 86 6 192 35 267 73 76
39 160 128 200 214 54 113 63 164 62 340 0 195 -18 281 -120 594 l-75 228 143
147 c190 193 235 277 193 364 -30 63 -133 104 -230 92 -125 -16 -237 -66 -296
-132 -97 -112 -144 -340 -105 -520 l13 -62 -40 -27 c-165 -109 -474 -234 -578
-234 -19 0 -19 0 0 28 45 60 84 203 136 482 8 47 28 195 44 329 17 134 32 245
34 247 5 6 167 -12 174 -19 2 -3 -14 -68 -36 -145 -23 -77 -41 -147 -41 -156
0 -8 12 -23 26 -32 24 -16 26 -16 44 2 10 10 25 46 35 79 9 33 30 104 46 158
l30 97 48 0 c136 0 233 84 233 201 0 57 -34 111 -86 136 -77 36 -178 -41 -232
-178 l-28 -71 -55 7 c-31 3 -78 9 -104 12 l-48 6 5 36 c3 20 17 131 31 246 34
289 43 337 64 331 9 -3 77 -17 151 -33 116 -24 159 -28 300 -28 143 0 174 3
235 22 154 49 291 159 346 278 34 72 48 188 35 279 -6 40 -10 46 -32 46 -14 0
-27 -7 -30 -15z m-1861 -905 c31 -67 34 -156 8 -208 -19 -37 -26 -42 -54 -42
-94 0 -119 135 -52 285 l25 58 26 -24 c14 -13 35 -44 47 -69z m1213 -155 c10
-39 -4 -74 -37 -94 -32 -20 -97 -36 -106 -27 -9 9 51 127 75 146 29 24 58 13
68 -25z m449 -480 c30 -29 31 -40 5 -83 -34 -56 -238 -258 -249 -247 -17 17
-30 149 -20 197 26 121 193 205 264 133z m-1313 -152 c36 -32 14 -89 -45 -120
-41 -21 -299 -114 -304 -109 -7 7 31 81 64 125 80 108 223 160 285 104z m842
-934 c31 -25 34 -61 6 -89 -30 -30 -52 -36 -206 -60 -77 -11 -147 -23 -156
-26 -26 -8 -22 8 16 58 68 89 157 137 252 138 47 0 67 -5 88 -21z"/>
<path d="M1496 5499 c-187 -65 -314 -260 -292 -448 10 -80 25 -99 26 -31 1
213 157 392 355 408 56 4 71 1 128 -26 147 -69 193 -227 95 -329 -60 -62 -141
-68 -194 -12 -69 72 -10 177 81 143 24 -10 37 -51 24 -77 -9 -20 -8 -20 11 2
41 48 -6 123 -77 125 -69 1 -133 -62 -133 -132 0 -38 23 -98 48 -125 71 -79
219 -74 309 11 111 104 104 294 -17 411 -97 94 -238 125 -364 80z"/>
<path d="M6029 5457 c-185 -69 -280 -270 -202 -426 39 -80 130 -139 217 -140
173 -4 257 236 107 303 -33 15 -45 16 -75 6 -54 -18 -79 -65 -60 -114 11 -28
20 -17 16 18 -7 63 68 86 118 36 43 -43 9 -139 -55 -160 -94 -31 -205 60 -205
167 1 73 61 168 129 203 152 77 345 7 449 -162 32 -51 54 -133 56 -200 1 -71
16 -60 23 18 16 178 -82 346 -247 426 -54 27 -79 32 -150 35 -55 2 -98 -2
-121 -10z"/>
<path d="M943 4481 c-93 -68 -153 -165 -173 -283 -30 -173 58 -357 205 -428
69 -34 207 -36 276 -4 106 49 169 139 169 242 0 98 -45 182 -114 213 -98 45
-209 9 -242 -77 -16 -42 -16 -50 -3 -87 27 -78 111 -105 157 -52 12 14 22 34
22 43 -1 12 -5 9 -15 -9 -26 -48 -86 -46 -111 3 -31 60 5 117 78 125 53 5 85
-11 116 -57 33 -49 28 -142 -11 -193 -79 -104 -264 -108 -365 -7 -85 84 -122
239 -88 365 19 71 48 123 101 183 26 29 45 52 42 52 -2 0 -22 -13 -44 -29z"/>
<path d="M6731 4381 c124 -142 149 -319 67 -473 -35 -66 -56 -87 -122 -122
-103 -55 -252 -21 -304 70 -19 32 -22 50 -19 102 3 54 7 67 34 94 24 24 42 32
81 36 44 4 54 1 76 -21 50 -50 27 -137 -35 -137 -32 0 -46 10 -58 40 l-10 25
0 -27 c-1 -30 20 -55 57 -69 37 -14 92 17 116 65 17 35 18 45 7 85 -16 61 -44
88 -108 107 -48 14 -58 14 -107 0 -67 -20 -118 -73 -140 -147 -20 -66 -20 -82
0 -148 43 -146 226 -234 389 -186 103 30 164 83 218 191 95 189 25 435 -153
547 -35 21 -34 21 11 -32z"/>
<path d="M996 3446 c-112 -47 -192 -156 -217 -296 -24 -136 24 -283 124 -377
49 -47 97 -80 97 -68 0 3 -18 23 -40 46 -85 88 -132 235 -111 350 29 167 133
271 272 271 132 0 219 -72 219 -182 0 -85 -42 -137 -118 -147 -31 -4 -44 0
-70 22 -25 21 -32 34 -32 63 1 51 19 72 64 72 32 0 39 -4 51 -32 l14 -33 1 28
c0 31 -28 64 -64 73 -36 9 -92 -22 -110 -61 -20 -42 -20 -64 0 -115 39 -98
200 -121 287 -42 41 37 71 114 71 182 0 105 -52 186 -151 235 -47 23 -74 29
-143 32 -73 3 -93 0 -144 -21z"/>
<path d="M6453 3371 c-73 -27 -129 -75 -159 -138 -23 -45 -26 -63 -23 -125 3
-60 10 -82 34 -121 60 -95 188 -125 269 -63 47 35 60 61 60 118 0 39 -5 53
-28 77 -16 17 -41 33 -57 36 -31 7 -83 -15 -93 -40 -12 -33 -5 -37 19 -11 28
31 54 33 86 7 51 -41 15 -133 -57 -147 -44 -8 -103 21 -127 63 -22 39 -24 120
-4 159 37 71 107 108 202 109 93 0 163 -37 217 -116 104 -153 87 -345 -45
-503 l-41 -50 33 20 c18 10 53 41 77 67 181 200 131 530 -98 648 -61 32 -193
37 -265 10z"/>
<path d="M1565 2223 c-73 -38 -105 -90 -105 -169 0 -40 5 -51 38 -85 21 -21
50 -41 65 -44 37 -10 98 23 110 58 10 31 2 77 -13 77 -5 0 -7 -7 -4 -15 10
-26 -5 -61 -31 -73 -35 -16 -39 -16 -74 14 -72 60 -14 174 89 174 65 0 143
-69 156 -137 15 -81 -42 -192 -124 -240 -41 -25 -57 -28 -132 -28 -71 0 -94 4
-141 26 -138 65 -232 212 -234 366 0 68 -15 52 -22 -23 -11 -120 27 -229 109
-319 94 -103 206 -151 329 -143 86 7 150 37 216 104 114 117 125 291 25 398
-62 66 -188 96 -257 59z"/>
<path d="M5930 2186 c-128 -34 -210 -146 -197 -270 11 -111 90 -219 203 -276
42 -21 62 -25 139 -25 82 1 97 4 160 35 166 80 270 258 249 428 -9 81 -23 100
-24 32 0 -119 -43 -219 -127 -302 -71 -70 -150 -103 -243 -103 -64 0 -83 4
-128 29 -147 82 -176 255 -58 347 40 31 111 36 153 10 89 -56 48 -192 -50
-167 -31 7 -51 50 -36 79 10 21 9 21 -10 -2 -26 -29 -26 -38 -1 -78 36 -59
120 -61 172 -3 34 37 42 67 34 125 -16 104 -126 170 -236 141z"/>
<path d="M2124 1660 c-119 -39 -217 -161 -230 -288 -17 -159 85 -331 244 -410
72 -35 80 -37 178 -37 69 0 107 4 115 13 10 10 0 12 -51 12 -200 0 -365 144
-395 342 -28 186 187 353 331 257 41 -28 74 -85 74 -129 0 -94 -106 -155 -165
-95 -58 57 -5 142 65 105 15 -8 18 -7 14 3 -10 28 -52 38 -89 23 -39 -17 -55
-42 -55 -88 0 -45 19 -78 60 -106 69 -47 183 -13 229 68 43 77 36 151 -22 236
-65 95 -185 133 -303 94z"/>
<path d="M5315 1586 c-155 -73 -194 -269 -75 -370 17 -14 44 -29 58 -32 15 -3
32 -7 39 -9 26 -8 83 18 112 51 53 60 36 155 -30 169 -31 7 -69 -1 -69 -15 0
-5 7 -7 15 -4 48 19 93 -33 74 -83 -14 -36 -38 -52 -79 -53 -61 0 -110 53
-110 120 0 89 106 172 198 155 93 -17 172 -87 202 -179 29 -88 -9 -228 -84
-314 -70 -80 -205 -140 -323 -143 l-38 -1 35 -10 c58 -17 191 -3 254 27 158
75 264 241 254 401 -6 91 -35 153 -104 221 -94 91 -224 119 -329 69z"/>
<path d="M4157 1149 c-82 -19 -140 -67 -185 -153 -24 -45 -27 -62 -27 -146 0
-84 3 -101 29 -152 72 -146 252 -230 426 -200 91 16 149 44 215 104 52 47 103
118 86 118 -5 0 -11 -7 -15 -15 -11 -30 -129 -105 -198 -126 -129 -40 -289 -6
-372 77 -47 48 -79 122 -80 185 -1 82 43 166 104 197 102 51 207 11 226 -86
18 -87 -83 -156 -142 -97 -29 28 -22 83 12 96 33 12 26 22 -9 14 -26 -7 -58
-58 -53 -85 17 -88 123 -127 202 -75 59 38 80 153 44 232 -23 51 -88 97 -161
112 -56 12 -50 12 -102 0z"/>
<path d="M3315 1128 c-71 -25 -118 -72 -136 -136 -40 -141 76 -263 196 -206
40 19 68 72 59 109 -6 25 -47 65 -67 65 -5 0 2 -11 17 -25 33 -30 33 -59 1
-90 -55 -56 -145 -5 -145 82 0 41 35 92 75 109 45 18 118 18 156 -1 67 -35
118 -151 105 -239 -14 -94 -107 -198 -204 -226 -147 -44 -300 -11 -416 91
l-50 44 20 -34 c26 -45 108 -117 166 -147 192 -97 456 -18 545 165 24 49 28
68 28 146 0 102 -18 153 -76 220 -64 73 -184 105 -274 73z"/>
<path d="M1875 6552 c-58 -36 -144 -141 -184 -225 -72 -151 -89 -291 -51 -432
10 -38 17 -71 15 -73 -1 -1 -37 5 -81 14 -159 33 -339 1 -487 -87 -76 -45
-171 -133 -182 -170 -15 -46 11 -42 142 20 262 124 381 142 621 94 61 -12 86
-13 94 -5 13 13 12 78 -3 186 -26 176 7 343 107 540 75 150 77 179 9 138z"/>
<path d="M5826 6504 c-4 -10 16 -64 48 -130 102 -211 133 -350 116 -508 -6
-52 -15 -109 -20 -128 -6 -18 -10 -45 -10 -60 0 -45 24 -46 239 -18 146 19
323 -23 517 -124 58 -31 110 -53 115 -50 24 14 4 51 -63 119 -80 79 -189 140
-304 169 -82 21 -212 19 -299 -4 -38 -10 -71 -17 -72 -16 -1 1 5 29 14 61 27
98 21 251 -12 355 -26 82 -88 196 -137 252 -29 33 -107 98 -118 98 -4 0 -11
-7 -14 -16z"/>
<path d="M345 4289 c-12 -54 -7 -180 10 -244 8 -33 34 -98 57 -145 49 -101
149 -207 241 -256 l57 -30 -70 -48 c-197 -135 -326 -385 -306 -595 10 -114 39
-106 82 22 92 276 179 401 374 533 41 27 76 57 78 66 4 19 -19 41 -113 113
-170 129 -250 248 -330 490 -43 129 -67 156 -80 94z"/>
<path d="M7295 4193 c-127 -347 -207 -466 -393 -583 -39 -25 -74 -53 -77 -63
-9 -24 18 -52 129 -135 148 -110 246 -261 315 -489 18 -56 37 -105 43 -109 42
-26 53 157 17 286 -44 160 -134 284 -272 374 l-75 49 74 49 c159 106 260 269
296 476 14 85 2 185 -23 190 -12 2 -22 -11 -34 -45z"/>
<path d="M854 1635 c-8 -20 27 -75 79 -122 57 -53 167 -116 247 -144 94 -32
241 -36 340 -11 41 11 76 19 77 18 1 -1 -5 -29 -14 -61 -11 -39 -16 -96 -16
-165 1 -129 32 -238 100 -348 46 -74 133 -167 166 -178 44 -14 40 14 -21 143
-115 242 -139 397 -97 605 24 119 23 122 -73 114 -42 -3 -121 -9 -176 -12
-166 -11 -307 23 -472 112 -111 60 -133 67 -140 49z"/>
<path d="M6630 1526 c-181 -86 -320 -121 -440 -113 -47 4 -120 14 -163 23
-112 23 -112 23 -101 -94 25 -289 5 -414 -102 -625 -35 -71 -62 -133 -59 -138
21 -33 129 53 193 154 105 168 137 358 88 522 -9 27 -14 51 -12 53 2 1 44 -4
92 -14 219 -41 451 33 604 191 57 60 72 93 45 102 -5 1 -71 -26 -145 -61z"/>
<path d="M3764 547 c-21 -24 -66 -79 -98 -121 -96 -125 -226 -207 -445 -281
-69 -23 -126 -46 -129 -53 -7 -21 42 -35 122 -36 107 0 171 16 292 75 115 56
176 111 245 219 24 38 46 70 49 70 3 0 25 -29 48 -64 95 -145 259 -255 433
-291 93 -19 210 -18 231 3 19 19 -7 36 -112 72 -265 91 -384 177 -518 375 -26
38 -54 71 -63 73 -9 1 -33 -17 -55 -41z"/>
<path d="M48 63 c7 -3 16 -2 19 1 4 3 -2 6 -13 5 -11 0 -14 -3 -6 -6z"/>
<path d="M137 19 c4 -13 8 -18 11 -10 2 7 -1 18 -6 23 -8 8 -9 4 -5 -13z"/>
<path d="M58 3 c7 -3 16 -2 19 1 4 3 -2 6 -13 5 -11 0 -14 -3 -6 -6z"/>
</g>
</svg>
